%TF.GenerationSoftware,KiCad,Pcbnew,9.0.6*%
%TF.CreationDate,2026-07-16T20:39:14+05:30*%
%TF.ProjectId,FC - BREAKOUT,4643202d-2042-4524-9541-4b4f55542e6b,rev?*%
%TF.SameCoordinates,Original*%
%TF.FileFunction,Profile,NP*%
%FSLAX46Y46*%
G04 Gerber Fmt 4.6, Leading zero omitted, Abs format (unit mm)*
G04 Created by KiCad (PCBNEW 9.0.6) date 2026-07-16 20:39:14*
%MOMM*%
%LPD*%
G01*
G04 APERTURE LIST*
%TA.AperFunction,Profile*%
%ADD10C,0.200000*%
%TD*%
%TA.AperFunction,Profile*%
%ADD11C,0.050000*%
%TD*%
G04 APERTURE END LIST*
D10*
X90882001Y-54492001D02*
X85882001Y-45831747D01*
X105982001Y-86592001D02*
X102780439Y-96592001D01*
X133961000Y-93448000D02*
G75*
G02*
X130961000Y-93448000I-1500000J0D01*
G01*
X130961000Y-93448000D02*
G75*
G02*
X133961000Y-93448000I1500000J0D01*
G01*
X144082001Y-83592001D02*
X135382000Y-93742002D01*
X85882001Y-83592001D02*
X85882001Y-79152255D01*
X144082001Y-41392001D02*
X144082001Y-45831747D01*
X85882001Y-41392001D02*
X94582001Y-31242001D01*
X97432002Y-96592001D02*
G75*
G02*
X94581999Y-93742003I-2J2850001D01*
G01*
X142582001Y-44492001D02*
G75*
G02*
X139382001Y-44492001I-1600000J0D01*
G01*
X139382001Y-44492001D02*
G75*
G02*
X142582001Y-44492001I1600000J0D01*
G01*
X144082001Y-45831747D02*
X139082001Y-54492001D01*
X144082001Y-79152255D02*
X144082001Y-83592001D01*
X123982001Y-86592001D02*
X105982001Y-86592001D01*
X135382000Y-93742002D02*
G75*
G02*
X132532000Y-96592000I-2850000J2D01*
G01*
X97432001Y-28392001D02*
X132532001Y-28392001D01*
X135382000Y-31242000D02*
X144082001Y-41392001D01*
X133965329Y-31246009D02*
G75*
G02*
X130965329Y-31246009I-1500000J0D01*
G01*
X130965329Y-31246009D02*
G75*
G02*
X133965329Y-31246009I1500000J0D01*
G01*
X99163000Y-93448000D02*
G75*
G02*
X96163000Y-93448000I-1500000J0D01*
G01*
X96163000Y-93448000D02*
G75*
G02*
X99163000Y-93448000I1500000J0D01*
G01*
X139082001Y-54492001D02*
X139082001Y-70492001D01*
X102780439Y-96592001D02*
X97432002Y-96592001D01*
X139082001Y-70492001D02*
X144082001Y-79152255D01*
X85882001Y-45831747D02*
X85882001Y-41392001D01*
X132532000Y-96592001D02*
X127183563Y-96592001D01*
X90882001Y-70492001D02*
X90882001Y-54492001D01*
X90582001Y-44492001D02*
G75*
G02*
X87382001Y-44492001I-1600000J0D01*
G01*
X87382001Y-44492001D02*
G75*
G02*
X90582001Y-44492001I1600000J0D01*
G01*
X94582003Y-93742003D02*
X85882001Y-83592001D01*
X99157547Y-31234015D02*
G75*
G02*
X96157547Y-31234015I-1500000J0D01*
G01*
X96157547Y-31234015D02*
G75*
G02*
X99157547Y-31234015I1500000J0D01*
G01*
X132532001Y-28392001D02*
G75*
G02*
X135381999Y-31242000I-1J-2849999D01*
G01*
X90582001Y-80492001D02*
G75*
G02*
X87382001Y-80492001I-1600000J0D01*
G01*
X87382001Y-80492001D02*
G75*
G02*
X90582001Y-80492001I1600000J0D01*
G01*
X142582001Y-80492001D02*
G75*
G02*
X139382001Y-80492001I-1600000J0D01*
G01*
X139382001Y-80492001D02*
G75*
G02*
X142582001Y-80492001I1600000J0D01*
G01*
D11*
X121158000Y-71628000D02*
X129794000Y-71628000D01*
X129794000Y-76922000D01*
X121158000Y-76922000D01*
X121158000Y-71628000D01*
D10*
X127183563Y-96592001D02*
X123982001Y-86592001D01*
X94582001Y-31242001D02*
G75*
G02*
X97432001Y-28392001I2849999J1D01*
G01*
X85882001Y-79152255D02*
X90882001Y-70492001D01*
M02*
