%TF.GenerationSoftware,KiCad,Pcbnew,9.0.6*%
%TF.CreationDate,2026-07-16T20:39:14+05:30*%
%TF.ProjectId,FC - BREAKOUT,4643202d-2042-4524-9541-4b4f55542e6b,rev?*%
%TF.SameCoordinates,Original*%
%TF.FileFunction,Soldermask,Bot*%
%TF.FilePolarity,Negative*%
%FSLAX46Y46*%
G04 Gerber Fmt 4.6, Leading zero omitted, Abs format (unit mm)*
G04 Created by KiCad (PCBNEW 9.0.6) date 2026-07-16 20:39:14*
%MOMM*%
%LPD*%
G01*
G04 APERTURE LIST*
G04 Aperture macros list*
%AMRoundRect*
0 Rectangle with rounded corners*
0 $1 Rounding radius*
0 $2 $3 $4 $5 $6 $7 $8 $9 X,Y pos of 4 corners*
0 Add a 4 corners polygon primitive as box body*
4,1,4,$2,$3,$4,$5,$6,$7,$8,$9,$2,$3,0*
0 Add four circle primitives for the rounded corners*
1,1,$1+$1,$2,$3*
1,1,$1+$1,$4,$5*
1,1,$1+$1,$6,$7*
1,1,$1+$1,$8,$9*
0 Add four rect primitives between the rounded corners*
20,1,$1+$1,$2,$3,$4,$5,0*
20,1,$1+$1,$4,$5,$6,$7,0*
20,1,$1+$1,$6,$7,$8,$9,0*
20,1,$1+$1,$8,$9,$2,$3,0*%
G04 Aperture macros list end*
%ADD10RoundRect,0.250000X-0.750000X-0.385000X0.750000X-0.385000X0.750000X0.385000X-0.750000X0.385000X0*%
%ADD11RoundRect,0.158750X-0.841250X-0.476250X0.841250X-0.476250X0.841250X0.476250X-0.841250X0.476250X0*%
%ADD12RoundRect,0.158750X-0.476250X-0.841250X0.476250X-0.841250X0.476250X0.841250X-0.476250X0.841250X0*%
G04 APERTURE END LIST*
D10*
%TO.C,DEVBOARD_FC1*%
X95800000Y-35740000D03*
X98340000Y-35740000D03*
X95800000Y-38280000D03*
X98340000Y-38280000D03*
X95800000Y-58600000D03*
X98340000Y-61140000D03*
X95800000Y-63680000D03*
X98340000Y-63680000D03*
X95800000Y-66220000D03*
X98340000Y-66220000D03*
X95800000Y-68760000D03*
X98340000Y-68760000D03*
X95800000Y-71300000D03*
X98340000Y-71300000D03*
X95800000Y-73840000D03*
X98340000Y-73840000D03*
X95800000Y-76380000D03*
X98340000Y-76380000D03*
X95800000Y-78920000D03*
X95800000Y-81460000D03*
X98340000Y-81460000D03*
X95800000Y-84000000D03*
X98340000Y-86540000D03*
X131661133Y-35740000D03*
X134201133Y-35740000D03*
X131661133Y-38280000D03*
X134201133Y-38280000D03*
X131661133Y-40820000D03*
D11*
X134201133Y-40820000D03*
D10*
X131661133Y-43360000D03*
X134201133Y-43360000D03*
X131661133Y-45900000D03*
X131661133Y-53520000D03*
X134201133Y-53520000D03*
X134201133Y-58600000D03*
X134201133Y-61140000D03*
X134201133Y-63680000D03*
X131661133Y-76380000D03*
X134201133Y-76380000D03*
X131661133Y-86540000D03*
X134201133Y-86540000D03*
X134201133Y-89080000D03*
D12*
X106261133Y-34440000D03*
X108801133Y-34440000D03*
X111341133Y-34440000D03*
X113881133Y-34440000D03*
X116421133Y-34440000D03*
X118961133Y-34440000D03*
%TD*%
G36*
X115776835Y-50379673D02*
G01*
X115821182Y-50408174D01*
X122919827Y-57506819D01*
X122953312Y-57568142D01*
X122948328Y-57637834D01*
X122919827Y-57682181D01*
X115821182Y-64780826D01*
X115759859Y-64814311D01*
X115690167Y-64809327D01*
X115645820Y-64780826D01*
X108547175Y-57682181D01*
X108513690Y-57620858D01*
X108518674Y-57551166D01*
X108547175Y-57506819D01*
X115645820Y-50408174D01*
X115707143Y-50374689D01*
X115776835Y-50379673D01*
G37*
M02*
