M48
; DRILL file {KiCad 9.0.6} date 2026-07-16T20:39:16+0530
; FORMAT={-:-/ absolute / metric / decimal}
; #@! TF.CreationDate,2026-07-16T20:39:16+05:30
; #@! TF.GenerationSoftware,Kicad,Pcbnew,9.0.6
; #@! TF.FileFunction,Plated,1,4,PTH
FMAT,2
METRIC
; #@! TA.AperFunction,Plated,PTH,ViaDrill
T1C0.300
; #@! TA.AperFunction,Plated,PTH,ViaDrill
T2C0.400
; #@! TA.AperFunction,Plated,PTH,ComponentDrill
T3C0.600
%
G90
G05
T1
X93.218Y-87.122
X96.935Y-80.055
X99.949Y-79.883
X101.092Y-35.179
X103.886Y-69.977
X104.14Y-33.147
X106.756Y-73.889
X109.305Y-57.608
X110.012Y-56.901
X110.012Y-58.316
X110.49Y-33.274
X110.719Y-56.194
X110.719Y-57.608
X110.719Y-59.023
X111.426Y-55.487
X111.426Y-56.901
X111.426Y-58.316
X111.426Y-59.73
X112.133Y-54.78
X112.133Y-56.194
X112.133Y-57.608
X112.133Y-59.023
X112.133Y-60.437
X112.841Y-54.073
X112.841Y-55.487
X112.841Y-56.901
X112.841Y-58.316
X112.841Y-59.73
X112.841Y-61.144
X113.03Y-33.274
X113.548Y-53.366
X113.548Y-54.78
X113.548Y-56.194
X113.548Y-57.608
X113.548Y-59.023
X113.548Y-60.437
X113.548Y-61.851
X114.255Y-52.659
X114.255Y-54.073
X114.255Y-55.487
X114.255Y-56.901
X114.255Y-58.316
X114.255Y-59.73
X114.255Y-61.144
X114.255Y-62.558
X114.962Y-51.952
X114.962Y-53.366
X114.962Y-54.78
X114.962Y-56.194
X114.962Y-57.608
X114.962Y-59.023
X114.962Y-60.437
X114.962Y-61.851
X114.962Y-63.265
X115.669Y-51.244
X115.669Y-52.659
X115.669Y-54.073
X115.669Y-55.487
X115.669Y-56.901
X115.669Y-58.316
X115.669Y-59.73
X115.669Y-61.144
X115.669Y-62.558
X115.669Y-63.972
X116.376Y-51.952
X116.376Y-53.366
X116.376Y-54.78
X116.376Y-56.194
X116.376Y-57.608
X116.376Y-59.023
X116.376Y-60.437
X116.376Y-61.851
X116.376Y-63.265
X116.421Y-36.284
X117.083Y-52.659
X117.083Y-54.073
X117.083Y-55.487
X117.083Y-56.901
X117.083Y-58.316
X117.083Y-59.73
X117.083Y-61.144
X117.083Y-62.558
X117.79Y-53.366
X117.79Y-54.78
X117.79Y-56.194
X117.79Y-57.608
X117.79Y-59.023
X117.79Y-60.437
X117.79Y-61.851
X118.497Y-54.073
X118.497Y-55.487
X118.497Y-56.901
X118.497Y-58.316
X118.497Y-59.73
X118.497Y-61.144
X118.999Y-36.322
X119.204Y-54.78
X119.204Y-56.194
X119.204Y-57.608
X119.204Y-59.023
X119.204Y-60.437
X119.912Y-55.487
X119.912Y-56.901
X119.912Y-58.316
X119.912Y-59.73
X120.619Y-56.194
X120.619Y-57.608
X120.619Y-59.023
X121.326Y-56.901
X121.326Y-58.316
X122.033Y-57.608
X122.174Y-38.862
X135.128Y-81.026
X136.906Y-48.514
X136.906Y-59.944
T2
X91.186Y-40.132
X93.218Y-70.358
X95.269Y-59.963
X95.8Y-68.772
X95.8Y-71.3
X96.012Y-51.308
X96.52Y-61.976
X96.652Y-87.0
X97.79Y-53.594
X98.34Y-71.3
X99.822Y-65.024
X99.822Y-85.09
X99.884Y-69.342
X100.158Y-74.442
X100.584Y-70.612
X101.13Y-74.484
X101.346Y-67.818
X102.337Y-76.646
X102.514Y-74.484
X103.214Y-75.946
X104.201Y-73.99
X117.346Y-73.912
X119.126Y-41.352
X129.794Y-89.916
X130.048Y-84.328
X131.572Y-78.74
X131.661Y-73.921
X132.207Y-85.09
X134.112Y-57.404
X134.112Y-62.484
X134.201Y-69.685
X134.366Y-44.958
X134.62Y-52.324
X134.874Y-55.118
X135.128Y-42.418
X136.398Y-36.576
X138.938Y-83.312
T3
X95.8Y-38.28
X95.8Y-81.46
X98.34Y-38.28
X98.34Y-81.46
X131.661Y-40.82
X134.201Y-40.82
X134.201Y-86.54
X134.201Y-89.08
M30
