%TF.GenerationSoftware,KiCad,Pcbnew,9.0.6*%
%TF.CreationDate,2026-07-16T20:39:13+05:30*%
%TF.ProjectId,FC - BREAKOUT,4643202d-2042-4524-9541-4b4f55542e6b,rev?*%
%TF.SameCoordinates,Original*%
%TF.FileFunction,Copper,L4,Bot*%
%TF.FilePolarity,Positive*%
%FSLAX46Y46*%
G04 Gerber Fmt 4.6, Leading zero omitted, Abs format (unit mm)*
G04 Created by KiCad (PCBNEW 9.0.6) date 2026-07-16 20:39:13*
%MOMM*%
%LPD*%
G01*
G04 APERTURE LIST*
G04 Aperture macros list*
%AMRoundRect*
0 Rectangle with rounded corners*
0 $1 Rounding radius*
0 $2 $3 $4 $5 $6 $7 $8 $9 X,Y pos of 4 corners*
0 Add a 4 corners polygon primitive as box body*
4,1,4,$2,$3,$4,$5,$6,$7,$8,$9,$2,$3,0*
0 Add four circle primitives for the rounded corners*
1,1,$1+$1,$2,$3*
1,1,$1+$1,$4,$5*
1,1,$1+$1,$6,$7*
1,1,$1+$1,$8,$9*
0 Add four rect primitives between the rounded corners*
20,1,$1+$1,$2,$3,$4,$5,0*
20,1,$1+$1,$4,$5,$6,$7,0*
20,1,$1+$1,$6,$7,$8,$9,0*
20,1,$1+$1,$8,$9,$2,$3,0*%
G04 Aperture macros list end*
%TA.AperFunction,SMDPad,CuDef*%
%ADD10RoundRect,0.250000X-0.750000X-0.385000X0.750000X-0.385000X0.750000X0.385000X-0.750000X0.385000X0*%
%TD*%
%TA.AperFunction,ComponentPad*%
%ADD11RoundRect,0.250000X-0.750000X-0.385000X0.750000X-0.385000X0.750000X0.385000X-0.750000X0.385000X0*%
%TD*%
%TA.AperFunction,ComponentPad*%
%ADD12RoundRect,0.158750X-0.841250X-0.476250X0.841250X-0.476250X0.841250X0.476250X-0.841250X0.476250X0*%
%TD*%
%TA.AperFunction,SMDPad,CuDef*%
%ADD13RoundRect,0.158750X-0.476250X-0.841250X0.476250X-0.841250X0.476250X0.841250X-0.476250X0.841250X0*%
%TD*%
%TA.AperFunction,ViaPad*%
%ADD14C,0.600000*%
%TD*%
%TA.AperFunction,Conductor*%
%ADD15C,0.800000*%
%TD*%
%TA.AperFunction,Conductor*%
%ADD16C,0.400000*%
%TD*%
%TA.AperFunction,Conductor*%
%ADD17C,0.600000*%
%TD*%
G04 APERTURE END LIST*
D10*
%TO.P,DEVBOARD_FC1,1,3V3*%
%TO.N,Net-(3.3V1-Pad1)*%
X95800000Y-35740000D03*
%TO.P,DEVBOARD_FC1,2,3V3*%
X98340000Y-35740000D03*
D11*
%TO.P,DEVBOARD_FC1,3,GND*%
%TO.N,GND*%
X95800000Y-38280000D03*
%TO.P,DEVBOARD_FC1,4,GND*%
X98340000Y-38280000D03*
D10*
%TO.P,DEVBOARD_FC1,5,PE8*%
%TO.N,Net-(DEVBOARD_FC1-PE8)*%
X95800000Y-58600000D03*
%TO.P,DEVBOARD_FC1,6,PE7*%
%TO.N,Net-(DEVBOARD_FC1-PE7)*%
X98340000Y-61140000D03*
%TO.P,DEVBOARD_FC1,7,PB0*%
%TO.N,Net-(DEVBOARD_FC1-PB0)*%
X95800000Y-63680000D03*
%TO.P,DEVBOARD_FC1,8,PB1*%
%TO.N,Net-(DEVBOARD_FC1-PB1)*%
X98340000Y-63680000D03*
%TO.P,DEVBOARD_FC1,9,PC4*%
%TO.N,Net-(DEVBOARD_FC1-PC4)*%
X95800000Y-66220000D03*
%TO.P,DEVBOARD_FC1,10,PC5*%
%TO.N,unconnected-(DEVBOARD_FC1-PC5-Pad10)*%
X98340000Y-66220000D03*
%TO.P,DEVBOARD_FC1,11,PA6*%
%TO.N,Net-(DEVBOARD_FC1-PA6)*%
X95800000Y-68760000D03*
%TO.P,DEVBOARD_FC1,12,PA7*%
%TO.N,Net-(DEVBOARD_FC1-PA7)*%
X98340000Y-68760000D03*
%TO.P,DEVBOARD_FC1,13,PA4*%
%TO.N,Net-(DEVBOARD_FC1-PA4)*%
X95800000Y-71300000D03*
%TO.P,DEVBOARD_FC1,14,PA5*%
%TO.N,Net-(DEVBOARD_FC1-PA5)*%
X98340000Y-71300000D03*
%TO.P,DEVBOARD_FC1,15,PA2*%
%TO.N,Net-(DEVBOARD_FC1-PA2)*%
X95800000Y-73840000D03*
%TO.P,DEVBOARD_FC1,16,PA3*%
%TO.N,Net-(DEVBOARD_FC1-PA3)*%
X98340000Y-73840000D03*
%TO.P,DEVBOARD_FC1,17,PA0*%
%TO.N,Net-(DEVBOARD_FC1-PA0)*%
X95800000Y-76380000D03*
%TO.P,DEVBOARD_FC1,18,PA1*%
%TO.N,Net-(DEVBOARD_FC1-PA1)*%
X98340000Y-76380000D03*
%TO.P,DEVBOARD_FC1,19,PC2*%
%TO.N,Net-(DEVBOARD_FC1-PC2)*%
X95800000Y-78920000D03*
D11*
%TO.P,DEVBOARD_FC1,20,PC0*%
%TO.N,Net-(DEVBOARD_FC1-PC0)*%
X95800000Y-81460000D03*
%TO.P,DEVBOARD_FC1,21,PC1*%
%TO.N,Net-(DEVBOARD_FC1-PC1)*%
X98340000Y-81460000D03*
D10*
%TO.P,DEVBOARD_FC1,22,PE6*%
%TO.N,Net-(DEVBOARD_FC1-PE6)*%
X95800000Y-84000000D03*
%TO.P,DEVBOARD_FC1,23,PE5*%
%TO.N,Net-(DEVBOARD_FC1-PE5)*%
X98340000Y-86540000D03*
%TO.P,DEVBOARD_FC1,24,5V*%
%TO.N,+5V*%
X131661133Y-35740000D03*
%TO.P,DEVBOARD_FC1,25,5V*%
X134201133Y-35740000D03*
%TO.P,DEVBOARD_FC1,26,3V3*%
%TO.N,Net-(3.3V1-Pad1)*%
X131661133Y-38280000D03*
%TO.P,DEVBOARD_FC1,27,3V3*%
X134201133Y-38280000D03*
D11*
%TO.P,DEVBOARD_FC1,28,GND*%
%TO.N,GND*%
X131661133Y-40820000D03*
D12*
%TO.P,DEVBOARD_FC1,29,GND*%
X134201133Y-40820000D03*
D10*
%TO.P,DEVBOARD_FC1,30,PD8*%
%TO.N,Net-(DEVBOARD_FC1-PD8)*%
X131661133Y-43360000D03*
%TO.P,DEVBOARD_FC1,31,PD9*%
%TO.N,Net-(DEVBOARD_FC1-PD9)*%
X134201133Y-43360000D03*
%TO.P,DEVBOARD_FC1,32,PD10*%
%TO.N,Net-(DEVBOARD_FC1-PD10)*%
X131661133Y-45900000D03*
%TO.P,DEVBOARD_FC1,33,PC6*%
%TO.N,Net-(DEVBOARD_FC1-PC6)*%
X131661133Y-53520000D03*
%TO.P,DEVBOARD_FC1,34,PC7*%
%TO.N,Net-(DEVBOARD_FC1-PC7)*%
X134201133Y-53520000D03*
%TO.P,DEVBOARD_FC1,35,PA9*%
%TO.N,Net-(DEVBOARD_FC1-PA9)*%
X134201133Y-58600000D03*
%TO.P,DEVBOARD_FC1,36,PA10*%
%TO.N,Net-(DEVBOARD_FC1-PA10)*%
X134201133Y-61140000D03*
%TO.P,DEVBOARD_FC1,37,PA15*%
%TO.N,Net-(DEVBOARD_FC1-PA15)*%
X134201133Y-63680000D03*
%TO.P,DEVBOARD_FC1,38,PD5*%
%TO.N,Net-(DEVBOARD_FC1-PD5)*%
X131661133Y-76380000D03*
%TO.P,DEVBOARD_FC1,39,PD6*%
%TO.N,Net-(DEVBOARD_FC1-PD6)*%
X134201133Y-76380000D03*
%TO.P,DEVBOARD_FC1,40,PB8*%
%TO.N,Net-(DEVBOARD_FC1-PB8)*%
X131661133Y-86540000D03*
D11*
%TO.P,DEVBOARD_FC1,41,PB9*%
%TO.N,Net-(DEVBOARD_FC1-PB9)*%
X134201133Y-86540000D03*
%TO.P,DEVBOARD_FC1,42,PE1*%
%TO.N,Net-(DEVBOARD_FC1-PE1)*%
X134201133Y-89080000D03*
D13*
%TO.P,DEVBOARD_FC1,43,3V3*%
%TO.N,Net-(3.3V1-Pad1)*%
X106261133Y-34440000D03*
%TO.P,DEVBOARD_FC1,44,GND*%
%TO.N,GND*%
X108801133Y-34440000D03*
%TO.P,DEVBOARD_FC1,45,PB15*%
%TO.N,Net-(DEVBOARD_FC1-PB15)*%
X111341133Y-34440000D03*
%TO.P,DEVBOARD_FC1,46,PB13*%
%TO.N,Net-(DEVBOARD_FC1-PB13)*%
X113881133Y-34440000D03*
%TO.P,DEVBOARD_FC1,47,PB12*%
%TO.N,Net-(DEVBOARD_FC1-PB12)*%
X116421133Y-34440000D03*
%TO.P,DEVBOARD_FC1,48,PB14*%
%TO.N,Net-(DEVBOARD_FC1-PB14)*%
X118961133Y-34440000D03*
%TD*%
D14*
%TO.N,Net-(DEVBOARD_FC1-PB8)*%
X130048000Y-84328000D03*
%TO.N,Net-(DEVBOARD_FC1-PB9)*%
X132207000Y-85090000D03*
%TO.N,Net-(DEVBOARD_FC1-PC1)*%
X96935000Y-80055000D03*
%TO.N,Net-(DEVBOARD_FC1-PC2)*%
X135128000Y-81026000D03*
%TO.N,Net-(DEVBOARD_FC1-PB13)*%
X113030000Y-33274000D03*
%TO.N,+5V*%
X93218000Y-70358000D03*
X136906000Y-48514000D03*
X138938000Y-83312000D03*
X93218000Y-87122000D03*
X136906000Y-59944000D03*
X91186000Y-40132000D03*
X136398000Y-36576000D03*
%TO.N,Net-(DEVBOARD_FC1-PD10)*%
X119126000Y-41351530D03*
%TO.N,Net-(DEVBOARD_FC1-PC0)*%
X99949000Y-79883000D03*
%TO.N,Net-(DEVBOARD_FC1-PB15)*%
X110490000Y-33274000D03*
%TO.N,Net-(DEVBOARD_FC1-PE7)*%
X97790000Y-53594000D03*
%TO.N,Net-(DEVBOARD_FC1-PA15)*%
X134201133Y-69685133D03*
%TO.N,Net-(DEVBOARD_FC1-PA5)*%
X98340000Y-71300000D03*
%TO.N,Net-(DEVBOARD_FC1-PA3)*%
X99884000Y-69342000D03*
%TO.N,Net-(DEVBOARD_FC1-PB14)*%
X118999000Y-36322000D03*
%TO.N,Net-(DEVBOARD_FC1-PA2)*%
X100584000Y-70612000D03*
%TO.N,Net-(DEVBOARD_FC1-PD9)*%
X135128000Y-42418000D03*
%TO.N,Net-(DEVBOARD_FC1-PB12)*%
X116421133Y-36284133D03*
%TO.N,Net-(DEVBOARD_FC1-PA0)*%
X101130003Y-74484000D03*
%TO.N,Net-(DEVBOARD_FC1-PA7)*%
X106756200Y-73888600D03*
X103886000Y-69977000D03*
X101346000Y-67818000D03*
%TO.N,Net-(DEVBOARD_FC1-PA9)*%
X134112000Y-57404000D03*
%TO.N,Net-(DEVBOARD_FC1-PD8)*%
X134366000Y-44958000D03*
%TO.N,Net-(DEVBOARD_FC1-PD5)*%
X131661133Y-73921313D03*
%TO.N,Net-(DEVBOARD_FC1-PE5)*%
X99822000Y-85090000D03*
%TO.N,Net-(DEVBOARD_FC1-PC7)*%
X134620000Y-52324000D03*
%TO.N,Net-(DEVBOARD_FC1-PD6)*%
X131572000Y-78740000D03*
%TO.N,Net-(DEVBOARD_FC1-PE8)*%
X96012000Y-51308000D03*
%TO.N,Net-(DEVBOARD_FC1-PA10)*%
X134112000Y-62484000D03*
%TO.N,Net-(DEVBOARD_FC1-PC4)*%
X99822000Y-65024000D03*
%TO.N,Net-(DEVBOARD_FC1-PA6)*%
X95800000Y-68772000D03*
X102514400Y-74484000D03*
X102336600Y-76646000D03*
%TO.N,GND*%
X115668946Y-61143967D03*
X116376052Y-60436861D03*
X117790266Y-60436861D03*
X114254732Y-52658686D03*
X116376052Y-63265288D03*
X114961839Y-56194220D03*
X112840519Y-59729754D03*
X119204480Y-54780006D03*
X109304985Y-57608434D03*
X119911586Y-55487113D03*
X117790266Y-54780006D03*
X118497373Y-54072900D03*
X117083159Y-59729754D03*
X116376052Y-57608434D03*
X112840519Y-54072900D03*
X119911586Y-56901327D03*
X116376052Y-56194220D03*
X113547625Y-53365793D03*
X119204480Y-57608434D03*
X119204480Y-59022647D03*
X114961839Y-63265288D03*
X112840519Y-58315540D03*
X112133412Y-60436861D03*
X116376052Y-51951579D03*
X110719198Y-57608434D03*
X112133412Y-54780006D03*
X117083159Y-62558181D03*
X113547625Y-57608434D03*
X115668946Y-58315540D03*
X118497373Y-55487113D03*
X115668946Y-51244473D03*
X117790266Y-57608434D03*
X119204480Y-56194220D03*
X112840519Y-61143967D03*
X115668946Y-54072900D03*
X112133412Y-57608434D03*
X117790266Y-56194220D03*
X112840519Y-56901327D03*
X114254732Y-55487113D03*
X114961839Y-51951579D03*
X120618693Y-57608434D03*
X114254732Y-59729754D03*
X111426305Y-58315540D03*
X117083159Y-52658686D03*
X114254732Y-62558181D03*
X117083159Y-54072900D03*
X119911586Y-59729754D03*
X115668946Y-63972395D03*
X114961839Y-53365793D03*
X118497373Y-58315540D03*
X115668946Y-62558181D03*
X110012091Y-56901327D03*
X114254732Y-61143967D03*
X111426305Y-56901327D03*
X117083159Y-58315540D03*
X116376052Y-59022647D03*
X114254732Y-54072900D03*
X110719198Y-59022647D03*
X118497373Y-59729754D03*
X112840519Y-55487113D03*
X112133412Y-56194220D03*
X111426305Y-59729754D03*
X114961839Y-60436861D03*
X119911586Y-58315540D03*
X121325800Y-56901327D03*
X117083159Y-55487113D03*
X115668946Y-55487113D03*
X111426305Y-55487113D03*
X117083159Y-61143967D03*
X113547625Y-59022647D03*
X117083159Y-56901327D03*
X117790266Y-53365793D03*
X113547625Y-61851074D03*
X116376052Y-54780006D03*
X114961839Y-61851074D03*
X114961839Y-57608434D03*
X120618693Y-56194220D03*
X122032907Y-57608434D03*
X113547625Y-54780006D03*
X119204480Y-60436861D03*
X114961839Y-59022647D03*
X110012091Y-58315540D03*
X114254732Y-58315540D03*
X113547625Y-56194220D03*
X112133412Y-59022647D03*
X121325800Y-58315540D03*
X115668946Y-56901327D03*
X117790266Y-59022647D03*
X115668946Y-59729754D03*
X110719198Y-56194220D03*
X115668946Y-52658686D03*
X116376052Y-61851074D03*
X113547625Y-60436861D03*
X114254732Y-56901327D03*
X114961839Y-54780006D03*
X116376052Y-53365793D03*
X118497373Y-61143967D03*
X120618693Y-59022647D03*
X117790266Y-61851074D03*
X118497373Y-56901327D03*
%TO.N,Net-(DEVBOARD_FC1-PC6)*%
X134874000Y-55118000D03*
%TO.N,Net-(DEVBOARD_FC1-PA1)*%
X100157746Y-74441854D03*
%TO.N,Net-(DEVBOARD_FC1-PB0)*%
X95268949Y-59962949D03*
%TO.N,Net-(DEVBOARD_FC1-PE6)*%
X96652000Y-87000000D03*
%TO.N,Net-(DEVBOARD_FC1-PB1)*%
X96520000Y-61976000D03*
%TO.N,Net-(DEVBOARD_FC1-PA4)*%
X103214400Y-75946000D03*
X104200741Y-73990200D03*
X95800000Y-71300000D03*
%TO.N,Net-(DEVBOARD_FC1-PE1)*%
X129794000Y-89916000D03*
%TO.N,Net-(3.3V1-Pad1)*%
X104140000Y-33147000D03*
X117346147Y-73912147D03*
X101092000Y-35179000D03*
X122174000Y-38862000D03*
%TD*%
D15*
%TO.N,+5V*%
X136906000Y-37084000D02*
X136398000Y-36576000D01*
X136906000Y-82423000D02*
X136906000Y-37084000D01*
X137795000Y-83312000D02*
X136906000Y-82423000D01*
X138938000Y-83312000D02*
X137795000Y-83312000D01*
X92989400Y-70129400D02*
X93218000Y-70358000D01*
X92989400Y-40640000D02*
X92989400Y-70129400D01*
X92481400Y-40132000D02*
X92989400Y-40640000D01*
X126312000Y-35740000D02*
X131661133Y-35740000D01*
X124587000Y-37465000D02*
X126312000Y-35740000D01*
X104902000Y-37465000D02*
X124587000Y-37465000D01*
X101473000Y-34036000D02*
X104902000Y-37465000D01*
X94742000Y-34036000D02*
X101473000Y-34036000D01*
X93218000Y-35560000D02*
X94742000Y-34036000D01*
X92481400Y-40132000D02*
X93218000Y-39395400D01*
X91186000Y-40132000D02*
X92481400Y-40132000D01*
X93218000Y-39395400D02*
X93218000Y-35560000D01*
D16*
%TO.N,Net-(DEVBOARD_FC1-PB8)*%
X131572000Y-85852000D02*
X131572000Y-86450867D01*
X131572000Y-86450867D02*
X131661133Y-86540000D01*
X130048000Y-84328000D02*
X131572000Y-85852000D01*
%TO.N,Net-(DEVBOARD_FC1-PB9)*%
X134036266Y-85344000D02*
X134201133Y-85508867D01*
X134201133Y-85508867D02*
X134201133Y-86540000D01*
X132207000Y-85090000D02*
X132461000Y-85344000D01*
X132461000Y-85344000D02*
X134036266Y-85344000D01*
%TO.N,Net-(DEVBOARD_FC1-PC1)*%
X98340000Y-80560000D02*
X98340000Y-81460000D01*
X96935000Y-80055000D02*
X97835000Y-80055000D01*
X97835000Y-80055000D02*
X98340000Y-80560000D01*
%TO.N,Net-(DEVBOARD_FC1-PC2)*%
X135001000Y-80772000D02*
X102235000Y-80772000D01*
X102235000Y-80772000D02*
X100330000Y-78867000D01*
X95853000Y-78867000D02*
X95800000Y-78920000D01*
X100330000Y-78867000D02*
X95853000Y-78867000D01*
X135128000Y-80899000D02*
X135001000Y-80772000D01*
X135128000Y-81026000D02*
X135128000Y-80899000D01*
%TO.N,Net-(DEVBOARD_FC1-PB13)*%
X113030000Y-33274000D02*
X113030000Y-33588867D01*
X113030000Y-33588867D02*
X113881133Y-34440000D01*
D15*
%TO.N,+5V*%
X131661133Y-35740000D02*
X134201133Y-35740000D01*
X136398000Y-36576000D02*
X135037133Y-36576000D01*
X93218000Y-70358000D02*
X92964000Y-70612000D01*
X92964000Y-70612000D02*
X92964000Y-85344000D01*
X93218000Y-85598000D02*
X93218000Y-87122000D01*
X135037133Y-36576000D02*
X134201133Y-35740000D01*
X92964000Y-85344000D02*
X93218000Y-85598000D01*
D16*
%TO.N,Net-(DEVBOARD_FC1-PD10)*%
X119126000Y-41351530D02*
X124917530Y-41351530D01*
X124917530Y-41351530D02*
X129466000Y-45900000D01*
X129466000Y-45900000D02*
X131661133Y-45900000D01*
%TO.N,Net-(DEVBOARD_FC1-PC0)*%
X97144000Y-82804000D02*
X99441000Y-82804000D01*
X99949000Y-82296000D02*
X99949000Y-79883000D01*
X99441000Y-82804000D02*
X99949000Y-82296000D01*
X95800000Y-81460000D02*
X97144000Y-82804000D01*
%TO.N,Net-(DEVBOARD_FC1-PB15)*%
X110490000Y-33274000D02*
X110490000Y-33588867D01*
X110490000Y-33588867D02*
X111341133Y-34440000D01*
%TO.N,Net-(DEVBOARD_FC1-PE7)*%
X98340000Y-54906000D02*
X98340000Y-61140000D01*
X97790000Y-54356000D02*
X98340000Y-54906000D01*
X97790000Y-53594000D02*
X97790000Y-54356000D01*
%TO.N,Net-(DEVBOARD_FC1-PA15)*%
X134201133Y-69685133D02*
X134201133Y-63680000D01*
%TO.N,Net-(DEVBOARD_FC1-PA3)*%
X99884000Y-69342000D02*
X100838000Y-69342000D01*
X101600000Y-72390000D02*
X100330000Y-73660000D01*
X98520000Y-73660000D02*
X98340000Y-73840000D01*
X101600000Y-70104000D02*
X101600000Y-72390000D01*
X100838000Y-69342000D02*
X101600000Y-70104000D01*
X100330000Y-73660000D02*
X98520000Y-73660000D01*
%TO.N,Net-(DEVBOARD_FC1-PB14)*%
X118999000Y-36322000D02*
X118999000Y-34477867D01*
X118999000Y-34477867D02*
X118961133Y-34440000D01*
%TO.N,Net-(DEVBOARD_FC1-PA2)*%
X100584000Y-71586580D02*
X99780580Y-72390000D01*
X99780580Y-72390000D02*
X97250000Y-72390000D01*
X97250000Y-72390000D02*
X95800000Y-73840000D01*
X100584000Y-70612000D02*
X100584000Y-71586580D01*
%TO.N,Net-(DEVBOARD_FC1-PD9)*%
X135128000Y-42418000D02*
X134493000Y-42418000D01*
X134201133Y-42709867D02*
X134201133Y-43360000D01*
X134493000Y-42418000D02*
X134201133Y-42709867D01*
%TO.N,Net-(DEVBOARD_FC1-PB12)*%
X116421133Y-36284133D02*
X116421133Y-34440000D01*
%TO.N,Net-(DEVBOARD_FC1-PA0)*%
X101092000Y-76962000D02*
X100457000Y-77597000D01*
X100457000Y-77597000D02*
X97017000Y-77597000D01*
X101130003Y-74484000D02*
X101092000Y-74522003D01*
X97017000Y-77597000D02*
X95800000Y-76380000D01*
X101092000Y-74522003D02*
X101092000Y-76962000D01*
%TO.N,Net-(DEVBOARD_FC1-PA7)*%
X104571800Y-72898000D02*
X103886000Y-72212200D01*
X106756200Y-73888600D02*
X106121200Y-73888600D01*
X101346000Y-67818000D02*
X99282000Y-67818000D01*
X103886000Y-72212200D02*
X103886000Y-69977000D01*
X99282000Y-67818000D02*
X98340000Y-68760000D01*
X106121200Y-73888600D02*
X105130600Y-72898000D01*
X105130600Y-72898000D02*
X104571800Y-72898000D01*
%TO.N,Net-(DEVBOARD_FC1-PA9)*%
X133858000Y-57658000D02*
X133858000Y-58256867D01*
X134112000Y-57404000D02*
X133858000Y-57658000D01*
X133858000Y-58256867D02*
X134201133Y-58600000D01*
%TO.N,Net-(DEVBOARD_FC1-PD8)*%
X132080000Y-44577000D02*
X131699000Y-44196000D01*
X131699000Y-43397867D02*
X131661133Y-43360000D01*
X131699000Y-44196000D02*
X131699000Y-43397867D01*
X133985000Y-44577000D02*
X132080000Y-44577000D01*
X134366000Y-44958000D02*
X133985000Y-44577000D01*
%TO.N,Net-(DEVBOARD_FC1-PD5)*%
X131661133Y-73921313D02*
X131661133Y-76380000D01*
%TO.N,Net-(DEVBOARD_FC1-PE5)*%
X98298000Y-85344000D02*
X98340000Y-85386000D01*
X99822000Y-85090000D02*
X98552000Y-85090000D01*
X98340000Y-85386000D02*
X98340000Y-86540000D01*
X98552000Y-85090000D02*
X98298000Y-85344000D01*
%TO.N,Net-(DEVBOARD_FC1-PC7)*%
X134201133Y-52488867D02*
X134201133Y-53520000D01*
X134366000Y-52324000D02*
X134201133Y-52488867D01*
X134620000Y-52324000D02*
X134366000Y-52324000D01*
%TO.N,Net-(DEVBOARD_FC1-PD6)*%
X131572000Y-78740000D02*
X133096000Y-78740000D01*
X134201133Y-77634867D02*
X134201133Y-76380000D01*
X133096000Y-78740000D02*
X134201133Y-77634867D01*
%TO.N,Net-(DEVBOARD_FC1-PE8)*%
X96012000Y-51308000D02*
X95800000Y-51520000D01*
X95800000Y-51520000D02*
X95800000Y-58600000D01*
%TO.N,Net-(DEVBOARD_FC1-PA10)*%
X134112000Y-62484000D02*
X134112000Y-61229133D01*
X134112000Y-61229133D02*
X134201133Y-61140000D01*
%TO.N,Net-(DEVBOARD_FC1-PC4)*%
X99822000Y-65024000D02*
X99695000Y-64897000D01*
X96631000Y-64897000D02*
X95800000Y-65728000D01*
X99695000Y-64897000D02*
X96631000Y-64897000D01*
X95800000Y-65728000D02*
X95800000Y-66220000D01*
%TO.N,Net-(DEVBOARD_FC1-PA6)*%
X102514400Y-76468200D02*
X102514400Y-74484000D01*
X102336600Y-76646000D02*
X102514400Y-76468200D01*
D15*
%TO.N,GND*%
X95800000Y-38280000D02*
X98340000Y-38280000D01*
D16*
%TO.N,Net-(DEVBOARD_FC1-PC6)*%
X133259133Y-55118000D02*
X134874000Y-55118000D01*
X131661133Y-53520000D02*
X133259133Y-55118000D01*
%TO.N,Net-(DEVBOARD_FC1-PA1)*%
X100157746Y-74441854D02*
X100330000Y-74614108D01*
X99896000Y-76380000D02*
X98340000Y-76380000D01*
X100330000Y-75946000D02*
X99896000Y-76380000D01*
X100330000Y-74614108D02*
X100330000Y-75946000D01*
%TO.N,Net-(DEVBOARD_FC1-PB0)*%
X95504000Y-60198000D02*
X95504000Y-63384000D01*
X95268949Y-59962949D02*
X95504000Y-60198000D01*
X95504000Y-63384000D02*
X95800000Y-63680000D01*
%TO.N,Net-(DEVBOARD_FC1-PE6)*%
X96012000Y-84212000D02*
X95800000Y-84000000D01*
X96012000Y-86360000D02*
X96012000Y-84212000D01*
X96652000Y-87000000D02*
X96012000Y-86360000D01*
%TO.N,Net-(DEVBOARD_FC1-PB1)*%
X96520000Y-61976000D02*
X96636000Y-61976000D01*
X96636000Y-61976000D02*
X98340000Y-63680000D01*
%TO.N,Net-(DEVBOARD_FC1-PA4)*%
X104546400Y-74788800D02*
X104546400Y-75514200D01*
X104200741Y-74443141D02*
X104546400Y-74788800D01*
X104546400Y-75514200D02*
X104114600Y-75946000D01*
X104200741Y-73990200D02*
X104200741Y-74443141D01*
X104114600Y-75946000D02*
X103214400Y-75946000D01*
%TO.N,Net-(DEVBOARD_FC1-PE1)*%
X131826000Y-89916000D02*
X132662000Y-89080000D01*
X129794000Y-89916000D02*
X131826000Y-89916000D01*
X132662000Y-89080000D02*
X134201133Y-89080000D01*
D17*
%TO.N,Net-(3.3V1-Pad1)*%
X98732000Y-35740000D02*
X98340000Y-35740000D01*
X101092000Y-36322000D02*
X101600000Y-36322000D01*
X106261133Y-34440000D02*
X105433000Y-34440000D01*
X105433000Y-34440000D02*
X104140000Y-33147000D01*
X100685600Y-38085600D02*
X100076000Y-37476000D01*
X126365000Y-37846000D02*
X129307000Y-37846000D01*
X118618000Y-69596000D02*
X116840000Y-67818000D01*
X101600000Y-36322000D02*
X104013000Y-38735000D01*
X100076000Y-37476000D02*
X100076000Y-37084000D01*
X104013000Y-38735000D02*
X125476000Y-38735000D01*
X117346147Y-73724703D02*
X118618000Y-72452850D01*
X100685600Y-59537600D02*
X100685600Y-38085600D01*
X117346147Y-73912147D02*
X117346147Y-73724703D01*
D15*
X131661133Y-38280000D02*
X134201133Y-38280000D01*
D17*
X129307000Y-37846000D02*
X129741000Y-38280000D01*
X101092000Y-35179000D02*
X101092000Y-36322000D01*
X100076000Y-37084000D02*
X98732000Y-35740000D01*
X118618000Y-72452850D02*
X118618000Y-69596000D01*
X100838000Y-36322000D02*
X100076000Y-37084000D01*
X101092000Y-36322000D02*
X100838000Y-36322000D01*
X129741000Y-38280000D02*
X131661133Y-38280000D01*
X116840000Y-67818000D02*
X108966000Y-67818000D01*
X125476000Y-38735000D02*
X126365000Y-37846000D01*
D15*
X95800000Y-35740000D02*
X98340000Y-35740000D01*
D17*
X108966000Y-67818000D02*
X100685600Y-59537600D01*
%TD*%
%TA.AperFunction,Conductor*%
%TO.N,GND*%
G36*
X132535737Y-28892727D02*
G01*
X132807718Y-28909179D01*
X132822579Y-28910983D01*
X133086905Y-28959422D01*
X133101430Y-28963003D01*
X133357981Y-29042947D01*
X133371972Y-29048253D01*
X133617034Y-29158546D01*
X133630280Y-29165499D01*
X133860255Y-29304524D01*
X133872566Y-29313022D01*
X134029502Y-29435973D01*
X134084104Y-29478751D01*
X134095312Y-29488681D01*
X134285319Y-29678687D01*
X134295249Y-29689895D01*
X134460973Y-29901428D01*
X134469479Y-29913751D01*
X134608500Y-30143720D01*
X134615458Y-30156978D01*
X134725741Y-30402014D01*
X134731051Y-30416016D01*
X134810993Y-30672561D01*
X134814577Y-30687099D01*
X134863016Y-30951420D01*
X134864821Y-30966285D01*
X134880333Y-31222741D01*
X134880548Y-31228554D01*
X134880623Y-31234160D01*
X134877920Y-31269312D01*
X134881345Y-31287610D01*
X134881489Y-31298269D01*
X134881380Y-31298657D01*
X134881500Y-31299943D01*
X134881500Y-31307894D01*
X134892346Y-31348375D01*
X134894453Y-31357649D01*
X134902164Y-31398846D01*
X134905599Y-31406013D01*
X134913548Y-31427499D01*
X134915607Y-31435185D01*
X134915609Y-31435189D01*
X134936561Y-31471479D01*
X134936562Y-31471479D01*
X134938944Y-31475605D01*
X134959110Y-31517692D01*
X134971771Y-31532463D01*
X134981500Y-31549314D01*
X134981501Y-31549315D01*
X134981502Y-31549316D01*
X135011131Y-31578945D01*
X135017598Y-31585928D01*
X143551649Y-41542321D01*
X143580332Y-41606031D01*
X143581501Y-41623018D01*
X143581501Y-45664412D01*
X143564888Y-45726412D01*
X138795931Y-53986489D01*
X138664130Y-54214775D01*
X138658613Y-54224331D01*
X138615609Y-54298814D01*
X138595555Y-54373657D01*
X138581501Y-54426109D01*
X138581501Y-70426109D01*
X138581501Y-70557893D01*
X138591622Y-70595663D01*
X138615609Y-70685186D01*
X138615610Y-70685189D01*
X140151559Y-73345530D01*
X143560675Y-79250292D01*
X143564888Y-79257588D01*
X143581501Y-79319588D01*
X143581501Y-83360982D01*
X143561816Y-83428021D01*
X143551649Y-83441680D01*
X135017605Y-93398061D01*
X135017606Y-93398062D01*
X135014498Y-93401687D01*
X134981500Y-93434687D01*
X134971769Y-93451538D01*
X134964285Y-93460271D01*
X134959113Y-93466305D01*
X134959109Y-93466310D01*
X134941006Y-93504092D01*
X134936570Y-93512506D01*
X134915606Y-93548818D01*
X134913547Y-93556503D01*
X134910569Y-93567614D01*
X134902165Y-93585156D01*
X134893582Y-93631005D01*
X134892345Y-93635622D01*
X134892345Y-93635626D01*
X134881501Y-93676102D01*
X134881500Y-93676111D01*
X134881500Y-93684058D01*
X134881489Y-93685731D01*
X134881345Y-93696390D01*
X134877920Y-93714690D01*
X134880623Y-93749846D01*
X134880548Y-93755450D01*
X134880292Y-93756279D01*
X134880333Y-93761264D01*
X134864821Y-94017715D01*
X134863016Y-94032580D01*
X134814577Y-94296902D01*
X134810993Y-94311440D01*
X134731053Y-94567977D01*
X134725744Y-94581978D01*
X134615456Y-94827028D01*
X134608497Y-94840287D01*
X134469480Y-95070250D01*
X134460973Y-95082574D01*
X134295247Y-95294106D01*
X134285318Y-95305313D01*
X134095312Y-95495320D01*
X134084104Y-95505250D01*
X133872572Y-95670975D01*
X133860249Y-95679481D01*
X133630286Y-95818498D01*
X133617027Y-95825457D01*
X133371977Y-95935745D01*
X133357976Y-95941054D01*
X133101438Y-96020994D01*
X133086900Y-96024578D01*
X132822579Y-96073017D01*
X132807714Y-96074822D01*
X132634700Y-96085287D01*
X132535711Y-96091275D01*
X132528241Y-96091501D01*
X127639350Y-96091501D01*
X127572311Y-96071816D01*
X127526556Y-96019012D01*
X127521255Y-96005310D01*
X127500683Y-95941055D01*
X126660535Y-93316872D01*
X130460500Y-93316872D01*
X130460500Y-93579127D01*
X130483824Y-93756279D01*
X130494730Y-93839116D01*
X130546569Y-94032581D01*
X130562602Y-94092418D01*
X130562605Y-94092428D01*
X130662953Y-94334690D01*
X130662958Y-94334700D01*
X130794075Y-94561803D01*
X130953718Y-94769851D01*
X130953726Y-94769860D01*
X131139140Y-94955274D01*
X131139148Y-94955281D01*
X131347196Y-95114924D01*
X131574299Y-95246041D01*
X131574309Y-95246046D01*
X131816571Y-95346394D01*
X131816581Y-95346398D01*
X132069884Y-95414270D01*
X132329880Y-95448500D01*
X132329887Y-95448500D01*
X132592113Y-95448500D01*
X132592120Y-95448500D01*
X132852116Y-95414270D01*
X133105419Y-95346398D01*
X133347697Y-95246043D01*
X133574803Y-95114924D01*
X133782851Y-94955282D01*
X133782855Y-94955277D01*
X133782860Y-94955274D01*
X133968274Y-94769860D01*
X133968277Y-94769855D01*
X133968282Y-94769851D01*
X134127924Y-94561803D01*
X134259043Y-94334697D01*
X134359398Y-94092419D01*
X134427270Y-93839116D01*
X134461500Y-93579120D01*
X134461500Y-93316880D01*
X134427270Y-93056884D01*
X134359398Y-92803581D01*
X134261204Y-92566520D01*
X134259046Y-92561309D01*
X134259041Y-92561299D01*
X134127924Y-92334196D01*
X133968281Y-92126148D01*
X133968274Y-92126140D01*
X133782860Y-91940726D01*
X133782851Y-91940718D01*
X133574803Y-91781075D01*
X133347700Y-91649958D01*
X133347690Y-91649953D01*
X133105428Y-91549605D01*
X133105421Y-91549603D01*
X133105419Y-91549602D01*
X132852116Y-91481730D01*
X132794339Y-91474123D01*
X132592127Y-91447500D01*
X132592120Y-91447500D01*
X132329880Y-91447500D01*
X132329872Y-91447500D01*
X132098772Y-91477926D01*
X132069884Y-91481730D01*
X131816581Y-91549602D01*
X131816571Y-91549605D01*
X131574309Y-91649953D01*
X131574299Y-91649958D01*
X131347196Y-91781075D01*
X131139148Y-91940718D01*
X130953718Y-92126148D01*
X130794075Y-92334196D01*
X130662958Y-92561299D01*
X130662953Y-92561309D01*
X130562605Y-92803571D01*
X130562602Y-92803581D01*
X130494730Y-93056885D01*
X130460500Y-93316872D01*
X126660535Y-93316872D01*
X125546481Y-89837153D01*
X128993500Y-89837153D01*
X128993500Y-89994846D01*
X129024261Y-90149489D01*
X129024264Y-90149501D01*
X129084602Y-90295172D01*
X129084609Y-90295185D01*
X129172210Y-90426288D01*
X129172213Y-90426292D01*
X129283707Y-90537786D01*
X129283711Y-90537789D01*
X129414814Y-90625390D01*
X129414827Y-90625397D01*
X129560498Y-90685735D01*
X129560503Y-90685737D01*
X129715153Y-90716499D01*
X129715156Y-90716500D01*
X129715158Y-90716500D01*
X129872844Y-90716500D01*
X129872845Y-90716499D01*
X130027497Y-90685737D01*
X130102963Y-90654478D01*
X130171864Y-90625939D01*
X130219316Y-90616500D01*
X131894996Y-90616500D01*
X131986040Y-90598389D01*
X132030328Y-90589580D01*
X132094069Y-90563177D01*
X132157807Y-90536777D01*
X132157808Y-90536776D01*
X132157811Y-90536775D01*
X132272543Y-90460114D01*
X132741032Y-89991623D01*
X132802352Y-89958141D01*
X132872043Y-89963125D01*
X132916391Y-89991626D01*
X132982477Y-90057712D01*
X133131799Y-90149814D01*
X133298336Y-90204999D01*
X133401124Y-90215500D01*
X135001141Y-90215499D01*
X135103930Y-90204999D01*
X135270467Y-90149814D01*
X135419789Y-90057712D01*
X135543845Y-89933656D01*
X135635947Y-89784334D01*
X135691132Y-89617797D01*
X135701633Y-89515009D01*
X135701632Y-88644992D01*
X135691132Y-88542203D01*
X135635947Y-88375666D01*
X135543845Y-88226344D01*
X135419789Y-88102288D01*
X135327021Y-88045069D01*
X135270469Y-88010187D01*
X135270464Y-88010185D01*
X135203191Y-87987893D01*
X135103930Y-87955001D01*
X135103928Y-87955000D01*
X135001143Y-87944500D01*
X133401131Y-87944500D01*
X133401114Y-87944501D01*
X133298336Y-87955000D01*
X133298333Y-87955001D01*
X133131801Y-88010185D01*
X133131796Y-88010187D01*
X132982475Y-88102289D01*
X132858422Y-88226342D01*
X132800286Y-88320597D01*
X132748338Y-88367321D01*
X132694747Y-88379500D01*
X132593005Y-88379500D01*
X132457677Y-88406418D01*
X132457667Y-88406421D01*
X132330192Y-88459222D01*
X132215454Y-88535887D01*
X132215453Y-88535888D01*
X131572162Y-89179181D01*
X131510839Y-89212666D01*
X131484481Y-89215500D01*
X130219316Y-89215500D01*
X130171864Y-89206061D01*
X130027501Y-89146264D01*
X130027489Y-89146261D01*
X129872845Y-89115500D01*
X129872842Y-89115500D01*
X129715158Y-89115500D01*
X129715155Y-89115500D01*
X129560510Y-89146261D01*
X129560498Y-89146264D01*
X129414827Y-89206602D01*
X129414814Y-89206609D01*
X129283711Y-89294210D01*
X129283707Y-89294213D01*
X129172213Y-89405707D01*
X129172210Y-89405711D01*
X129084609Y-89536814D01*
X129084602Y-89536827D01*
X129024264Y-89682498D01*
X129024261Y-89682510D01*
X128993500Y-89837153D01*
X125546481Y-89837153D01*
X124764180Y-87393656D01*
X124463248Y-86453701D01*
X124462337Y-86450857D01*
X124448393Y-86398815D01*
X124442293Y-86388250D01*
X124438576Y-86376639D01*
X124411042Y-86333837D01*
X124407954Y-86328774D01*
X124382501Y-86284687D01*
X124373877Y-86276063D01*
X124367279Y-86265806D01*
X124327401Y-86229587D01*
X124289315Y-86191501D01*
X124289312Y-86191499D01*
X124285380Y-86188482D01*
X124273773Y-86180010D01*
X124269730Y-86177206D01*
X124224481Y-86153904D01*
X124224481Y-86153903D01*
X124221821Y-86152533D01*
X124175187Y-86125609D01*
X124163406Y-86122452D01*
X124152564Y-86116869D01*
X124152562Y-86116868D01*
X124152561Y-86116868D01*
X124152558Y-86116867D01*
X124102827Y-86106071D01*
X124102827Y-86106070D01*
X124099878Y-86105429D01*
X124047893Y-86091501D01*
X124035701Y-86091501D01*
X124023782Y-86088914D01*
X124023780Y-86088914D01*
X123991462Y-86090467D01*
X123972948Y-86091358D01*
X123966994Y-86091501D01*
X105994027Y-86091501D01*
X105940222Y-86088914D01*
X105928304Y-86091501D01*
X105916105Y-86091501D01*
X105866963Y-86104669D01*
X105861176Y-86106071D01*
X105811440Y-86116868D01*
X105806864Y-86118510D01*
X105793300Y-86123750D01*
X105788813Y-86125609D01*
X105744734Y-86151056D01*
X105744735Y-86151057D01*
X105742146Y-86152551D01*
X105694276Y-86177204D01*
X105685248Y-86185402D01*
X105674686Y-86191501D01*
X105674684Y-86191503D01*
X105638707Y-86227479D01*
X105634399Y-86231585D01*
X105596725Y-86265803D01*
X105593578Y-86269519D01*
X105584457Y-86280834D01*
X105581496Y-86284693D01*
X105556046Y-86328769D01*
X105556047Y-86328770D01*
X105554542Y-86331375D01*
X105525426Y-86376639D01*
X105521709Y-86388246D01*
X105515611Y-86398809D01*
X105515609Y-86398813D01*
X105502434Y-86447980D01*
X105500755Y-86453692D01*
X103837139Y-91649958D01*
X102463319Y-95941055D01*
X102442747Y-96005310D01*
X102403559Y-96063155D01*
X102339318Y-96090631D01*
X102324652Y-96091501D01*
X97435753Y-96091501D01*
X97428266Y-96091275D01*
X97156287Y-96074823D01*
X97141422Y-96073018D01*
X96877100Y-96024579D01*
X96862562Y-96020995D01*
X96606024Y-95941055D01*
X96592023Y-95935746D01*
X96346972Y-95825458D01*
X96333713Y-95818499D01*
X96103751Y-95679483D01*
X96091428Y-95670977D01*
X96091425Y-95670975D01*
X95879894Y-95505250D01*
X95868687Y-95495321D01*
X95678681Y-95305315D01*
X95668751Y-95294107D01*
X95503025Y-95082574D01*
X95494523Y-95070257D01*
X95355498Y-94840283D01*
X95348545Y-94827037D01*
X95238252Y-94581975D01*
X95232945Y-94567979D01*
X95232944Y-94567977D01*
X95153004Y-94311440D01*
X95149421Y-94296903D01*
X95143915Y-94266856D01*
X95100981Y-94032579D01*
X95099177Y-94017717D01*
X95083665Y-93761294D01*
X95083450Y-93755470D01*
X95083374Y-93749878D01*
X95086082Y-93714691D01*
X95082657Y-93696391D01*
X95082514Y-93685727D01*
X95082621Y-93685341D01*
X95082503Y-93684063D01*
X95082503Y-93676111D01*
X95071655Y-93635627D01*
X95070423Y-93631028D01*
X95061838Y-93585157D01*
X95053430Y-93567610D01*
X95048395Y-93548817D01*
X95025057Y-93508395D01*
X95004893Y-93466311D01*
X94992233Y-93451541D01*
X94982503Y-93434688D01*
X94952868Y-93405053D01*
X94946403Y-93398072D01*
X94942502Y-93393521D01*
X94942500Y-93393519D01*
X94905225Y-93350032D01*
X94876802Y-93316872D01*
X95662500Y-93316872D01*
X95662500Y-93579127D01*
X95685824Y-93756279D01*
X95696730Y-93839116D01*
X95748569Y-94032581D01*
X95764602Y-94092418D01*
X95764605Y-94092428D01*
X95864953Y-94334690D01*
X95864958Y-94334700D01*
X95996075Y-94561803D01*
X96155718Y-94769851D01*
X96155726Y-94769860D01*
X96341140Y-94955274D01*
X96341148Y-94955281D01*
X96549196Y-95114924D01*
X96776299Y-95246041D01*
X96776309Y-95246046D01*
X97018571Y-95346394D01*
X97018581Y-95346398D01*
X97271884Y-95414270D01*
X97531880Y-95448500D01*
X97531887Y-95448500D01*
X97794113Y-95448500D01*
X97794120Y-95448500D01*
X98054116Y-95414270D01*
X98307419Y-95346398D01*
X98549697Y-95246043D01*
X98776803Y-95114924D01*
X98984851Y-94955282D01*
X98984855Y-94955277D01*
X98984860Y-94955274D01*
X99170274Y-94769860D01*
X99170277Y-94769855D01*
X99170282Y-94769851D01*
X99329924Y-94561803D01*
X99461043Y-94334697D01*
X99561398Y-94092419D01*
X99629270Y-93839116D01*
X99663500Y-93579120D01*
X99663500Y-93316880D01*
X99629270Y-93056884D01*
X99561398Y-92803581D01*
X99463204Y-92566520D01*
X99461046Y-92561309D01*
X99461041Y-92561299D01*
X99329924Y-92334196D01*
X99170281Y-92126148D01*
X99170274Y-92126140D01*
X98984860Y-91940726D01*
X98984851Y-91940718D01*
X98776803Y-91781075D01*
X98549700Y-91649958D01*
X98549690Y-91649953D01*
X98307428Y-91549605D01*
X98307421Y-91549603D01*
X98307419Y-91549602D01*
X98054116Y-91481730D01*
X97996339Y-91474123D01*
X97794127Y-91447500D01*
X97794120Y-91447500D01*
X97531880Y-91447500D01*
X97531872Y-91447500D01*
X97300772Y-91477926D01*
X97271884Y-91481730D01*
X97018581Y-91549602D01*
X97018571Y-91549605D01*
X96776309Y-91649953D01*
X96776299Y-91649958D01*
X96549196Y-91781075D01*
X96341148Y-91940718D01*
X96155718Y-92126148D01*
X95996075Y-92334196D01*
X95864958Y-92561299D01*
X95864953Y-92561309D01*
X95764605Y-92803571D01*
X95764602Y-92803581D01*
X95696730Y-93056885D01*
X95662500Y-93316872D01*
X94876802Y-93316872D01*
X90641485Y-88375668D01*
X86412353Y-83441680D01*
X86383670Y-83377969D01*
X86382501Y-83360982D01*
X86382501Y-80354333D01*
X86881501Y-80354333D01*
X86881501Y-80629668D01*
X86881502Y-80629685D01*
X86917439Y-80902656D01*
X86917440Y-80902661D01*
X86917441Y-80902667D01*
X86950215Y-81024983D01*
X86988705Y-81168631D01*
X87094076Y-81423018D01*
X87094081Y-81423029D01*
X87173810Y-81561122D01*
X87231752Y-81661480D01*
X87231754Y-81661483D01*
X87231755Y-81661484D01*
X87399371Y-81879927D01*
X87399377Y-81879934D01*
X87594067Y-82074624D01*
X87594073Y-82074629D01*
X87812522Y-82242250D01*
X87965779Y-82330733D01*
X88050972Y-82379920D01*
X88050977Y-82379922D01*
X88050980Y-82379924D01*
X88305369Y-82485296D01*
X88571335Y-82556561D01*
X88844327Y-82592501D01*
X88844334Y-82592501D01*
X89119668Y-82592501D01*
X89119675Y-82592501D01*
X89392667Y-82556561D01*
X89658633Y-82485296D01*
X89913022Y-82379924D01*
X90151480Y-82242250D01*
X90369929Y-82074629D01*
X90564629Y-81879929D01*
X90732250Y-81661480D01*
X90869924Y-81423022D01*
X90975296Y-81168633D01*
X91046561Y-80902667D01*
X91082501Y-80629675D01*
X91082501Y-80354327D01*
X91046561Y-80081335D01*
X90975296Y-79815369D01*
X90869924Y-79560980D01*
X90869922Y-79560977D01*
X90869920Y-79560972D01*
X90810351Y-79457797D01*
X90732250Y-79322522D01*
X90564629Y-79104073D01*
X90564624Y-79104067D01*
X90369934Y-78909377D01*
X90369927Y-78909371D01*
X90151484Y-78741755D01*
X90151483Y-78741754D01*
X90151480Y-78741752D01*
X90056408Y-78686862D01*
X89913029Y-78604081D01*
X89913018Y-78604076D01*
X89658631Y-78498705D01*
X89525650Y-78463073D01*
X89392667Y-78427441D01*
X89392661Y-78427440D01*
X89392656Y-78427439D01*
X89119685Y-78391502D01*
X89119680Y-78391501D01*
X89119675Y-78391501D01*
X88844327Y-78391501D01*
X88844321Y-78391501D01*
X88844316Y-78391502D01*
X88571345Y-78427439D01*
X88571338Y-78427440D01*
X88571335Y-78427441D01*
X88515126Y-78442501D01*
X88305370Y-78498705D01*
X88050983Y-78604076D01*
X88050972Y-78604081D01*
X87812517Y-78741755D01*
X87594074Y-78909371D01*
X87594067Y-78909377D01*
X87399377Y-79104067D01*
X87399371Y-79104074D01*
X87231755Y-79322517D01*
X87094081Y-79560972D01*
X87094076Y-79560983D01*
X86988705Y-79815370D01*
X86966642Y-79897712D01*
X86919090Y-80075183D01*
X86917442Y-80081332D01*
X86917439Y-80081345D01*
X86881502Y-80354316D01*
X86881501Y-80354333D01*
X86382501Y-80354333D01*
X86382501Y-79319588D01*
X86399114Y-79257588D01*
X91348393Y-70685187D01*
X91382501Y-70557893D01*
X91382501Y-70426109D01*
X91382501Y-54426109D01*
X91348393Y-54298815D01*
X91299872Y-54214775D01*
X91168071Y-53986489D01*
X86399114Y-45726412D01*
X86382501Y-45664412D01*
X86382501Y-44354333D01*
X86881501Y-44354333D01*
X86881501Y-44629668D01*
X86881502Y-44629685D01*
X86917439Y-44902656D01*
X86917440Y-44902661D01*
X86917441Y-44902667D01*
X86922699Y-44922289D01*
X86988705Y-45168631D01*
X87094076Y-45423018D01*
X87094081Y-45423029D01*
X87173810Y-45561122D01*
X87231752Y-45661480D01*
X87231754Y-45661483D01*
X87231755Y-45661484D01*
X87399371Y-45879927D01*
X87399377Y-45879934D01*
X87594067Y-46074624D01*
X87594073Y-46074629D01*
X87812522Y-46242250D01*
X87965779Y-46330733D01*
X88050972Y-46379920D01*
X88050977Y-46379922D01*
X88050980Y-46379924D01*
X88305369Y-46485296D01*
X88571335Y-46556561D01*
X88844327Y-46592501D01*
X88844334Y-46592501D01*
X89119668Y-46592501D01*
X89119675Y-46592501D01*
X89392667Y-46556561D01*
X89658633Y-46485296D01*
X89913022Y-46379924D01*
X90151480Y-46242250D01*
X90369929Y-46074629D01*
X90564629Y-45879929D01*
X90732250Y-45661480D01*
X90869924Y-45423022D01*
X90975296Y-45168633D01*
X91046561Y-44902667D01*
X91082501Y-44629675D01*
X91082501Y-44354327D01*
X91046561Y-44081335D01*
X90975296Y-43815369D01*
X90869924Y-43560980D01*
X90869922Y-43560977D01*
X90869920Y-43560972D01*
X90820733Y-43475779D01*
X90732250Y-43322522D01*
X90564629Y-43104073D01*
X90564624Y-43104067D01*
X90369934Y-42909377D01*
X90369927Y-42909371D01*
X90151484Y-42741755D01*
X90151483Y-42741754D01*
X90151480Y-42741752D01*
X90056408Y-42686862D01*
X89913029Y-42604081D01*
X89913018Y-42604076D01*
X89658631Y-42498705D01*
X89525650Y-42463073D01*
X89392667Y-42427441D01*
X89392661Y-42427440D01*
X89392656Y-42427439D01*
X89119685Y-42391502D01*
X89119680Y-42391501D01*
X89119675Y-42391501D01*
X88844327Y-42391501D01*
X88844321Y-42391501D01*
X88844316Y-42391502D01*
X88571345Y-42427439D01*
X88571338Y-42427440D01*
X88571335Y-42427441D01*
X88548230Y-42433632D01*
X88305370Y-42498705D01*
X88050983Y-42604076D01*
X88050972Y-42604081D01*
X87812517Y-42741755D01*
X87594074Y-42909371D01*
X87594067Y-42909377D01*
X87399377Y-43104067D01*
X87399371Y-43104074D01*
X87231755Y-43322517D01*
X87094081Y-43560972D01*
X87094076Y-43560983D01*
X86988705Y-43815370D01*
X86966619Y-43897799D01*
X86921997Y-44064334D01*
X86917442Y-44081332D01*
X86917439Y-44081345D01*
X86881502Y-44354316D01*
X86881501Y-44354333D01*
X86382501Y-44354333D01*
X86382501Y-41623018D01*
X86402186Y-41555979D01*
X86412349Y-41542325D01*
X87697224Y-40043304D01*
X90285500Y-40043304D01*
X90285500Y-40220695D01*
X90320103Y-40394658D01*
X90320106Y-40394667D01*
X90387983Y-40558540D01*
X90387990Y-40558553D01*
X90486535Y-40706034D01*
X90486538Y-40706038D01*
X90611961Y-40831461D01*
X90611965Y-40831464D01*
X90759446Y-40930009D01*
X90759459Y-40930016D01*
X90882363Y-40980923D01*
X90923334Y-40997894D01*
X90923336Y-40997894D01*
X90923341Y-40997896D01*
X91097304Y-41032499D01*
X91097307Y-41032500D01*
X91097309Y-41032500D01*
X91964900Y-41032500D01*
X92031939Y-41052185D01*
X92077694Y-41104989D01*
X92088900Y-41156500D01*
X92088900Y-70218092D01*
X92102252Y-70285224D01*
X92102209Y-70294223D01*
X92104239Y-70299529D01*
X92102089Y-70319489D01*
X92102017Y-70334753D01*
X92099855Y-70345108D01*
X92098105Y-70349334D01*
X92080699Y-70436842D01*
X92080593Y-70437371D01*
X92080580Y-70437437D01*
X92063500Y-70523305D01*
X92063500Y-85432696D01*
X92098103Y-85606659D01*
X92098106Y-85606670D01*
X92115091Y-85647672D01*
X92115092Y-85647675D01*
X92165984Y-85770542D01*
X92165985Y-85770544D01*
X92225063Y-85858960D01*
X92244799Y-85888497D01*
X92264536Y-85918036D01*
X92281179Y-85934679D01*
X92314666Y-85996000D01*
X92317500Y-86022361D01*
X92317500Y-87210695D01*
X92352103Y-87384658D01*
X92352106Y-87384667D01*
X92419983Y-87548540D01*
X92419990Y-87548553D01*
X92518535Y-87696034D01*
X92518538Y-87696038D01*
X92643961Y-87821461D01*
X92643965Y-87821464D01*
X92791446Y-87920009D01*
X92791459Y-87920016D01*
X92875920Y-87955000D01*
X92955334Y-87987894D01*
X92955336Y-87987894D01*
X92955341Y-87987896D01*
X93129304Y-88022499D01*
X93129307Y-88022500D01*
X93129309Y-88022500D01*
X93306693Y-88022500D01*
X93306694Y-88022499D01*
X93368602Y-88010185D01*
X93480658Y-87987896D01*
X93480661Y-87987894D01*
X93480666Y-87987894D01*
X93644547Y-87920013D01*
X93792035Y-87821464D01*
X93917464Y-87696035D01*
X94016013Y-87548547D01*
X94083894Y-87384666D01*
X94084985Y-87379185D01*
X94106964Y-87268682D01*
X94118500Y-87210691D01*
X94118500Y-85509309D01*
X94107696Y-85454994D01*
X94098747Y-85410005D01*
X94087123Y-85351563D01*
X94083895Y-85335334D01*
X94040771Y-85231225D01*
X94016013Y-85171453D01*
X94016012Y-85171451D01*
X94016011Y-85171449D01*
X93917464Y-85023965D01*
X93917461Y-85023961D01*
X93900819Y-85007319D01*
X93867334Y-84945996D01*
X93864500Y-84919638D01*
X93864500Y-71036361D01*
X93884185Y-70969322D01*
X93888907Y-70962488D01*
X93894352Y-70955146D01*
X93917463Y-70932036D01*
X93930183Y-70913000D01*
X93969967Y-70853458D01*
X94016012Y-70784547D01*
X94083895Y-70620666D01*
X94118500Y-70446692D01*
X94118500Y-70269308D01*
X94083895Y-70095334D01*
X94083675Y-70094802D01*
X94071045Y-70064311D01*
X94071045Y-70064312D01*
X94016012Y-69931453D01*
X94016011Y-69931451D01*
X94016010Y-69931449D01*
X93914080Y-69778899D01*
X93915256Y-69778112D01*
X93890732Y-69720351D01*
X93889900Y-69706009D01*
X93889900Y-40551306D01*
X93889899Y-40551304D01*
X93889844Y-40551030D01*
X93858742Y-40394666D01*
X93855296Y-40377341D01*
X93855293Y-40377332D01*
X93785739Y-40209412D01*
X93783958Y-40192847D01*
X93777287Y-40177578D01*
X93780300Y-40158825D01*
X93778270Y-40139943D01*
X93785815Y-40124500D01*
X93788372Y-40108593D01*
X93805282Y-40084662D01*
X93807941Y-40079221D01*
X93810202Y-40076696D01*
X93917464Y-39969435D01*
X93945369Y-39927672D01*
X94016013Y-39821947D01*
X94044646Y-39752821D01*
X94083895Y-39658066D01*
X94118500Y-39484091D01*
X94118500Y-39306708D01*
X94118500Y-36468308D01*
X94138185Y-36401269D01*
X94190989Y-36355514D01*
X94260147Y-36345570D01*
X94323703Y-36374595D01*
X94360205Y-36429302D01*
X94365186Y-36444334D01*
X94457288Y-36593656D01*
X94581344Y-36717712D01*
X94730666Y-36809814D01*
X94897203Y-36864999D01*
X94999991Y-36875500D01*
X96600008Y-36875499D01*
X96702797Y-36864999D01*
X96869334Y-36809814D01*
X97004905Y-36726193D01*
X97072296Y-36707754D01*
X97135094Y-36726193D01*
X97270666Y-36809814D01*
X97437203Y-36864999D01*
X97539991Y-36875500D01*
X98684059Y-36875499D01*
X98751098Y-36895184D01*
X98771740Y-36911818D01*
X99239181Y-37379259D01*
X99272666Y-37440582D01*
X99275500Y-37466940D01*
X99275500Y-37554846D01*
X99306261Y-37709489D01*
X99306264Y-37709501D01*
X99366602Y-37855172D01*
X99366609Y-37855185D01*
X99454210Y-37986288D01*
X99454213Y-37986292D01*
X99848781Y-38380859D01*
X99882266Y-38442182D01*
X99885100Y-38468540D01*
X99885100Y-59616446D01*
X99915861Y-59771089D01*
X99915864Y-59771101D01*
X99976202Y-59916772D01*
X99976209Y-59916785D01*
X100063810Y-60047888D01*
X100063813Y-60047892D01*
X108455707Y-68439786D01*
X108455711Y-68439789D01*
X108586814Y-68527390D01*
X108586827Y-68527397D01*
X108695145Y-68572263D01*
X108732503Y-68587737D01*
X108887153Y-68618499D01*
X108887156Y-68618500D01*
X108887158Y-68618500D01*
X109044842Y-68618500D01*
X116457060Y-68618500D01*
X116524099Y-68638185D01*
X116544741Y-68654819D01*
X117781181Y-69891259D01*
X117814666Y-69952582D01*
X117817500Y-69978940D01*
X117817500Y-72069910D01*
X117797815Y-72136949D01*
X117781181Y-72157591D01*
X116835858Y-73102914D01*
X116803109Y-73135663D01*
X116724356Y-73214415D01*
X116636756Y-73345517D01*
X116636749Y-73345530D01*
X116576411Y-73491201D01*
X116576408Y-73491213D01*
X116545647Y-73645856D01*
X116545647Y-73990993D01*
X116576408Y-74145636D01*
X116576411Y-74145648D01*
X116636749Y-74291319D01*
X116636756Y-74291332D01*
X116724357Y-74422435D01*
X116724360Y-74422439D01*
X116835854Y-74533933D01*
X116835858Y-74533936D01*
X116966961Y-74621537D01*
X116966974Y-74621544D01*
X117112645Y-74681882D01*
X117112650Y-74681884D01*
X117201674Y-74699592D01*
X117267300Y-74712646D01*
X117267303Y-74712647D01*
X117267305Y-74712647D01*
X117424991Y-74712647D01*
X117424992Y-74712646D01*
X117579644Y-74681884D01*
X117725326Y-74621541D01*
X117856436Y-74533936D01*
X117967936Y-74422436D01*
X118055541Y-74291326D01*
X118115884Y-74145644D01*
X118123096Y-74109383D01*
X118155479Y-74047475D01*
X118156975Y-74045951D01*
X119239789Y-72963139D01*
X119327394Y-72832029D01*
X119387738Y-72686347D01*
X119416050Y-72544011D01*
X119418500Y-72531694D01*
X119418500Y-71562108D01*
X120657500Y-71562108D01*
X120657500Y-76987891D01*
X120691608Y-77115187D01*
X120724554Y-77172250D01*
X120757500Y-77229314D01*
X120850686Y-77322500D01*
X120964814Y-77388392D01*
X121092108Y-77422500D01*
X121092110Y-77422500D01*
X129859890Y-77422500D01*
X129859892Y-77422500D01*
X129987186Y-77388392D01*
X130101314Y-77322500D01*
X130166611Y-77257202D01*
X130227930Y-77223720D01*
X130297622Y-77228704D01*
X130341970Y-77257205D01*
X130442477Y-77357712D01*
X130591799Y-77449814D01*
X130758336Y-77504999D01*
X130861124Y-77515500D01*
X132461141Y-77515499D01*
X132563930Y-77504999D01*
X132730467Y-77449814D01*
X132866038Y-77366193D01*
X132879515Y-77362505D01*
X132890922Y-77354434D01*
X132912547Y-77353467D01*
X132933429Y-77347754D01*
X132948175Y-77351875D01*
X132960722Y-77351315D01*
X132989868Y-77363528D01*
X132993449Y-77364529D01*
X132994841Y-77365338D01*
X133131799Y-77449814D01*
X133151259Y-77456262D01*
X133162370Y-77462721D01*
X133177919Y-77479125D01*
X133196503Y-77491992D01*
X133201493Y-77503994D01*
X133210437Y-77513430D01*
X133214649Y-77535638D01*
X133223326Y-77556508D01*
X133221034Y-77569304D01*
X133223457Y-77582076D01*
X133214995Y-77603033D01*
X133211011Y-77625284D01*
X133199630Y-77641087D01*
X133197298Y-77646864D01*
X133193571Y-77649500D01*
X133187735Y-77657606D01*
X132842162Y-78003181D01*
X132780839Y-78036666D01*
X132754481Y-78039500D01*
X131997316Y-78039500D01*
X131949864Y-78030061D01*
X131805501Y-77970264D01*
X131805489Y-77970261D01*
X131650845Y-77939500D01*
X131650842Y-77939500D01*
X131493158Y-77939500D01*
X131493155Y-77939500D01*
X131338510Y-77970261D01*
X131338498Y-77970264D01*
X131192827Y-78030602D01*
X131192814Y-78030609D01*
X131061711Y-78118210D01*
X131061707Y-78118213D01*
X130950213Y-78229707D01*
X130950210Y-78229711D01*
X130862609Y-78360814D01*
X130862602Y-78360827D01*
X130802264Y-78506498D01*
X130802261Y-78506510D01*
X130771500Y-78661153D01*
X130771500Y-78818846D01*
X130802261Y-78973489D01*
X130802264Y-78973501D01*
X130862602Y-79119172D01*
X130862609Y-79119185D01*
X130950210Y-79250288D01*
X130950213Y-79250292D01*
X131061707Y-79361786D01*
X131061711Y-79361789D01*
X131192814Y-79449390D01*
X131192827Y-79449397D01*
X131338498Y-79509735D01*
X131338503Y-79509737D01*
X131493153Y-79540499D01*
X131493156Y-79540500D01*
X131493158Y-79540500D01*
X131650844Y-79540500D01*
X131650845Y-79540499D01*
X131805497Y-79509737D01*
X131886475Y-79476195D01*
X131949864Y-79449939D01*
X131997316Y-79440500D01*
X133164996Y-79440500D01*
X133256040Y-79422389D01*
X133300328Y-79413580D01*
X133364069Y-79387177D01*
X133427807Y-79360777D01*
X133427808Y-79360776D01*
X133427811Y-79360775D01*
X133542543Y-79284114D01*
X134745247Y-78081410D01*
X134821908Y-77966678D01*
X134833166Y-77939500D01*
X134874711Y-77839199D01*
X134874713Y-77839195D01*
X134883522Y-77794907D01*
X134901633Y-77703863D01*
X134901633Y-77637642D01*
X134921318Y-77570603D01*
X134974122Y-77524848D01*
X135013030Y-77514284D01*
X135103930Y-77504999D01*
X135270467Y-77449814D01*
X135419789Y-77357712D01*
X135543845Y-77233656D01*
X135635947Y-77084334D01*
X135691132Y-76917797D01*
X135701633Y-76815009D01*
X135701632Y-75944992D01*
X135691132Y-75842203D01*
X135635947Y-75675666D01*
X135543845Y-75526344D01*
X135419789Y-75402288D01*
X135270467Y-75310186D01*
X135103930Y-75255001D01*
X135103928Y-75255000D01*
X135001143Y-75244500D01*
X133401131Y-75244500D01*
X133401114Y-75244501D01*
X133298336Y-75255000D01*
X133298333Y-75255001D01*
X133131801Y-75310185D01*
X133131792Y-75310189D01*
X132996229Y-75393805D01*
X132928837Y-75412245D01*
X132866037Y-75393805D01*
X132730473Y-75310189D01*
X132730468Y-75310187D01*
X132730467Y-75310186D01*
X132563930Y-75255001D01*
X132563927Y-75255000D01*
X132473030Y-75245714D01*
X132408338Y-75219317D01*
X132368187Y-75162136D01*
X132361633Y-75122356D01*
X132361633Y-74346629D01*
X132371072Y-74299177D01*
X132408835Y-74208008D01*
X132430870Y-74154810D01*
X132461633Y-74000155D01*
X132461633Y-73842471D01*
X132461633Y-73842468D01*
X132461632Y-73842466D01*
X132444574Y-73756710D01*
X132430870Y-73687816D01*
X132413490Y-73645856D01*
X132370530Y-73542140D01*
X132370523Y-73542127D01*
X132282922Y-73411024D01*
X132282919Y-73411020D01*
X132171425Y-73299526D01*
X132171421Y-73299523D01*
X132040318Y-73211922D01*
X132040305Y-73211915D01*
X131894634Y-73151577D01*
X131894622Y-73151574D01*
X131739978Y-73120813D01*
X131739975Y-73120813D01*
X131582291Y-73120813D01*
X131582288Y-73120813D01*
X131427643Y-73151574D01*
X131427631Y-73151577D01*
X131281960Y-73211915D01*
X131281947Y-73211922D01*
X131150844Y-73299523D01*
X131150840Y-73299526D01*
X131039346Y-73411020D01*
X131039343Y-73411024D01*
X130951742Y-73542127D01*
X130951735Y-73542140D01*
X130891397Y-73687811D01*
X130891394Y-73687823D01*
X130860633Y-73842466D01*
X130860633Y-74000159D01*
X130891394Y-74154802D01*
X130891397Y-74154814D01*
X130951194Y-74299177D01*
X130960633Y-74346629D01*
X130960633Y-75122357D01*
X130940948Y-75189396D01*
X130888144Y-75235151D01*
X130849235Y-75245715D01*
X130758335Y-75255001D01*
X130758333Y-75255001D01*
X130591801Y-75310185D01*
X130591792Y-75310189D01*
X130483596Y-75376925D01*
X130416204Y-75395365D01*
X130349540Y-75374442D01*
X130304771Y-75320800D01*
X130294500Y-75271386D01*
X130294500Y-71562110D01*
X130294500Y-71562108D01*
X130260392Y-71434814D01*
X130194500Y-71320686D01*
X130101314Y-71227500D01*
X130044250Y-71194554D01*
X129987187Y-71161608D01*
X129923539Y-71144554D01*
X129859892Y-71127500D01*
X121223892Y-71127500D01*
X121092108Y-71127500D01*
X120964812Y-71161608D01*
X120850686Y-71227500D01*
X120850683Y-71227502D01*
X120757502Y-71320683D01*
X120757500Y-71320686D01*
X120691608Y-71434812D01*
X120657500Y-71562108D01*
X119418500Y-71562108D01*
X119418500Y-69517159D01*
X119409463Y-69471724D01*
X119409463Y-69471723D01*
X119387739Y-69362510D01*
X119387738Y-69362503D01*
X119327394Y-69216821D01*
X119327392Y-69216818D01*
X119327390Y-69216814D01*
X119239789Y-69085711D01*
X119239786Y-69085707D01*
X117350292Y-67196213D01*
X117350288Y-67196210D01*
X117219185Y-67108609D01*
X117219172Y-67108602D01*
X117073501Y-67048264D01*
X117073489Y-67048261D01*
X116918845Y-67017500D01*
X116918842Y-67017500D01*
X109348940Y-67017500D01*
X109281901Y-66997815D01*
X109261259Y-66981181D01*
X102985061Y-60704983D01*
X132700633Y-60704983D01*
X132700633Y-61575001D01*
X132700634Y-61575019D01*
X132711133Y-61677796D01*
X132711134Y-61677799D01*
X132766318Y-61844331D01*
X132766319Y-61844334D01*
X132858421Y-61993656D01*
X132982477Y-62117712D01*
X133131799Y-62209814D01*
X133232856Y-62243301D01*
X133256004Y-62259328D01*
X133280827Y-62272625D01*
X133284348Y-62278952D01*
X133290301Y-62283074D01*
X133301110Y-62309072D01*
X133314803Y-62333678D01*
X133314914Y-62342275D01*
X133317124Y-62347590D01*
X133317603Y-62368861D01*
X133317079Y-62377106D01*
X133311500Y-62405158D01*
X133311500Y-62465028D01*
X133311251Y-62468952D01*
X133300593Y-62498242D01*
X133291815Y-62528137D01*
X133288748Y-62530794D01*
X133287360Y-62534610D01*
X133262556Y-62553489D01*
X133239011Y-62573892D01*
X133232279Y-62576535D01*
X133231764Y-62576928D01*
X133231157Y-62576976D01*
X133226507Y-62578802D01*
X133192620Y-62590031D01*
X133131801Y-62610185D01*
X133131796Y-62610187D01*
X132982475Y-62702289D01*
X132858422Y-62826342D01*
X132766320Y-62975663D01*
X132766319Y-62975666D01*
X132711134Y-63142203D01*
X132711134Y-63142204D01*
X132711133Y-63142204D01*
X132700633Y-63244983D01*
X132700633Y-64115001D01*
X132700634Y-64115019D01*
X132711133Y-64217796D01*
X132711134Y-64217799D01*
X132766318Y-64384331D01*
X132766320Y-64384336D01*
X132777347Y-64402213D01*
X132858421Y-64533656D01*
X132982477Y-64657712D01*
X133131799Y-64749814D01*
X133298336Y-64804999D01*
X133389236Y-64814285D01*
X133453927Y-64840681D01*
X133494078Y-64897861D01*
X133500633Y-64937643D01*
X133500633Y-69259817D01*
X133491194Y-69307269D01*
X133431397Y-69451631D01*
X133431394Y-69451643D01*
X133400633Y-69606286D01*
X133400633Y-69763979D01*
X133431394Y-69918622D01*
X133431397Y-69918634D01*
X133491735Y-70064305D01*
X133491742Y-70064318D01*
X133579343Y-70195421D01*
X133579346Y-70195425D01*
X133690840Y-70306919D01*
X133690844Y-70306922D01*
X133821947Y-70394523D01*
X133821960Y-70394530D01*
X133947047Y-70446342D01*
X133967636Y-70454870D01*
X134122286Y-70485632D01*
X134122289Y-70485633D01*
X134122291Y-70485633D01*
X134279977Y-70485633D01*
X134279978Y-70485632D01*
X134434630Y-70454870D01*
X134580312Y-70394527D01*
X134711422Y-70306922D01*
X134822922Y-70195422D01*
X134910527Y-70064312D01*
X134970870Y-69918630D01*
X135001633Y-69763975D01*
X135001633Y-69606291D01*
X135001633Y-69606288D01*
X135001632Y-69606286D01*
X134983903Y-69517158D01*
X134970870Y-69451636D01*
X134930930Y-69355211D01*
X134911072Y-69307269D01*
X134901633Y-69259817D01*
X134901633Y-64937642D01*
X134921318Y-64870603D01*
X134974122Y-64824848D01*
X135013030Y-64814284D01*
X135103930Y-64804999D01*
X135270467Y-64749814D01*
X135419789Y-64657712D01*
X135543845Y-64533656D01*
X135635947Y-64384334D01*
X135691132Y-64217797D01*
X135701633Y-64115009D01*
X135701632Y-63244992D01*
X135691132Y-63142203D01*
X135635947Y-62975666D01*
X135543845Y-62826344D01*
X135419789Y-62702288D01*
X135270467Y-62610186D01*
X135103930Y-62555001D01*
X135103927Y-62555000D01*
X135023897Y-62546824D01*
X135022004Y-62546051D01*
X135019985Y-62546361D01*
X134989804Y-62532912D01*
X134959205Y-62520427D01*
X134958030Y-62518754D01*
X134956164Y-62517923D01*
X134938041Y-62490286D01*
X134919054Y-62463246D01*
X134918616Y-62460664D01*
X134917850Y-62459496D01*
X134913833Y-62432447D01*
X134912505Y-62424609D01*
X134912500Y-62424066D01*
X134912500Y-62405158D01*
X134912317Y-62404239D01*
X134912257Y-62397700D01*
X134920339Y-62369205D01*
X134925848Y-62340104D01*
X134929767Y-62335965D01*
X134931323Y-62330482D01*
X134953528Y-62310879D01*
X134973895Y-62289377D01*
X134980213Y-62287322D01*
X134983703Y-62284242D01*
X134995020Y-62282508D01*
X135023649Y-62273199D01*
X135103930Y-62264999D01*
X135270467Y-62209814D01*
X135419789Y-62117712D01*
X135543845Y-61993656D01*
X135635947Y-61844334D01*
X135691132Y-61677797D01*
X135701633Y-61575009D01*
X135701632Y-60704992D01*
X135692408Y-60614699D01*
X135691132Y-60602203D01*
X135691131Y-60602200D01*
X135648397Y-60473238D01*
X135635947Y-60435666D01*
X135543845Y-60286344D01*
X135419789Y-60162288D01*
X135270467Y-60070186D01*
X135103930Y-60015001D01*
X135103928Y-60015000D01*
X135001143Y-60004500D01*
X133401131Y-60004500D01*
X133401114Y-60004501D01*
X133298336Y-60015000D01*
X133298333Y-60015001D01*
X133131801Y-60070185D01*
X133131796Y-60070187D01*
X132982475Y-60162289D01*
X132858422Y-60286342D01*
X132766320Y-60435663D01*
X132766319Y-60435666D01*
X132711134Y-60602203D01*
X132711134Y-60602204D01*
X132711133Y-60602204D01*
X132700633Y-60704983D01*
X102985061Y-60704983D01*
X101522419Y-59242341D01*
X101488934Y-59181018D01*
X101486100Y-59154660D01*
X101486100Y-58164983D01*
X132700633Y-58164983D01*
X132700633Y-59035001D01*
X132700634Y-59035019D01*
X132711133Y-59137796D01*
X132711134Y-59137799D01*
X132766318Y-59304331D01*
X132766319Y-59304334D01*
X132858421Y-59453656D01*
X132982477Y-59577712D01*
X133131799Y-59669814D01*
X133298336Y-59724999D01*
X133401124Y-59735500D01*
X135001141Y-59735499D01*
X135103930Y-59724999D01*
X135270467Y-59669814D01*
X135419789Y-59577712D01*
X135543845Y-59453656D01*
X135635947Y-59304334D01*
X135691132Y-59137797D01*
X135701633Y-59035009D01*
X135701632Y-58164992D01*
X135691132Y-58062203D01*
X135635947Y-57895666D01*
X135543845Y-57746344D01*
X135419789Y-57622288D01*
X135270467Y-57530186D01*
X135103930Y-57475001D01*
X135103927Y-57475000D01*
X135023897Y-57466824D01*
X134959205Y-57440427D01*
X134919054Y-57383246D01*
X134912500Y-57343466D01*
X134912500Y-57325155D01*
X134912499Y-57325153D01*
X134881737Y-57170503D01*
X134881191Y-57169185D01*
X134821397Y-57024827D01*
X134821390Y-57024814D01*
X134733789Y-56893711D01*
X134733786Y-56893707D01*
X134622292Y-56782213D01*
X134622288Y-56782210D01*
X134491185Y-56694609D01*
X134491172Y-56694602D01*
X134345501Y-56634264D01*
X134345489Y-56634261D01*
X134190845Y-56603500D01*
X134190842Y-56603500D01*
X134033158Y-56603500D01*
X134033155Y-56603500D01*
X133878510Y-56634261D01*
X133878498Y-56634264D01*
X133732827Y-56694602D01*
X133732814Y-56694609D01*
X133601711Y-56782210D01*
X133601707Y-56782213D01*
X133490213Y-56893707D01*
X133490210Y-56893711D01*
X133402609Y-57024814D01*
X133402604Y-57024824D01*
X133342808Y-57169185D01*
X133317726Y-57206727D01*
X133317751Y-57206748D01*
X133317546Y-57206996D01*
X133315942Y-57209399D01*
X133313895Y-57211446D01*
X133313885Y-57211458D01*
X133237223Y-57326191D01*
X133184420Y-57453669D01*
X133182650Y-57459506D01*
X133180775Y-57458937D01*
X133152561Y-57512839D01*
X133128449Y-57532252D01*
X132982475Y-57622289D01*
X132858422Y-57746342D01*
X132766320Y-57895663D01*
X132766319Y-57895666D01*
X132711134Y-58062203D01*
X132711134Y-58062204D01*
X132711133Y-58062204D01*
X132700633Y-58164983D01*
X101486100Y-58164983D01*
X101486100Y-53084983D01*
X130160633Y-53084983D01*
X130160633Y-53955001D01*
X130160634Y-53955019D01*
X130171133Y-54057796D01*
X130171134Y-54057799D01*
X130173800Y-54065843D01*
X130226319Y-54224334D01*
X130318421Y-54373656D01*
X130442477Y-54497712D01*
X130591799Y-54589814D01*
X130758336Y-54644999D01*
X130861124Y-54655500D01*
X131754613Y-54655499D01*
X131821652Y-54675183D01*
X131842294Y-54691818D01*
X132812586Y-55662111D01*
X132812587Y-55662112D01*
X132927323Y-55738776D01*
X133025923Y-55779617D01*
X133054804Y-55791580D01*
X133054805Y-55791580D01*
X133054810Y-55791582D01*
X133081678Y-55796925D01*
X133081684Y-55796926D01*
X133081724Y-55796934D01*
X133172070Y-55814905D01*
X133190139Y-55818500D01*
X133190140Y-55818500D01*
X134448684Y-55818500D01*
X134496136Y-55827939D01*
X134640498Y-55887735D01*
X134640503Y-55887737D01*
X134795153Y-55918499D01*
X134795156Y-55918500D01*
X134795158Y-55918500D01*
X134952844Y-55918500D01*
X134952845Y-55918499D01*
X135107497Y-55887737D01*
X135253179Y-55827394D01*
X135384289Y-55739789D01*
X135495789Y-55628289D01*
X135583394Y-55497179D01*
X135643737Y-55351497D01*
X135674500Y-55196842D01*
X135674500Y-55039158D01*
X135674500Y-55039155D01*
X135674499Y-55039153D01*
X135643738Y-54884510D01*
X135643737Y-54884503D01*
X135624064Y-54837007D01*
X135583397Y-54738827D01*
X135583390Y-54738814D01*
X135495789Y-54607711D01*
X135495786Y-54607707D01*
X135490471Y-54602392D01*
X135456986Y-54541069D01*
X135461970Y-54471377D01*
X135490471Y-54427030D01*
X135492507Y-54424994D01*
X135543845Y-54373656D01*
X135635947Y-54224334D01*
X135691132Y-54057797D01*
X135701633Y-53955009D01*
X135701632Y-53084992D01*
X135691132Y-52982203D01*
X135635947Y-52815666D01*
X135543845Y-52666344D01*
X135444112Y-52566611D01*
X135410627Y-52505288D01*
X135410176Y-52454741D01*
X135420500Y-52402842D01*
X135420500Y-52245158D01*
X135420500Y-52245155D01*
X135420499Y-52245153D01*
X135389738Y-52090510D01*
X135389737Y-52090503D01*
X135369780Y-52042321D01*
X135329397Y-51944827D01*
X135329390Y-51944814D01*
X135241789Y-51813711D01*
X135241786Y-51813707D01*
X135130292Y-51702213D01*
X135130288Y-51702210D01*
X134999185Y-51614609D01*
X134999172Y-51614602D01*
X134853501Y-51554264D01*
X134853489Y-51554261D01*
X134698845Y-51523500D01*
X134698842Y-51523500D01*
X134541158Y-51523500D01*
X134541155Y-51523500D01*
X134386510Y-51554261D01*
X134386498Y-51554264D01*
X134240825Y-51614603D01*
X134218555Y-51629483D01*
X134173865Y-51647993D01*
X134161680Y-51650417D01*
X134161672Y-51650419D01*
X134034190Y-51703224D01*
X133919454Y-51779887D01*
X133657020Y-52042321D01*
X133580355Y-52157059D01*
X133527554Y-52284534D01*
X133527550Y-52284548D01*
X133527521Y-52284696D01*
X133527484Y-52284765D01*
X133525784Y-52290371D01*
X133524720Y-52290048D01*
X133495134Y-52346606D01*
X133434417Y-52381178D01*
X133405921Y-52384500D01*
X133401139Y-52384500D01*
X133401113Y-52384501D01*
X133298336Y-52395000D01*
X133298333Y-52395001D01*
X133131801Y-52450185D01*
X133131792Y-52450189D01*
X132996229Y-52533805D01*
X132928837Y-52552245D01*
X132866037Y-52533805D01*
X132730473Y-52450189D01*
X132730468Y-52450187D01*
X132730467Y-52450186D01*
X132563930Y-52395001D01*
X132563928Y-52395000D01*
X132461143Y-52384500D01*
X130861131Y-52384500D01*
X130861114Y-52384501D01*
X130758336Y-52395000D01*
X130758333Y-52395001D01*
X130591801Y-52450185D01*
X130591796Y-52450187D01*
X130442475Y-52542289D01*
X130318422Y-52666342D01*
X130226320Y-52815663D01*
X130226318Y-52815668D01*
X130198482Y-52899670D01*
X130171134Y-52982203D01*
X130171134Y-52982204D01*
X130171133Y-52982204D01*
X130160633Y-53084983D01*
X101486100Y-53084983D01*
X101486100Y-38006757D01*
X101486099Y-38006753D01*
X101455951Y-37855185D01*
X101455338Y-37852103D01*
X101394994Y-37706421D01*
X101394992Y-37706418D01*
X101394990Y-37706414D01*
X101307389Y-37575311D01*
X101307386Y-37575307D01*
X101099759Y-37367680D01*
X101095420Y-37359734D01*
X101088173Y-37354309D01*
X101078938Y-37329549D01*
X101066274Y-37306357D01*
X101066919Y-37297327D01*
X101063756Y-37288845D01*
X101069372Y-37263024D01*
X101071258Y-37236665D01*
X101077076Y-37227611D01*
X101078608Y-37220572D01*
X101099756Y-37192321D01*
X101131321Y-37160756D01*
X101192642Y-37127273D01*
X101262334Y-37132257D01*
X101306678Y-37160756D01*
X102526782Y-38380859D01*
X103386870Y-39240947D01*
X103386891Y-39240970D01*
X103502707Y-39356786D01*
X103502711Y-39356789D01*
X103633814Y-39444390D01*
X103633827Y-39444397D01*
X103729661Y-39484092D01*
X103779503Y-39504737D01*
X103779507Y-39504737D01*
X103779508Y-39504738D01*
X103934154Y-39535500D01*
X103934157Y-39535500D01*
X103934158Y-39535500D01*
X121703486Y-39535500D01*
X121770525Y-39555185D01*
X121772377Y-39556398D01*
X121794814Y-39571390D01*
X121794827Y-39571397D01*
X121940498Y-39631735D01*
X121940503Y-39631737D01*
X122072827Y-39658058D01*
X122095153Y-39662499D01*
X122095156Y-39662500D01*
X122095158Y-39662500D01*
X122252844Y-39662500D01*
X122252845Y-39662499D01*
X122407497Y-39631737D01*
X122553179Y-39571394D01*
X122553185Y-39571390D01*
X122575623Y-39556398D01*
X122642300Y-39535520D01*
X122644514Y-39535500D01*
X125554844Y-39535500D01*
X125554845Y-39535499D01*
X125709497Y-39504737D01*
X125855179Y-39444394D01*
X125986289Y-39356789D01*
X126660259Y-38682819D01*
X126721582Y-38649334D01*
X126747940Y-38646500D01*
X128924060Y-38646500D01*
X128991099Y-38666185D01*
X129011741Y-38682819D01*
X129230707Y-38901786D01*
X129230711Y-38901789D01*
X129361814Y-38989390D01*
X129361818Y-38989392D01*
X129361821Y-38989394D01*
X129507503Y-39049738D01*
X129662153Y-39080499D01*
X129662157Y-39080500D01*
X129662158Y-39080500D01*
X130216427Y-39080500D01*
X130283466Y-39100185D01*
X130312158Y-39129397D01*
X130313940Y-39127989D01*
X130318421Y-39133656D01*
X130442477Y-39257712D01*
X130591799Y-39349814D01*
X130758336Y-39404999D01*
X130861124Y-39415500D01*
X132461141Y-39415499D01*
X132563930Y-39404999D01*
X132730467Y-39349814D01*
X132866038Y-39266193D01*
X132933429Y-39247754D01*
X132996227Y-39266193D01*
X133131799Y-39349814D01*
X133298336Y-39404999D01*
X133401124Y-39415500D01*
X135001141Y-39415499D01*
X135103930Y-39404999D01*
X135270467Y-39349814D01*
X135419789Y-39257712D01*
X135543845Y-39133656D01*
X135635947Y-38984334D01*
X135691132Y-38817797D01*
X135701633Y-38715009D01*
X135701632Y-37844992D01*
X135691132Y-37742203D01*
X135657101Y-37639504D01*
X135654699Y-37569676D01*
X135690431Y-37509634D01*
X135752951Y-37478441D01*
X135774807Y-37476500D01*
X135881500Y-37476500D01*
X135948539Y-37496185D01*
X135994294Y-37548989D01*
X136005500Y-37600500D01*
X136005500Y-41881635D01*
X135985815Y-41948674D01*
X135933011Y-41994429D01*
X135863853Y-42004373D01*
X135800297Y-41975348D01*
X135778398Y-41950527D01*
X135749786Y-41907707D01*
X135638292Y-41796213D01*
X135638288Y-41796210D01*
X135507185Y-41708609D01*
X135507172Y-41708602D01*
X135361501Y-41648264D01*
X135361489Y-41648261D01*
X135206845Y-41617500D01*
X135206842Y-41617500D01*
X135049158Y-41617500D01*
X135049155Y-41617500D01*
X134894510Y-41648261D01*
X134894498Y-41648264D01*
X134750136Y-41708061D01*
X134702684Y-41717500D01*
X134424003Y-41717500D01*
X134315590Y-41739065D01*
X134315589Y-41739065D01*
X134288671Y-41744420D01*
X134161190Y-41797224D01*
X134046454Y-41873887D01*
X133732160Y-42188181D01*
X133670837Y-42221666D01*
X133644480Y-42224500D01*
X133401132Y-42224500D01*
X133401113Y-42224501D01*
X133298336Y-42235000D01*
X133298333Y-42235001D01*
X133131801Y-42290185D01*
X133131792Y-42290189D01*
X132996229Y-42373805D01*
X132928837Y-42392245D01*
X132866037Y-42373805D01*
X132730473Y-42290189D01*
X132730468Y-42290187D01*
X132730467Y-42290186D01*
X132563930Y-42235001D01*
X132563928Y-42235000D01*
X132461143Y-42224500D01*
X130861131Y-42224500D01*
X130861114Y-42224501D01*
X130758336Y-42235000D01*
X130758333Y-42235001D01*
X130591801Y-42290185D01*
X130591796Y-42290187D01*
X130442475Y-42382289D01*
X130318422Y-42506342D01*
X130226320Y-42655663D01*
X130226319Y-42655666D01*
X130171134Y-42822203D01*
X130171134Y-42822204D01*
X130171133Y-42822204D01*
X130160633Y-42924983D01*
X130160633Y-43795001D01*
X130160634Y-43795019D01*
X130171133Y-43897796D01*
X130171134Y-43897799D01*
X130226318Y-44064331D01*
X130226319Y-44064334D01*
X130318421Y-44213656D01*
X130442477Y-44337712D01*
X130591799Y-44429814D01*
X130758336Y-44484999D01*
X130861124Y-44495500D01*
X130990355Y-44495499D01*
X130997969Y-44497735D01*
X131005806Y-44496465D01*
X131031015Y-44507437D01*
X131057394Y-44515183D01*
X131064224Y-44521892D01*
X131069870Y-44524350D01*
X131093456Y-44550606D01*
X131107489Y-44571608D01*
X131128368Y-44638284D01*
X131109885Y-44705665D01*
X131057907Y-44752356D01*
X131004389Y-44764500D01*
X130861132Y-44764500D01*
X130861113Y-44764501D01*
X130758336Y-44775000D01*
X130758333Y-44775001D01*
X130591801Y-44830185D01*
X130591796Y-44830187D01*
X130442475Y-44922289D01*
X130318422Y-45046342D01*
X130260286Y-45140597D01*
X130208338Y-45187321D01*
X130154747Y-45199500D01*
X129807519Y-45199500D01*
X129740480Y-45179815D01*
X129719838Y-45163181D01*
X125364076Y-40807418D01*
X125364075Y-40807417D01*
X125249337Y-40730752D01*
X125121862Y-40677951D01*
X125121852Y-40677948D01*
X124986526Y-40651030D01*
X124986524Y-40651030D01*
X124986523Y-40651030D01*
X119551316Y-40651030D01*
X119503864Y-40641591D01*
X119359501Y-40581794D01*
X119359489Y-40581791D01*
X119204845Y-40551030D01*
X119204842Y-40551030D01*
X119047158Y-40551030D01*
X119047155Y-40551030D01*
X118892510Y-40581791D01*
X118892498Y-40581794D01*
X118746827Y-40642132D01*
X118746814Y-40642139D01*
X118615711Y-40729740D01*
X118615707Y-40729743D01*
X118504213Y-40841237D01*
X118504210Y-40841241D01*
X118416609Y-40972344D01*
X118416602Y-40972357D01*
X118356264Y-41118028D01*
X118356261Y-41118040D01*
X118325500Y-41272683D01*
X118325500Y-41430376D01*
X118356261Y-41585019D01*
X118356264Y-41585031D01*
X118416602Y-41730702D01*
X118416609Y-41730715D01*
X118504210Y-41861818D01*
X118504213Y-41861822D01*
X118615707Y-41973316D01*
X118615711Y-41973319D01*
X118746814Y-42060920D01*
X118746827Y-42060927D01*
X118813031Y-42088349D01*
X118892503Y-42121267D01*
X119047153Y-42152029D01*
X119047156Y-42152030D01*
X119047158Y-42152030D01*
X119204844Y-42152030D01*
X119204845Y-42152029D01*
X119359497Y-42121267D01*
X119438969Y-42088349D01*
X119503864Y-42061469D01*
X119551316Y-42052030D01*
X124576011Y-42052030D01*
X124643050Y-42071715D01*
X124663692Y-42088349D01*
X129019453Y-46444111D01*
X129019454Y-46444112D01*
X129134192Y-46520777D01*
X129261667Y-46573578D01*
X129261672Y-46573580D01*
X129261676Y-46573580D01*
X129261677Y-46573581D01*
X129397003Y-46600500D01*
X129397006Y-46600500D01*
X129397007Y-46600500D01*
X130154747Y-46600500D01*
X130221786Y-46620185D01*
X130260285Y-46659401D01*
X130318421Y-46753656D01*
X130442477Y-46877712D01*
X130591799Y-46969814D01*
X130758336Y-47024999D01*
X130861124Y-47035500D01*
X132461141Y-47035499D01*
X132563930Y-47024999D01*
X132730467Y-46969814D01*
X132879789Y-46877712D01*
X133003845Y-46753656D01*
X133095947Y-46604334D01*
X133151132Y-46437797D01*
X133161633Y-46335009D01*
X133161632Y-45464992D01*
X133159240Y-45441576D01*
X133156434Y-45414100D01*
X133169204Y-45345408D01*
X133217085Y-45294524D01*
X133279792Y-45277500D01*
X133550450Y-45277500D01*
X133617489Y-45297185D01*
X133653552Y-45332609D01*
X133744210Y-45468288D01*
X133744213Y-45468292D01*
X133855707Y-45579786D01*
X133855711Y-45579789D01*
X133986814Y-45667390D01*
X133986827Y-45667397D01*
X134129304Y-45726412D01*
X134132503Y-45727737D01*
X134287153Y-45758499D01*
X134287156Y-45758500D01*
X134287158Y-45758500D01*
X134444844Y-45758500D01*
X134444845Y-45758499D01*
X134599497Y-45727737D01*
X134745179Y-45667394D01*
X134876289Y-45579789D01*
X134987789Y-45468289D01*
X135075394Y-45337179D01*
X135135737Y-45191497D01*
X135166500Y-45036842D01*
X135166500Y-44879158D01*
X135166500Y-44879155D01*
X135166499Y-44879153D01*
X135156759Y-44830186D01*
X135135737Y-44724503D01*
X135127934Y-44705665D01*
X135095701Y-44627846D01*
X135088232Y-44558377D01*
X135119507Y-44495898D01*
X135171255Y-44462689D01*
X135270467Y-44429814D01*
X135419789Y-44337712D01*
X135543845Y-44213656D01*
X135635947Y-44064334D01*
X135691132Y-43897797D01*
X135701633Y-43795009D01*
X135701632Y-43027806D01*
X135708001Y-43006114D01*
X135709788Y-42983578D01*
X135718619Y-42969952D01*
X135721316Y-42960768D01*
X135726941Y-42952733D01*
X135732015Y-42946062D01*
X135749789Y-42928289D01*
X135780507Y-42882315D01*
X135782809Y-42879290D01*
X135808002Y-42860732D01*
X135832010Y-42840668D01*
X135835903Y-42840178D01*
X135839064Y-42837851D01*
X135870293Y-42835859D01*
X135901335Y-42831961D01*
X135904875Y-42833654D01*
X135908792Y-42833405D01*
X135936134Y-42848610D01*
X135964362Y-42862115D01*
X135966424Y-42865454D01*
X135969855Y-42867362D01*
X135984637Y-42894936D01*
X136001082Y-42921558D01*
X136001811Y-42926973D01*
X136002866Y-42928941D01*
X136002573Y-42932632D01*
X136005500Y-42954364D01*
X136005500Y-80489635D01*
X135985815Y-80556674D01*
X135933011Y-80602429D01*
X135863853Y-80612373D01*
X135800297Y-80583348D01*
X135778398Y-80558527D01*
X135749786Y-80515707D01*
X135638292Y-80404213D01*
X135638288Y-80404210D01*
X135604981Y-80381955D01*
X135586195Y-80366538D01*
X135447543Y-80227886D01*
X135332811Y-80151225D01*
X135332812Y-80151225D01*
X135332807Y-80151222D01*
X135205332Y-80098421D01*
X135205322Y-80098418D01*
X135069996Y-80071500D01*
X135069994Y-80071500D01*
X135069993Y-80071500D01*
X102576519Y-80071500D01*
X102509480Y-80051815D01*
X102488838Y-80035181D01*
X100825288Y-78371630D01*
X100791803Y-78310307D01*
X100796787Y-78240615D01*
X100838659Y-78184682D01*
X100844079Y-78180846D01*
X100903543Y-78141114D01*
X101636114Y-77408543D01*
X101690948Y-77326476D01*
X101744558Y-77281672D01*
X101813883Y-77272963D01*
X101862941Y-77292265D01*
X101957414Y-77355390D01*
X101957427Y-77355397D01*
X102085730Y-77408541D01*
X102103103Y-77415737D01*
X102257753Y-77446499D01*
X102257756Y-77446500D01*
X102257758Y-77446500D01*
X102415444Y-77446500D01*
X102415445Y-77446499D01*
X102570097Y-77415737D01*
X102696142Y-77363528D01*
X102715772Y-77355397D01*
X102715772Y-77355396D01*
X102715779Y-77355394D01*
X102846889Y-77267789D01*
X102958389Y-77156289D01*
X103045994Y-77025179D01*
X103106337Y-76879497D01*
X103111813Y-76851962D01*
X103115007Y-76844253D01*
X103115100Y-76839085D01*
X103130333Y-76807256D01*
X103134117Y-76801594D01*
X103187735Y-76756797D01*
X103237209Y-76746500D01*
X103293244Y-76746500D01*
X103293245Y-76746499D01*
X103447897Y-76715737D01*
X103523363Y-76684478D01*
X103592264Y-76655939D01*
X103639716Y-76646500D01*
X104183596Y-76646500D01*
X104274640Y-76628389D01*
X104318928Y-76619580D01*
X104382669Y-76593177D01*
X104446407Y-76566777D01*
X104446408Y-76566776D01*
X104446411Y-76566775D01*
X104561143Y-76490114D01*
X105090513Y-75960743D01*
X105090806Y-75960303D01*
X105101040Y-75944990D01*
X105114195Y-75925301D01*
X105167175Y-75846011D01*
X105203123Y-75759225D01*
X105219980Y-75718529D01*
X105240734Y-75614189D01*
X105246900Y-75583193D01*
X105246900Y-74719807D01*
X105242879Y-74699594D01*
X105240791Y-74689099D01*
X105227353Y-74621541D01*
X105219980Y-74584472D01*
X105210747Y-74562181D01*
X105167177Y-74456992D01*
X105090512Y-74342254D01*
X105017589Y-74269331D01*
X105014849Y-74264313D01*
X105010097Y-74261136D01*
X104998290Y-74233988D01*
X104984104Y-74208008D01*
X104983915Y-74200935D01*
X104982232Y-74197064D01*
X104983139Y-74171775D01*
X104982873Y-74161775D01*
X104983221Y-74159626D01*
X105001241Y-74069042D01*
X105001241Y-74048656D01*
X105002844Y-74038785D01*
X105013788Y-74015929D01*
X105020926Y-73991621D01*
X105028620Y-73984953D01*
X105033019Y-73975768D01*
X105054582Y-73962457D01*
X105073730Y-73945866D01*
X105083808Y-73944416D01*
X105092474Y-73939068D01*
X105117807Y-73939528D01*
X105142888Y-73935922D01*
X105152150Y-73940152D01*
X105162332Y-73940337D01*
X105183394Y-73954420D01*
X105206444Y-73964947D01*
X105212922Y-73970979D01*
X105674653Y-74432711D01*
X105674654Y-74432712D01*
X105789392Y-74509377D01*
X105916867Y-74562178D01*
X105916872Y-74562180D01*
X105916876Y-74562180D01*
X105916877Y-74562181D01*
X106052203Y-74589100D01*
X106052206Y-74589100D01*
X106052207Y-74589100D01*
X106330884Y-74589100D01*
X106378336Y-74598539D01*
X106433876Y-74621544D01*
X106522703Y-74658337D01*
X106641071Y-74681882D01*
X106677353Y-74689099D01*
X106677356Y-74689100D01*
X106677358Y-74689100D01*
X106835044Y-74689100D01*
X106835045Y-74689099D01*
X106989697Y-74658337D01*
X107135379Y-74597994D01*
X107266489Y-74510389D01*
X107377989Y-74398889D01*
X107465594Y-74267779D01*
X107525937Y-74122097D01*
X107556700Y-73967442D01*
X107556700Y-73809758D01*
X107556700Y-73809755D01*
X107556699Y-73809753D01*
X107546148Y-73756710D01*
X107525937Y-73655103D01*
X107479144Y-73542134D01*
X107465597Y-73509427D01*
X107465590Y-73509414D01*
X107377989Y-73378311D01*
X107377986Y-73378307D01*
X107266492Y-73266813D01*
X107266488Y-73266810D01*
X107135385Y-73179209D01*
X107135372Y-73179202D01*
X106989701Y-73118864D01*
X106989689Y-73118861D01*
X106835045Y-73088100D01*
X106835042Y-73088100D01*
X106677358Y-73088100D01*
X106677355Y-73088100D01*
X106522711Y-73118860D01*
X106522702Y-73118863D01*
X106471555Y-73140048D01*
X106402086Y-73147515D01*
X106339607Y-73116239D01*
X106336424Y-73113167D01*
X105577146Y-72353888D01*
X105577145Y-72353887D01*
X105462407Y-72277222D01*
X105334932Y-72224421D01*
X105334922Y-72224418D01*
X105199596Y-72197500D01*
X105199594Y-72197500D01*
X105199593Y-72197500D01*
X104913319Y-72197500D01*
X104846280Y-72177815D01*
X104825638Y-72161181D01*
X104622819Y-71958362D01*
X104589334Y-71897039D01*
X104586500Y-71870681D01*
X104586500Y-70402316D01*
X104595939Y-70354864D01*
X104647581Y-70230187D01*
X104655737Y-70210497D01*
X104686500Y-70055842D01*
X104686500Y-69898158D01*
X104686500Y-69898155D01*
X104686499Y-69898153D01*
X104663785Y-69783964D01*
X104655737Y-69743503D01*
X104653338Y-69737712D01*
X104595397Y-69597827D01*
X104595390Y-69597814D01*
X104507789Y-69466711D01*
X104507786Y-69466707D01*
X104396292Y-69355213D01*
X104396288Y-69355210D01*
X104265185Y-69267609D01*
X104265172Y-69267602D01*
X104119501Y-69207264D01*
X104119489Y-69207261D01*
X103964845Y-69176500D01*
X103964842Y-69176500D01*
X103807158Y-69176500D01*
X103807155Y-69176500D01*
X103652510Y-69207261D01*
X103652498Y-69207264D01*
X103506827Y-69267602D01*
X103506814Y-69267609D01*
X103375711Y-69355210D01*
X103375707Y-69355213D01*
X103264213Y-69466707D01*
X103264210Y-69466711D01*
X103176609Y-69597814D01*
X103176602Y-69597827D01*
X103116264Y-69743498D01*
X103116261Y-69743510D01*
X103085500Y-69898153D01*
X103085500Y-70055846D01*
X103116261Y-70210489D01*
X103116264Y-70210501D01*
X103176061Y-70354864D01*
X103185500Y-70402316D01*
X103185500Y-72143206D01*
X103185500Y-72281194D01*
X103185500Y-72281196D01*
X103185499Y-72281196D01*
X103212418Y-72416522D01*
X103212421Y-72416532D01*
X103265222Y-72544007D01*
X103341887Y-72658745D01*
X103341888Y-72658746D01*
X103800076Y-73116933D01*
X103833561Y-73178256D01*
X103828577Y-73247947D01*
X103786706Y-73303881D01*
X103781287Y-73307716D01*
X103690448Y-73368413D01*
X103578954Y-73479907D01*
X103578951Y-73479911D01*
X103491350Y-73611014D01*
X103491343Y-73611027D01*
X103431005Y-73756698D01*
X103431002Y-73756710D01*
X103400241Y-73911353D01*
X103400241Y-73960118D01*
X103380556Y-74027157D01*
X103327752Y-74072912D01*
X103258594Y-74082856D01*
X103195038Y-74053831D01*
X103173139Y-74029010D01*
X103147734Y-73990989D01*
X103136189Y-73973711D01*
X103136188Y-73973710D01*
X103136186Y-73973707D01*
X103024692Y-73862213D01*
X103024688Y-73862210D01*
X102893585Y-73774609D01*
X102893572Y-73774602D01*
X102747901Y-73714264D01*
X102747889Y-73714261D01*
X102593245Y-73683500D01*
X102593242Y-73683500D01*
X102435558Y-73683500D01*
X102435555Y-73683500D01*
X102280910Y-73714261D01*
X102280898Y-73714264D01*
X102135227Y-73774602D01*
X102135214Y-73774609D01*
X102004111Y-73862210D01*
X101909882Y-73956439D01*
X101848558Y-73989923D01*
X101778867Y-73984939D01*
X101734520Y-73956438D01*
X101640295Y-73862213D01*
X101640291Y-73862210D01*
X101509188Y-73774609D01*
X101509178Y-73774604D01*
X101466287Y-73756838D01*
X101411884Y-73712997D01*
X101389819Y-73646703D01*
X101407098Y-73579003D01*
X101426054Y-73554601D01*
X102144114Y-72836543D01*
X102220775Y-72721811D01*
X102273580Y-72594329D01*
X102286039Y-72531692D01*
X102300500Y-72458993D01*
X102300500Y-70035007D01*
X102291589Y-69990211D01*
X102286333Y-69963789D01*
X102282522Y-69944631D01*
X102273580Y-69899672D01*
X102271852Y-69895500D01*
X102220777Y-69772192D01*
X102144112Y-69657454D01*
X101316839Y-68830181D01*
X101283354Y-68768858D01*
X101288338Y-68699166D01*
X101330210Y-68643233D01*
X101395674Y-68618816D01*
X101404520Y-68618500D01*
X101424844Y-68618500D01*
X101424845Y-68618499D01*
X101579497Y-68587737D01*
X101725179Y-68527394D01*
X101856289Y-68439789D01*
X101967789Y-68328289D01*
X102055394Y-68197179D01*
X102115737Y-68051497D01*
X102146500Y-67896842D01*
X102146500Y-67739158D01*
X102146500Y-67739155D01*
X102146499Y-67739153D01*
X102136759Y-67690186D01*
X102115737Y-67584503D01*
X102108562Y-67567180D01*
X102055397Y-67438827D01*
X102055390Y-67438814D01*
X101967789Y-67307711D01*
X101967786Y-67307707D01*
X101856292Y-67196213D01*
X101856288Y-67196210D01*
X101725185Y-67108609D01*
X101725172Y-67108602D01*
X101579501Y-67048264D01*
X101579489Y-67048261D01*
X101424845Y-67017500D01*
X101424842Y-67017500D01*
X101267158Y-67017500D01*
X101267155Y-67017500D01*
X101112510Y-67048261D01*
X101112498Y-67048264D01*
X100968136Y-67108061D01*
X100920684Y-67117500D01*
X99877843Y-67117500D01*
X99810804Y-67097815D01*
X99765049Y-67045011D01*
X99755105Y-66975853D01*
X99772303Y-66928405D01*
X99774814Y-66924334D01*
X99829999Y-66757797D01*
X99840500Y-66655009D01*
X99840499Y-65938266D01*
X99860183Y-65871228D01*
X99912987Y-65825473D01*
X99940308Y-65816650D01*
X99981445Y-65808466D01*
X100055497Y-65793737D01*
X100201179Y-65733394D01*
X100332289Y-65645789D01*
X100443789Y-65534289D01*
X100531394Y-65403179D01*
X100591737Y-65257497D01*
X100622500Y-65102842D01*
X100622500Y-64945158D01*
X100622500Y-64945155D01*
X100622499Y-64945153D01*
X100600624Y-64835183D01*
X100591737Y-64790503D01*
X100574883Y-64749814D01*
X100531397Y-64644827D01*
X100531390Y-64644814D01*
X100443789Y-64513711D01*
X100443786Y-64513707D01*
X100332292Y-64402213D01*
X100332288Y-64402210D01*
X100201185Y-64314609D01*
X100201172Y-64314602D01*
X100055501Y-64254264D01*
X100055491Y-64254261D01*
X99940307Y-64231349D01*
X99878396Y-64198964D01*
X99843822Y-64138248D01*
X99840499Y-64109740D01*
X99840499Y-63244992D01*
X99829999Y-63142203D01*
X99774814Y-62975666D01*
X99682712Y-62826344D01*
X99558656Y-62702288D01*
X99409334Y-62610186D01*
X99242797Y-62555001D01*
X99242795Y-62555000D01*
X99140016Y-62544500D01*
X99140009Y-62544500D01*
X98246519Y-62544500D01*
X98217078Y-62535855D01*
X98187092Y-62529332D01*
X98182076Y-62525577D01*
X98179480Y-62524815D01*
X98158838Y-62508181D01*
X98137837Y-62487180D01*
X98104352Y-62425857D01*
X98109336Y-62356165D01*
X98151208Y-62300232D01*
X98216672Y-62275815D01*
X98225518Y-62275499D01*
X99140002Y-62275499D01*
X99140008Y-62275499D01*
X99242797Y-62264999D01*
X99409334Y-62209814D01*
X99558656Y-62117712D01*
X99682712Y-61993656D01*
X99774814Y-61844334D01*
X99829999Y-61677797D01*
X99840500Y-61575009D01*
X99840499Y-60704992D01*
X99831275Y-60614699D01*
X99829999Y-60602203D01*
X99829998Y-60602200D01*
X99787264Y-60473238D01*
X99774814Y-60435666D01*
X99682712Y-60286344D01*
X99558656Y-60162288D01*
X99409334Y-60070186D01*
X99242797Y-60015001D01*
X99242794Y-60015000D01*
X99151897Y-60005714D01*
X99087205Y-59979317D01*
X99047054Y-59922136D01*
X99040500Y-59882356D01*
X99040500Y-54837004D01*
X99013581Y-54701677D01*
X99013580Y-54701676D01*
X99013580Y-54701672D01*
X98994455Y-54655499D01*
X98960778Y-54574195D01*
X98960771Y-54574182D01*
X98884115Y-54459459D01*
X98849650Y-54424994D01*
X98786542Y-54361886D01*
X98711662Y-54287006D01*
X98528235Y-54103578D01*
X98494750Y-54042255D01*
X98499734Y-53972563D01*
X98501355Y-53968444D01*
X98506920Y-53955009D01*
X98559737Y-53827497D01*
X98590500Y-53672842D01*
X98590500Y-53515158D01*
X98590500Y-53515155D01*
X98590499Y-53515153D01*
X98559738Y-53360510D01*
X98559737Y-53360503D01*
X98559735Y-53360498D01*
X98499397Y-53214827D01*
X98499390Y-53214814D01*
X98411789Y-53083711D01*
X98411786Y-53083707D01*
X98300292Y-52972213D01*
X98300288Y-52972210D01*
X98169185Y-52884609D01*
X98169172Y-52884602D01*
X98023501Y-52824264D01*
X98023489Y-52824261D01*
X97868845Y-52793500D01*
X97868842Y-52793500D01*
X97711158Y-52793500D01*
X97711155Y-52793500D01*
X97556510Y-52824261D01*
X97556498Y-52824264D01*
X97410827Y-52884602D01*
X97410814Y-52884609D01*
X97279711Y-52972210D01*
X97279707Y-52972213D01*
X97168213Y-53083707D01*
X97168210Y-53083711D01*
X97080609Y-53214814D01*
X97080602Y-53214827D01*
X97020264Y-53360498D01*
X97020261Y-53360510D01*
X96989500Y-53515153D01*
X96989500Y-53672846D01*
X97020261Y-53827489D01*
X97020264Y-53827501D01*
X97080061Y-53971864D01*
X97089500Y-54019316D01*
X97089500Y-54287006D01*
X97089500Y-54424994D01*
X97089500Y-54424996D01*
X97089499Y-54424996D01*
X97116418Y-54560322D01*
X97116421Y-54560332D01*
X97169222Y-54687807D01*
X97245887Y-54802545D01*
X97245888Y-54802546D01*
X97603181Y-55159837D01*
X97636666Y-55221160D01*
X97639500Y-55247518D01*
X97639500Y-59882357D01*
X97619815Y-59949396D01*
X97567011Y-59995151D01*
X97528102Y-60005715D01*
X97437202Y-60015001D01*
X97437200Y-60015001D01*
X97270668Y-60070185D01*
X97270663Y-60070187D01*
X97121342Y-60162289D01*
X96997289Y-60286342D01*
X96905187Y-60435663D01*
X96905186Y-60435666D01*
X96850001Y-60602203D01*
X96850001Y-60602204D01*
X96850000Y-60602204D01*
X96839500Y-60704983D01*
X96839500Y-61072275D01*
X96819815Y-61139314D01*
X96767011Y-61185069D01*
X96697853Y-61195013D01*
X96691309Y-61193892D01*
X96598846Y-61175500D01*
X96598842Y-61175500D01*
X96441158Y-61175500D01*
X96441153Y-61175500D01*
X96352691Y-61193096D01*
X96283099Y-61186869D01*
X96227922Y-61144005D01*
X96204678Y-61078115D01*
X96204500Y-61071479D01*
X96204500Y-60129004D01*
X96177581Y-59993677D01*
X96177580Y-59993676D01*
X96177580Y-59993672D01*
X96171634Y-59979317D01*
X96141660Y-59906951D01*
X96134191Y-59837482D01*
X96165467Y-59775003D01*
X96225556Y-59739351D01*
X96256221Y-59735499D01*
X96600002Y-59735499D01*
X96600008Y-59735499D01*
X96702797Y-59724999D01*
X96869334Y-59669814D01*
X97018656Y-59577712D01*
X97142712Y-59453656D01*
X97234814Y-59304334D01*
X97289999Y-59137797D01*
X97300500Y-59035009D01*
X97300499Y-58164992D01*
X97289999Y-58062203D01*
X97234814Y-57895666D01*
X97142712Y-57746344D01*
X97018656Y-57622288D01*
X96869334Y-57530186D01*
X96702797Y-57475001D01*
X96702794Y-57475000D01*
X96611897Y-57465714D01*
X96547205Y-57439317D01*
X96507054Y-57382136D01*
X96500500Y-57342356D01*
X96500500Y-52002940D01*
X96520185Y-51935901D01*
X96536814Y-51915263D01*
X96633789Y-51818289D01*
X96721394Y-51687179D01*
X96781737Y-51541497D01*
X96812500Y-51386842D01*
X96812500Y-51229158D01*
X96812500Y-51229155D01*
X96812499Y-51229153D01*
X96804349Y-51188182D01*
X96781737Y-51074503D01*
X96781735Y-51074498D01*
X96721397Y-50928827D01*
X96721390Y-50928814D01*
X96633789Y-50797711D01*
X96633786Y-50797707D01*
X96522292Y-50686213D01*
X96522288Y-50686210D01*
X96391185Y-50598609D01*
X96391172Y-50598602D01*
X96245501Y-50538264D01*
X96245489Y-50538261D01*
X96090845Y-50507500D01*
X96090842Y-50507500D01*
X95933158Y-50507500D01*
X95933155Y-50507500D01*
X95778510Y-50538261D01*
X95778498Y-50538264D01*
X95632827Y-50598602D01*
X95632814Y-50598609D01*
X95501711Y-50686210D01*
X95501707Y-50686213D01*
X95390213Y-50797707D01*
X95390210Y-50797711D01*
X95302609Y-50928814D01*
X95302602Y-50928827D01*
X95242264Y-51074498D01*
X95242261Y-51074508D01*
X95241593Y-51077867D01*
X95223083Y-51122547D01*
X95179229Y-51188182D01*
X95179223Y-51188192D01*
X95126420Y-51315671D01*
X95126418Y-51315677D01*
X95099500Y-51451004D01*
X95099500Y-57342357D01*
X95079815Y-57409396D01*
X95027011Y-57455151D01*
X94988102Y-57465715D01*
X94897202Y-57475001D01*
X94897200Y-57475001D01*
X94730668Y-57530185D01*
X94730663Y-57530187D01*
X94581342Y-57622289D01*
X94457289Y-57746342D01*
X94365187Y-57895663D01*
X94365186Y-57895666D01*
X94310001Y-58062203D01*
X94310001Y-58062204D01*
X94310000Y-58062204D01*
X94299500Y-58164983D01*
X94299500Y-59035001D01*
X94299501Y-59035019D01*
X94310000Y-59137796D01*
X94310001Y-59137799D01*
X94365185Y-59304331D01*
X94365187Y-59304336D01*
X94457289Y-59453657D01*
X94509124Y-59505492D01*
X94542609Y-59566815D01*
X94537625Y-59636507D01*
X94536005Y-59640625D01*
X94499212Y-59729452D01*
X94499211Y-59729455D01*
X94499211Y-59729456D01*
X94499210Y-59729459D01*
X94468449Y-59884102D01*
X94468449Y-60041795D01*
X94499210Y-60196438D01*
X94499213Y-60196450D01*
X94559551Y-60342121D01*
X94559558Y-60342134D01*
X94647159Y-60473237D01*
X94647162Y-60473241D01*
X94762967Y-60589046D01*
X94762019Y-60589993D01*
X94797497Y-60642072D01*
X94803500Y-60680185D01*
X94803500Y-62497226D01*
X94783815Y-62564265D01*
X94736383Y-62605697D01*
X94736813Y-62606395D01*
X94732634Y-62608972D01*
X94731908Y-62609607D01*
X94730667Y-62610185D01*
X94581342Y-62702289D01*
X94457289Y-62826342D01*
X94365187Y-62975663D01*
X94365186Y-62975666D01*
X94310001Y-63142203D01*
X94310001Y-63142204D01*
X94310000Y-63142204D01*
X94299500Y-63244983D01*
X94299500Y-64115001D01*
X94299501Y-64115019D01*
X94310000Y-64217796D01*
X94310001Y-64217799D01*
X94365185Y-64384331D01*
X94365187Y-64384336D01*
X94376214Y-64402213D01*
X94457288Y-64533656D01*
X94581344Y-64657712D01*
X94730666Y-64749814D01*
X94897203Y-64804999D01*
X94999991Y-64815500D01*
X95422481Y-64815499D01*
X95443726Y-64821737D01*
X95465814Y-64823317D01*
X95476596Y-64831388D01*
X95489519Y-64835183D01*
X95504020Y-64851919D01*
X95521747Y-64865189D01*
X95526453Y-64877807D01*
X95535274Y-64887987D01*
X95538425Y-64909905D01*
X95546164Y-64930653D01*
X95543301Y-64943813D01*
X95545218Y-64957146D01*
X95536018Y-64977289D01*
X95531312Y-64998926D01*
X95518043Y-65016651D01*
X95516193Y-65020702D01*
X95510161Y-65027180D01*
X95489160Y-65048181D01*
X95427837Y-65081666D01*
X95401479Y-65084500D01*
X94999998Y-65084500D01*
X94999980Y-65084501D01*
X94897203Y-65095000D01*
X94897200Y-65095001D01*
X94730668Y-65150185D01*
X94730663Y-65150187D01*
X94581342Y-65242289D01*
X94457289Y-65366342D01*
X94365187Y-65515663D01*
X94365186Y-65515666D01*
X94310001Y-65682203D01*
X94310001Y-65682204D01*
X94310000Y-65682204D01*
X94299500Y-65784983D01*
X94299500Y-66655001D01*
X94299501Y-66655019D01*
X94310000Y-66757796D01*
X94310001Y-66757799D01*
X94365185Y-66924331D01*
X94365186Y-66924334D01*
X94457288Y-67073656D01*
X94581344Y-67197712D01*
X94730666Y-67289814D01*
X94897203Y-67344999D01*
X94999991Y-67355500D01*
X96600008Y-67355499D01*
X96702797Y-67344999D01*
X96869334Y-67289814D01*
X97004905Y-67206193D01*
X97072296Y-67187754D01*
X97135094Y-67206193D01*
X97270666Y-67289814D01*
X97437203Y-67344999D01*
X97539991Y-67355500D01*
X98454480Y-67355499D01*
X98475726Y-67361737D01*
X98497814Y-67363317D01*
X98508596Y-67371388D01*
X98521519Y-67375183D01*
X98536020Y-67391919D01*
X98553747Y-67405189D01*
X98558453Y-67417807D01*
X98567274Y-67427987D01*
X98570425Y-67449905D01*
X98578164Y-67470653D01*
X98575301Y-67483813D01*
X98577218Y-67497146D01*
X98568018Y-67517289D01*
X98563312Y-67538926D01*
X98550043Y-67556651D01*
X98548193Y-67560702D01*
X98542161Y-67567180D01*
X98521160Y-67588181D01*
X98459837Y-67621666D01*
X98433479Y-67624500D01*
X97539998Y-67624500D01*
X97539980Y-67624501D01*
X97437203Y-67635000D01*
X97437200Y-67635001D01*
X97270668Y-67690185D01*
X97270659Y-67690189D01*
X97135096Y-67773805D01*
X97067704Y-67792245D01*
X97004904Y-67773805D01*
X96869340Y-67690189D01*
X96869335Y-67690187D01*
X96869334Y-67690186D01*
X96702797Y-67635001D01*
X96702795Y-67635000D01*
X96600010Y-67624500D01*
X94999998Y-67624500D01*
X94999981Y-67624501D01*
X94897203Y-67635000D01*
X94897200Y-67635001D01*
X94730668Y-67690185D01*
X94730663Y-67690187D01*
X94581342Y-67782289D01*
X94457289Y-67906342D01*
X94365187Y-68055663D01*
X94365186Y-68055666D01*
X94310001Y-68222203D01*
X94310001Y-68222204D01*
X94310000Y-68222204D01*
X94299500Y-68324983D01*
X94299500Y-69195001D01*
X94299501Y-69195019D01*
X94310000Y-69297796D01*
X94310001Y-69297799D01*
X94365185Y-69464331D01*
X94365187Y-69464336D01*
X94369744Y-69471724D01*
X94457288Y-69613656D01*
X94581344Y-69737712D01*
X94730666Y-69829814D01*
X94897203Y-69884999D01*
X94999991Y-69895500D01*
X96600008Y-69895499D01*
X96702797Y-69884999D01*
X96869334Y-69829814D01*
X97004905Y-69746193D01*
X97072296Y-69727754D01*
X97135094Y-69746193D01*
X97270666Y-69829814D01*
X97437203Y-69884999D01*
X97539991Y-69895500D01*
X99140008Y-69895499D01*
X99231473Y-69886155D01*
X99232470Y-69886340D01*
X99233417Y-69885972D01*
X99266735Y-69892710D01*
X99300163Y-69898924D01*
X99301231Y-69899686D01*
X99301900Y-69899822D01*
X99316615Y-69910671D01*
X99330461Y-69920557D01*
X99331084Y-69921162D01*
X99373711Y-69963789D01*
X99377772Y-69966503D01*
X99385607Y-69974111D01*
X99400348Y-70000192D01*
X99417218Y-70024957D01*
X99417360Y-70030292D01*
X99419986Y-70034937D01*
X99418286Y-70064849D01*
X99419089Y-70094802D01*
X99416325Y-70099366D01*
X99416023Y-70104695D01*
X99398419Y-70128942D01*
X99382903Y-70154571D01*
X99378109Y-70156917D01*
X99374975Y-70161235D01*
X99347062Y-70172113D01*
X99320148Y-70185288D01*
X99314377Y-70184853D01*
X99309875Y-70186608D01*
X99293375Y-70183271D01*
X99260216Y-70180773D01*
X99242799Y-70175001D01*
X99242795Y-70175000D01*
X99140010Y-70164500D01*
X97539998Y-70164500D01*
X97539981Y-70164501D01*
X97437203Y-70175000D01*
X97437200Y-70175001D01*
X97270668Y-70230185D01*
X97270659Y-70230189D01*
X97135096Y-70313805D01*
X97067704Y-70332245D01*
X97004904Y-70313805D01*
X96869340Y-70230189D01*
X96869335Y-70230187D01*
X96869334Y-70230186D01*
X96702797Y-70175001D01*
X96702795Y-70175000D01*
X96600010Y-70164500D01*
X94999998Y-70164500D01*
X94999981Y-70164501D01*
X94897203Y-70175000D01*
X94897200Y-70175001D01*
X94730668Y-70230185D01*
X94730663Y-70230187D01*
X94581342Y-70322289D01*
X94457289Y-70446342D01*
X94365187Y-70595663D01*
X94365186Y-70595666D01*
X94310001Y-70762203D01*
X94310001Y-70762204D01*
X94310000Y-70762204D01*
X94299500Y-70864983D01*
X94299500Y-71735001D01*
X94299501Y-71735019D01*
X94310000Y-71837796D01*
X94310001Y-71837799D01*
X94337917Y-71922043D01*
X94365186Y-72004334D01*
X94457288Y-72153656D01*
X94581344Y-72277712D01*
X94730666Y-72369814D01*
X94897203Y-72424999D01*
X94999991Y-72435500D01*
X95914480Y-72435499D01*
X95935726Y-72441737D01*
X95957814Y-72443317D01*
X95968596Y-72451388D01*
X95981519Y-72455183D01*
X95996020Y-72471919D01*
X96013747Y-72485189D01*
X96018453Y-72497807D01*
X96027274Y-72507987D01*
X96030425Y-72529905D01*
X96038164Y-72550653D01*
X96035301Y-72563813D01*
X96037218Y-72577146D01*
X96028018Y-72597289D01*
X96023312Y-72618926D01*
X96010043Y-72636651D01*
X96008193Y-72640702D01*
X96002161Y-72647180D01*
X95981160Y-72668181D01*
X95919837Y-72701666D01*
X95893479Y-72704500D01*
X94999998Y-72704500D01*
X94999980Y-72704501D01*
X94897203Y-72715000D01*
X94897200Y-72715001D01*
X94730668Y-72770185D01*
X94730663Y-72770187D01*
X94581342Y-72862289D01*
X94457289Y-72986342D01*
X94365187Y-73135663D01*
X94365185Y-73135668D01*
X94350758Y-73179206D01*
X94310001Y-73302203D01*
X94310001Y-73302204D01*
X94310000Y-73302204D01*
X94299500Y-73404983D01*
X94299500Y-74275001D01*
X94299501Y-74275019D01*
X94310000Y-74377796D01*
X94310001Y-74377799D01*
X94365185Y-74544331D01*
X94365187Y-74544336D01*
X94389940Y-74584467D01*
X94457288Y-74693656D01*
X94581344Y-74817712D01*
X94730666Y-74909814D01*
X94897203Y-74964999D01*
X94999991Y-74975500D01*
X96600008Y-74975499D01*
X96702797Y-74964999D01*
X96869334Y-74909814D01*
X97004905Y-74826193D01*
X97072296Y-74807754D01*
X97135094Y-74826193D01*
X97270666Y-74909814D01*
X97437203Y-74964999D01*
X97539991Y-74975500D01*
X99140008Y-74975499D01*
X99242797Y-74964999D01*
X99400742Y-74912660D01*
X99416727Y-74912110D01*
X99431758Y-74906624D01*
X99450927Y-74910934D01*
X99470565Y-74910259D01*
X99485107Y-74918619D01*
X99499926Y-74921952D01*
X99519942Y-74938648D01*
X99528032Y-74943299D01*
X99534283Y-74949637D01*
X99535957Y-74952143D01*
X99593505Y-75009691D01*
X99593790Y-75009980D01*
X99610071Y-75040297D01*
X99626666Y-75070689D01*
X99626734Y-75071325D01*
X99626847Y-75071535D01*
X99626808Y-75072018D01*
X99629500Y-75097048D01*
X99629500Y-75223810D01*
X99609815Y-75290849D01*
X99557011Y-75336604D01*
X99487853Y-75346548D01*
X99440405Y-75329350D01*
X99423543Y-75318950D01*
X99409334Y-75310186D01*
X99242797Y-75255001D01*
X99242795Y-75255000D01*
X99140010Y-75244500D01*
X97539998Y-75244500D01*
X97539981Y-75244501D01*
X97437203Y-75255000D01*
X97437200Y-75255001D01*
X97270668Y-75310185D01*
X97270659Y-75310189D01*
X97135096Y-75393805D01*
X97067704Y-75412245D01*
X97004904Y-75393805D01*
X96869340Y-75310189D01*
X96869335Y-75310187D01*
X96869334Y-75310186D01*
X96702797Y-75255001D01*
X96702795Y-75255000D01*
X96600010Y-75244500D01*
X94999998Y-75244500D01*
X94999981Y-75244501D01*
X94897203Y-75255000D01*
X94897200Y-75255001D01*
X94730668Y-75310185D01*
X94730663Y-75310187D01*
X94581342Y-75402289D01*
X94457289Y-75526342D01*
X94365187Y-75675663D01*
X94365185Y-75675668D01*
X94337497Y-75759225D01*
X94310001Y-75842203D01*
X94310001Y-75842204D01*
X94310000Y-75842204D01*
X94299500Y-75944983D01*
X94299500Y-76815001D01*
X94299501Y-76815019D01*
X94310000Y-76917796D01*
X94310001Y-76917799D01*
X94365185Y-77084331D01*
X94365187Y-77084336D01*
X94384216Y-77115187D01*
X94457288Y-77233656D01*
X94581344Y-77357712D01*
X94730666Y-77449814D01*
X94897203Y-77504999D01*
X94999991Y-77515500D01*
X95893480Y-77515499D01*
X95922926Y-77524145D01*
X95952907Y-77530667D01*
X95957920Y-77534419D01*
X95960519Y-77535183D01*
X95981161Y-77551818D01*
X96002162Y-77572819D01*
X96035647Y-77634142D01*
X96030663Y-77703834D01*
X95988791Y-77759767D01*
X95923327Y-77784184D01*
X95914481Y-77784500D01*
X94999998Y-77784500D01*
X94999981Y-77784501D01*
X94897203Y-77795000D01*
X94897200Y-77795001D01*
X94730668Y-77850185D01*
X94730663Y-77850187D01*
X94581342Y-77942289D01*
X94457289Y-78066342D01*
X94365187Y-78215663D01*
X94365185Y-78215668D01*
X94350119Y-78261136D01*
X94310001Y-78382203D01*
X94310001Y-78382204D01*
X94310000Y-78382204D01*
X94299500Y-78484983D01*
X94299500Y-79355001D01*
X94299501Y-79355019D01*
X94310000Y-79457796D01*
X94310001Y-79457799D01*
X94365185Y-79624331D01*
X94365187Y-79624336D01*
X94400069Y-79680888D01*
X94457288Y-79773656D01*
X94581344Y-79897712D01*
X94730666Y-79989814D01*
X94897203Y-80044999D01*
X94999991Y-80055500D01*
X96017152Y-80055499D01*
X96047622Y-80064445D01*
X96078514Y-80071746D01*
X96080897Y-80074215D01*
X96084191Y-80075183D01*
X96104980Y-80099175D01*
X96127029Y-80122026D01*
X96128572Y-80126402D01*
X96129946Y-80127987D01*
X96138770Y-80155310D01*
X96142947Y-80176311D01*
X96136718Y-80245902D01*
X96093854Y-80301079D01*
X96027964Y-80324322D01*
X96021329Y-80324500D01*
X94999998Y-80324500D01*
X94999981Y-80324501D01*
X94897203Y-80335000D01*
X94897200Y-80335001D01*
X94730668Y-80390185D01*
X94730663Y-80390187D01*
X94581342Y-80482289D01*
X94457289Y-80606342D01*
X94365187Y-80755663D01*
X94365186Y-80755666D01*
X94310001Y-80922203D01*
X94310001Y-80922204D01*
X94310000Y-80922204D01*
X94299500Y-81024983D01*
X94299500Y-81895001D01*
X94299501Y-81895019D01*
X94310000Y-81997796D01*
X94310001Y-81997799D01*
X94335461Y-82074630D01*
X94365186Y-82164334D01*
X94457288Y-82313656D01*
X94581344Y-82437712D01*
X94730666Y-82529814D01*
X94897203Y-82584999D01*
X94999991Y-82595500D01*
X95893480Y-82595499D01*
X95922926Y-82604145D01*
X95952907Y-82610667D01*
X95957920Y-82614419D01*
X95960519Y-82615183D01*
X95981161Y-82631818D01*
X96002162Y-82652819D01*
X96035647Y-82714142D01*
X96030663Y-82783834D01*
X95988791Y-82839767D01*
X95923327Y-82864184D01*
X95914481Y-82864500D01*
X94999998Y-82864500D01*
X94999981Y-82864501D01*
X94897203Y-82875000D01*
X94897200Y-82875001D01*
X94730668Y-82930185D01*
X94730663Y-82930187D01*
X94581342Y-83022289D01*
X94457289Y-83146342D01*
X94365187Y-83295663D01*
X94365186Y-83295666D01*
X94310001Y-83462203D01*
X94310001Y-83462204D01*
X94310000Y-83462204D01*
X94299500Y-83564983D01*
X94299500Y-84435001D01*
X94299501Y-84435019D01*
X94310000Y-84537796D01*
X94310001Y-84537799D01*
X94365185Y-84704331D01*
X94365187Y-84704336D01*
X94369183Y-84710814D01*
X94457288Y-84853656D01*
X94581344Y-84977712D01*
X94730666Y-85069814D01*
X94897203Y-85124999D01*
X94999991Y-85135500D01*
X95187500Y-85135499D01*
X95254539Y-85155183D01*
X95300294Y-85207987D01*
X95311500Y-85259499D01*
X95311500Y-86291006D01*
X95311500Y-86428994D01*
X95311500Y-86428996D01*
X95311499Y-86428996D01*
X95338418Y-86564322D01*
X95338421Y-86564332D01*
X95391222Y-86691807D01*
X95467887Y-86806545D01*
X95467888Y-86806546D01*
X95855928Y-87194585D01*
X95882808Y-87234814D01*
X95942602Y-87379172D01*
X95942609Y-87379185D01*
X96030210Y-87510288D01*
X96030213Y-87510292D01*
X96141707Y-87621786D01*
X96141711Y-87621789D01*
X96272814Y-87709390D01*
X96272827Y-87709397D01*
X96418498Y-87769735D01*
X96418503Y-87769737D01*
X96573153Y-87800499D01*
X96573156Y-87800500D01*
X96573158Y-87800500D01*
X96730844Y-87800500D01*
X96730845Y-87800499D01*
X96885497Y-87769737D01*
X97031179Y-87709394D01*
X97159820Y-87623438D01*
X97226496Y-87602561D01*
X97267714Y-87608835D01*
X97270663Y-87609812D01*
X97270666Y-87609814D01*
X97437203Y-87664999D01*
X97539991Y-87675500D01*
X99140008Y-87675499D01*
X99242797Y-87664999D01*
X99409334Y-87609814D01*
X99558656Y-87517712D01*
X99682712Y-87393656D01*
X99774814Y-87244334D01*
X99829999Y-87077797D01*
X99840500Y-86975009D01*
X99840499Y-86104992D01*
X99831689Y-86018748D01*
X99844459Y-85950056D01*
X99892339Y-85899172D01*
X99930856Y-85884530D01*
X99961898Y-85878355D01*
X100055497Y-85859737D01*
X100201179Y-85799394D01*
X100332289Y-85711789D01*
X100443789Y-85600289D01*
X100531394Y-85469179D01*
X100591737Y-85323497D01*
X100622500Y-85168842D01*
X100622500Y-85011158D01*
X100622500Y-85011155D01*
X100622499Y-85011153D01*
X100591738Y-84856510D01*
X100591737Y-84856503D01*
X100584192Y-84838288D01*
X100531397Y-84710827D01*
X100531390Y-84710814D01*
X100443789Y-84579711D01*
X100443786Y-84579707D01*
X100332292Y-84468213D01*
X100332288Y-84468210D01*
X100201185Y-84380609D01*
X100201172Y-84380602D01*
X100145703Y-84357627D01*
X100055501Y-84320264D01*
X100055489Y-84320261D01*
X99900845Y-84289500D01*
X99900842Y-84289500D01*
X99743158Y-84289500D01*
X99743155Y-84289500D01*
X99588510Y-84320261D01*
X99588498Y-84320264D01*
X99444136Y-84380061D01*
X99396684Y-84389500D01*
X98483005Y-84389500D01*
X98424885Y-84401061D01*
X98395824Y-84406842D01*
X98357248Y-84414515D01*
X98347670Y-84416420D01*
X98220190Y-84469224D01*
X98105454Y-84545887D01*
X98105453Y-84545888D01*
X97886691Y-84764652D01*
X97851457Y-84799886D01*
X97797687Y-84853656D01*
X97753886Y-84897457D01*
X97677222Y-85012192D01*
X97624421Y-85139667D01*
X97624418Y-85139677D01*
X97597500Y-85275003D01*
X97597500Y-85286647D01*
X97577815Y-85353686D01*
X97525011Y-85399441D01*
X97486103Y-85410005D01*
X97437202Y-85415001D01*
X97437200Y-85415001D01*
X97270668Y-85470185D01*
X97270663Y-85470187D01*
X97121342Y-85562289D01*
X96997289Y-85686342D01*
X96981595Y-85711786D01*
X96945352Y-85770547D01*
X96942039Y-85775918D01*
X96890091Y-85822642D01*
X96821128Y-85833865D01*
X96757046Y-85806021D01*
X96718190Y-85747953D01*
X96712500Y-85710821D01*
X96712500Y-85211324D01*
X96732185Y-85144285D01*
X96784989Y-85098530D01*
X96797488Y-85093620D01*
X96869334Y-85069814D01*
X97018656Y-84977712D01*
X97142712Y-84853656D01*
X97234814Y-84704334D01*
X97289999Y-84537797D01*
X97300500Y-84435009D01*
X97300500Y-84249153D01*
X129247500Y-84249153D01*
X129247500Y-84406843D01*
X129278261Y-84561489D01*
X129278264Y-84561501D01*
X129338602Y-84707172D01*
X129338609Y-84707185D01*
X129426210Y-84838288D01*
X129426213Y-84838292D01*
X129537707Y-84949786D01*
X129537711Y-84949789D01*
X129668814Y-85037390D01*
X129668827Y-85037397D01*
X129813187Y-85097192D01*
X129853416Y-85124072D01*
X130286199Y-85556855D01*
X130319684Y-85618178D01*
X130314700Y-85687870D01*
X130304059Y-85709627D01*
X130269378Y-85765854D01*
X130226320Y-85835663D01*
X130226318Y-85835668D01*
X130218342Y-85859738D01*
X130171134Y-86002203D01*
X130171134Y-86002204D01*
X130171133Y-86002204D01*
X130160633Y-86104983D01*
X130160633Y-86975001D01*
X130160634Y-86975019D01*
X130171133Y-87077796D01*
X130171134Y-87077799D01*
X130176006Y-87092501D01*
X130226319Y-87244334D01*
X130318421Y-87393656D01*
X130442477Y-87517712D01*
X130591799Y-87609814D01*
X130758336Y-87664999D01*
X130861124Y-87675500D01*
X132461141Y-87675499D01*
X132563930Y-87664999D01*
X132730467Y-87609814D01*
X132866038Y-87526193D01*
X132933429Y-87507754D01*
X132996227Y-87526193D01*
X133131799Y-87609814D01*
X133298336Y-87664999D01*
X133401124Y-87675500D01*
X135001141Y-87675499D01*
X135103930Y-87664999D01*
X135270467Y-87609814D01*
X135419789Y-87517712D01*
X135543845Y-87393656D01*
X135635947Y-87244334D01*
X135691132Y-87077797D01*
X135701633Y-86975009D01*
X135701632Y-86104992D01*
X135698041Y-86069843D01*
X135691132Y-86002203D01*
X135691131Y-86002200D01*
X135635947Y-85835666D01*
X135543845Y-85686344D01*
X135419789Y-85562288D01*
X135270467Y-85470186D01*
X135103930Y-85415001D01*
X135103928Y-85415000D01*
X135001149Y-85404500D01*
X135001142Y-85404500D01*
X134996361Y-85404500D01*
X134973254Y-85397715D01*
X134949295Y-85395221D01*
X134940332Y-85388048D01*
X134929322Y-85384815D01*
X134913551Y-85366614D01*
X134894744Y-85351563D01*
X134889150Y-85338455D01*
X134883567Y-85332011D01*
X134878839Y-85320056D01*
X134876297Y-85312505D01*
X134874713Y-85304539D01*
X134870483Y-85294328D01*
X134821908Y-85177056D01*
X134745247Y-85062324D01*
X134745245Y-85062321D01*
X134482812Y-84799888D01*
X134368073Y-84723222D01*
X134240598Y-84670421D01*
X134240588Y-84670418D01*
X134105262Y-84643500D01*
X134105260Y-84643500D01*
X134105259Y-84643500D01*
X132937690Y-84643500D01*
X132870651Y-84623815D01*
X132834588Y-84588390D01*
X132828789Y-84579711D01*
X132828788Y-84579710D01*
X132828786Y-84579707D01*
X132717292Y-84468213D01*
X132717288Y-84468210D01*
X132586185Y-84380609D01*
X132586172Y-84380602D01*
X132440501Y-84320264D01*
X132440489Y-84320261D01*
X132285845Y-84289500D01*
X132285842Y-84289500D01*
X132128158Y-84289500D01*
X132128155Y-84289500D01*
X131973510Y-84320261D01*
X131973498Y-84320264D01*
X131827827Y-84380602D01*
X131827814Y-84380609D01*
X131696711Y-84468210D01*
X131696707Y-84468213D01*
X131585213Y-84579707D01*
X131585210Y-84579711D01*
X131551056Y-84630827D01*
X131497444Y-84675632D01*
X131428119Y-84684339D01*
X131365091Y-84654185D01*
X131360273Y-84649617D01*
X130844072Y-84133416D01*
X130817192Y-84093187D01*
X130757397Y-83948827D01*
X130757390Y-83948814D01*
X130669789Y-83817711D01*
X130669786Y-83817707D01*
X130558292Y-83706213D01*
X130558288Y-83706210D01*
X130427185Y-83618609D01*
X130427172Y-83618602D01*
X130281501Y-83558264D01*
X130281489Y-83558261D01*
X130126845Y-83527500D01*
X130126842Y-83527500D01*
X129969158Y-83527500D01*
X129969155Y-83527500D01*
X129814510Y-83558261D01*
X129814498Y-83558264D01*
X129668827Y-83618602D01*
X129668814Y-83618609D01*
X129537711Y-83706210D01*
X129537707Y-83706213D01*
X129426213Y-83817707D01*
X129426210Y-83817711D01*
X129338609Y-83948814D01*
X129338602Y-83948827D01*
X129278264Y-84094498D01*
X129278261Y-84094510D01*
X129247500Y-84249153D01*
X97300500Y-84249153D01*
X97300499Y-83628499D01*
X97320183Y-83561461D01*
X97372987Y-83515706D01*
X97424499Y-83504500D01*
X99509996Y-83504500D01*
X99601040Y-83486389D01*
X99645328Y-83477580D01*
X99731999Y-83441680D01*
X99772807Y-83424777D01*
X99772808Y-83424776D01*
X99772811Y-83424775D01*
X99887543Y-83348114D01*
X100493113Y-82742543D01*
X100498149Y-82735007D01*
X100569775Y-82627811D01*
X100610367Y-82529814D01*
X100622580Y-82500329D01*
X100628177Y-82472189D01*
X100649500Y-82364993D01*
X100649500Y-80476519D01*
X100669185Y-80409480D01*
X100721989Y-80363725D01*
X100791147Y-80353781D01*
X100854703Y-80382806D01*
X100861181Y-80388838D01*
X101788453Y-81316111D01*
X101788454Y-81316112D01*
X101903192Y-81392777D01*
X102017106Y-81439961D01*
X102030672Y-81445580D01*
X102030676Y-81445580D01*
X102030677Y-81445581D01*
X102166003Y-81472500D01*
X102166006Y-81472500D01*
X102166007Y-81472500D01*
X134397310Y-81472500D01*
X134464349Y-81492185D01*
X134500411Y-81527609D01*
X134501714Y-81529558D01*
X134506213Y-81536292D01*
X134617707Y-81647786D01*
X134617711Y-81647789D01*
X134748814Y-81735390D01*
X134748827Y-81735397D01*
X134894498Y-81795735D01*
X134894503Y-81795737D01*
X135049153Y-81826499D01*
X135049156Y-81826500D01*
X135049158Y-81826500D01*
X135206844Y-81826500D01*
X135206845Y-81826499D01*
X135361497Y-81795737D01*
X135507179Y-81735394D01*
X135638289Y-81647789D01*
X135749789Y-81536289D01*
X135778398Y-81493473D01*
X135832010Y-81448668D01*
X135901335Y-81439961D01*
X135964362Y-81470115D01*
X136001082Y-81529558D01*
X136005500Y-81562364D01*
X136005500Y-82511696D01*
X136040103Y-82685659D01*
X136040104Y-82685663D01*
X136040105Y-82685666D01*
X136063665Y-82742543D01*
X136107987Y-82849547D01*
X136131979Y-82885453D01*
X136161869Y-82930187D01*
X136206537Y-82997038D01*
X137220960Y-84011461D01*
X137220964Y-84011464D01*
X137368446Y-84110009D01*
X137368455Y-84110014D01*
X137405579Y-84125391D01*
X137532334Y-84177895D01*
X137706303Y-84212499D01*
X137706307Y-84212500D01*
X137706308Y-84212500D01*
X139026693Y-84212500D01*
X139026694Y-84212499D01*
X139084682Y-84200964D01*
X139200658Y-84177896D01*
X139200661Y-84177894D01*
X139200666Y-84177894D01*
X139340535Y-84119958D01*
X139364540Y-84110016D01*
X139364540Y-84110015D01*
X139364547Y-84110013D01*
X139512035Y-84011464D01*
X139637464Y-83886035D01*
X139736013Y-83738547D01*
X139803894Y-83574666D01*
X139804271Y-83572775D01*
X139838499Y-83400695D01*
X139838500Y-83400693D01*
X139838500Y-83223306D01*
X139838499Y-83223304D01*
X139803896Y-83049341D01*
X139803893Y-83049332D01*
X139736016Y-82885459D01*
X139736009Y-82885446D01*
X139637464Y-82737965D01*
X139637461Y-82737961D01*
X139512038Y-82612538D01*
X139512034Y-82612535D01*
X139364553Y-82513990D01*
X139364540Y-82513983D01*
X139200667Y-82446106D01*
X139200658Y-82446103D01*
X139026694Y-82411500D01*
X139026691Y-82411500D01*
X138219362Y-82411500D01*
X138152323Y-82391815D01*
X138131681Y-82375181D01*
X137842819Y-82086319D01*
X137809334Y-82024996D01*
X137806500Y-81998638D01*
X137806500Y-80354333D01*
X138881501Y-80354333D01*
X138881501Y-80629668D01*
X138881502Y-80629685D01*
X138917439Y-80902656D01*
X138917440Y-80902661D01*
X138917441Y-80902667D01*
X138950215Y-81024983D01*
X138988705Y-81168631D01*
X139094076Y-81423018D01*
X139094081Y-81423029D01*
X139173810Y-81561122D01*
X139231752Y-81661480D01*
X139231754Y-81661483D01*
X139231755Y-81661484D01*
X139399371Y-81879927D01*
X139399377Y-81879934D01*
X139594067Y-82074624D01*
X139594073Y-82074629D01*
X139812522Y-82242250D01*
X139965779Y-82330733D01*
X140050972Y-82379920D01*
X140050977Y-82379922D01*
X140050980Y-82379924D01*
X140305369Y-82485296D01*
X140571335Y-82556561D01*
X140844327Y-82592501D01*
X140844334Y-82592501D01*
X141119668Y-82592501D01*
X141119675Y-82592501D01*
X141392667Y-82556561D01*
X141658633Y-82485296D01*
X141913022Y-82379924D01*
X142151480Y-82242250D01*
X142369929Y-82074629D01*
X142564629Y-81879929D01*
X142732250Y-81661480D01*
X142869924Y-81423022D01*
X142975296Y-81168633D01*
X143046561Y-80902667D01*
X143082501Y-80629675D01*
X143082501Y-80354327D01*
X143046561Y-80081335D01*
X142975296Y-79815369D01*
X142869924Y-79560980D01*
X142869922Y-79560977D01*
X142869920Y-79560972D01*
X142810351Y-79457797D01*
X142732250Y-79322522D01*
X142564629Y-79104073D01*
X142564624Y-79104067D01*
X142369934Y-78909377D01*
X142369927Y-78909371D01*
X142151484Y-78741755D01*
X142151483Y-78741754D01*
X142151480Y-78741752D01*
X142056408Y-78686862D01*
X141913029Y-78604081D01*
X141913018Y-78604076D01*
X141658631Y-78498705D01*
X141525650Y-78463073D01*
X141392667Y-78427441D01*
X141392661Y-78427440D01*
X141392656Y-78427439D01*
X141119685Y-78391502D01*
X141119680Y-78391501D01*
X141119675Y-78391501D01*
X140844327Y-78391501D01*
X140844321Y-78391501D01*
X140844316Y-78391502D01*
X140571345Y-78427439D01*
X140571338Y-78427440D01*
X140571335Y-78427441D01*
X140515126Y-78442501D01*
X140305370Y-78498705D01*
X140050983Y-78604076D01*
X140050972Y-78604081D01*
X139812517Y-78741755D01*
X139594074Y-78909371D01*
X139594067Y-78909377D01*
X139399377Y-79104067D01*
X139399371Y-79104074D01*
X139231755Y-79322517D01*
X139094081Y-79560972D01*
X139094076Y-79560983D01*
X138988705Y-79815370D01*
X138966642Y-79897712D01*
X138919090Y-80075183D01*
X138917442Y-80081332D01*
X138917439Y-80081345D01*
X138881502Y-80354316D01*
X138881501Y-80354333D01*
X137806500Y-80354333D01*
X137806500Y-44354333D01*
X138881501Y-44354333D01*
X138881501Y-44629668D01*
X138881502Y-44629685D01*
X138917439Y-44902656D01*
X138917440Y-44902661D01*
X138917441Y-44902667D01*
X138922699Y-44922289D01*
X138988705Y-45168631D01*
X139094076Y-45423018D01*
X139094081Y-45423029D01*
X139173810Y-45561122D01*
X139231752Y-45661480D01*
X139231754Y-45661483D01*
X139231755Y-45661484D01*
X139399371Y-45879927D01*
X139399377Y-45879934D01*
X139594067Y-46074624D01*
X139594073Y-46074629D01*
X139812522Y-46242250D01*
X139965779Y-46330733D01*
X140050972Y-46379920D01*
X140050977Y-46379922D01*
X140050980Y-46379924D01*
X140305369Y-46485296D01*
X140571335Y-46556561D01*
X140844327Y-46592501D01*
X140844334Y-46592501D01*
X141119668Y-46592501D01*
X141119675Y-46592501D01*
X141392667Y-46556561D01*
X141658633Y-46485296D01*
X141913022Y-46379924D01*
X142151480Y-46242250D01*
X142369929Y-46074629D01*
X142564629Y-45879929D01*
X142732250Y-45661480D01*
X142869924Y-45423022D01*
X142975296Y-45168633D01*
X143046561Y-44902667D01*
X143082501Y-44629675D01*
X143082501Y-44354327D01*
X143046561Y-44081335D01*
X142975296Y-43815369D01*
X142869924Y-43560980D01*
X142869922Y-43560977D01*
X142869920Y-43560972D01*
X142820733Y-43475779D01*
X142732250Y-43322522D01*
X142564629Y-43104073D01*
X142564624Y-43104067D01*
X142369934Y-42909377D01*
X142369927Y-42909371D01*
X142151484Y-42741755D01*
X142151483Y-42741754D01*
X142151480Y-42741752D01*
X142056408Y-42686862D01*
X141913029Y-42604081D01*
X141913018Y-42604076D01*
X141658631Y-42498705D01*
X141525650Y-42463073D01*
X141392667Y-42427441D01*
X141392661Y-42427440D01*
X141392656Y-42427439D01*
X141119685Y-42391502D01*
X141119680Y-42391501D01*
X141119675Y-42391501D01*
X140844327Y-42391501D01*
X140844321Y-42391501D01*
X140844316Y-42391502D01*
X140571345Y-42427439D01*
X140571338Y-42427440D01*
X140571335Y-42427441D01*
X140548230Y-42433632D01*
X140305370Y-42498705D01*
X140050983Y-42604076D01*
X140050972Y-42604081D01*
X139812517Y-42741755D01*
X139594074Y-42909371D01*
X139594067Y-42909377D01*
X139399377Y-43104067D01*
X139399371Y-43104074D01*
X139231755Y-43322517D01*
X139094081Y-43560972D01*
X139094076Y-43560983D01*
X138988705Y-43815370D01*
X138966619Y-43897799D01*
X138921997Y-44064334D01*
X138917442Y-44081332D01*
X138917439Y-44081345D01*
X138881502Y-44354316D01*
X138881501Y-44354333D01*
X137806500Y-44354333D01*
X137806500Y-36995306D01*
X137806499Y-36995304D01*
X137771896Y-36821341D01*
X137771893Y-36821332D01*
X137704016Y-36657459D01*
X137704009Y-36657446D01*
X137605465Y-36509966D01*
X137563807Y-36468308D01*
X137480035Y-36384536D01*
X137373296Y-36277797D01*
X136972041Y-35876540D01*
X136972038Y-35876537D01*
X136885689Y-35818841D01*
X136824544Y-35777985D01*
X136824542Y-35777984D01*
X136742607Y-35744046D01*
X136742606Y-35744046D01*
X136660666Y-35710105D01*
X136660658Y-35710103D01*
X136486696Y-35675500D01*
X136486692Y-35675500D01*
X136486691Y-35675500D01*
X135825632Y-35675500D01*
X135758593Y-35655815D01*
X135712838Y-35603011D01*
X135701632Y-35551500D01*
X135701632Y-35304998D01*
X135701631Y-35304981D01*
X135691132Y-35202203D01*
X135691131Y-35202200D01*
X135668350Y-35133453D01*
X135635947Y-35035666D01*
X135543845Y-34886344D01*
X135419789Y-34762288D01*
X135270467Y-34670186D01*
X135103930Y-34615001D01*
X135103928Y-34615000D01*
X135001143Y-34604500D01*
X133401131Y-34604500D01*
X133401114Y-34604501D01*
X133298336Y-34615000D01*
X133298333Y-34615001D01*
X133131801Y-34670185D01*
X133131792Y-34670189D01*
X132996229Y-34753805D01*
X132928837Y-34772245D01*
X132866037Y-34753805D01*
X132730473Y-34670189D01*
X132730468Y-34670187D01*
X132730467Y-34670186D01*
X132563930Y-34615001D01*
X132563928Y-34615000D01*
X132461143Y-34604500D01*
X130861131Y-34604500D01*
X130861114Y-34604501D01*
X130758336Y-34615000D01*
X130758333Y-34615001D01*
X130591801Y-34670185D01*
X130591796Y-34670187D01*
X130442475Y-34762289D01*
X130401584Y-34803181D01*
X130340261Y-34836666D01*
X130313903Y-34839500D01*
X126223306Y-34839500D01*
X126049341Y-34874103D01*
X126049332Y-34874106D01*
X125885459Y-34941983D01*
X125885446Y-34941990D01*
X125737966Y-35040534D01*
X125737964Y-35040537D01*
X124250319Y-36528181D01*
X124188996Y-36561666D01*
X124162638Y-36564500D01*
X119918041Y-36564500D01*
X119851002Y-36544815D01*
X119805247Y-36492011D01*
X119795303Y-36422853D01*
X119796424Y-36416308D01*
X119799500Y-36400844D01*
X119799500Y-36243155D01*
X119799499Y-36243153D01*
X119768738Y-36088510D01*
X119768737Y-36088503D01*
X119730959Y-35997300D01*
X119723491Y-35927833D01*
X119754766Y-35865353D01*
X119782400Y-35843117D01*
X119844654Y-35806300D01*
X119962433Y-35688521D01*
X120047222Y-35545151D01*
X120093692Y-35385199D01*
X120096633Y-35347830D01*
X120096633Y-33532170D01*
X120093692Y-33494801D01*
X120047222Y-33334849D01*
X119962433Y-33191479D01*
X119962431Y-33191477D01*
X119962428Y-33191473D01*
X119844659Y-33073704D01*
X119844650Y-33073697D01*
X119757448Y-33022126D01*
X119701284Y-32988911D01*
X119541332Y-32942441D01*
X119541329Y-32942440D01*
X119541327Y-32942440D01*
X119503970Y-32939500D01*
X119503963Y-32939500D01*
X118418303Y-32939500D01*
X118418295Y-32939500D01*
X118380940Y-32942440D01*
X118380937Y-32942440D01*
X118380934Y-32942441D01*
X118220982Y-32988911D01*
X118220980Y-32988911D01*
X118220980Y-32988912D01*
X118077615Y-33073697D01*
X118077606Y-33073704D01*
X117959837Y-33191473D01*
X117959830Y-33191482D01*
X117895548Y-33300178D01*
X117875044Y-33334849D01*
X117861782Y-33380497D01*
X117828573Y-33494804D01*
X117828573Y-33494807D01*
X117825633Y-33532162D01*
X117825633Y-35347837D01*
X117828573Y-35385192D01*
X117828573Y-35385195D01*
X117828573Y-35385198D01*
X117828574Y-35385199D01*
X117875044Y-35545151D01*
X117875045Y-35545152D01*
X117959830Y-35688517D01*
X117959837Y-35688526D01*
X118077606Y-35806295D01*
X118077610Y-35806298D01*
X118077612Y-35806300D01*
X118077615Y-35806301D01*
X118077618Y-35806304D01*
X118098819Y-35818842D01*
X118200697Y-35879093D01*
X118248381Y-35930160D01*
X118260885Y-35998902D01*
X118252138Y-36033276D01*
X118229264Y-36088498D01*
X118229261Y-36088510D01*
X118198500Y-36243153D01*
X118198500Y-36243158D01*
X118198500Y-36400842D01*
X118198500Y-36400844D01*
X118198499Y-36400844D01*
X118201576Y-36416308D01*
X118195349Y-36485900D01*
X118152486Y-36541077D01*
X118086597Y-36564322D01*
X118079959Y-36564500D01*
X117332642Y-36564500D01*
X117265603Y-36544815D01*
X117219848Y-36492011D01*
X117209904Y-36422853D01*
X117211025Y-36416309D01*
X117221632Y-36362979D01*
X117221633Y-36362977D01*
X117221633Y-36205288D01*
X117221632Y-36205286D01*
X117215609Y-36175008D01*
X117190870Y-36050636D01*
X117173142Y-36007838D01*
X117165673Y-35938371D01*
X117196947Y-35875891D01*
X117224579Y-35853656D01*
X117304654Y-35806300D01*
X117422433Y-35688521D01*
X117507222Y-35545151D01*
X117553692Y-35385199D01*
X117556633Y-35347830D01*
X117556633Y-33532170D01*
X117553692Y-33494801D01*
X117507222Y-33334849D01*
X117422433Y-33191479D01*
X117422431Y-33191477D01*
X117422428Y-33191473D01*
X117304659Y-33073704D01*
X117304650Y-33073697D01*
X117217448Y-33022126D01*
X117161284Y-32988911D01*
X117001332Y-32942441D01*
X117001329Y-32942440D01*
X117001327Y-32942440D01*
X116963970Y-32939500D01*
X116963963Y-32939500D01*
X115878303Y-32939500D01*
X115878295Y-32939500D01*
X115840940Y-32942440D01*
X115840937Y-32942440D01*
X115840934Y-32942441D01*
X115680982Y-32988911D01*
X115680980Y-32988911D01*
X115680980Y-32988912D01*
X115537615Y-33073697D01*
X115537606Y-33073704D01*
X115419837Y-33191473D01*
X115419830Y-33191482D01*
X115355548Y-33300178D01*
X115335044Y-33334849D01*
X115321782Y-33380497D01*
X115288573Y-33494804D01*
X115288573Y-33494807D01*
X115285633Y-33532162D01*
X115285633Y-35347837D01*
X115288573Y-35385192D01*
X115288573Y-35385195D01*
X115288573Y-35385198D01*
X115288574Y-35385199D01*
X115335044Y-35545151D01*
X115335045Y-35545152D01*
X115419830Y-35688517D01*
X115419837Y-35688526D01*
X115537606Y-35806295D01*
X115537615Y-35806302D01*
X115617683Y-35853654D01*
X115665367Y-35904723D01*
X115677870Y-35973465D01*
X115669123Y-36007838D01*
X115651397Y-36050631D01*
X115651394Y-36050643D01*
X115620633Y-36205286D01*
X115620633Y-36362979D01*
X115631241Y-36416309D01*
X115625014Y-36485901D01*
X115582151Y-36541078D01*
X115516261Y-36564322D01*
X115509624Y-36564500D01*
X105326361Y-36564500D01*
X105259322Y-36544815D01*
X105238680Y-36528181D01*
X103660788Y-34950289D01*
X102047036Y-33336536D01*
X102047035Y-33336535D01*
X102047030Y-33336531D01*
X101992622Y-33300178D01*
X101992616Y-33300175D01*
X101987959Y-33297063D01*
X101899547Y-33237987D01*
X101817606Y-33204046D01*
X101735666Y-33170105D01*
X101735658Y-33170103D01*
X101561696Y-33135500D01*
X101561692Y-33135500D01*
X101561691Y-33135500D01*
X98827853Y-33135500D01*
X98760814Y-33115815D01*
X98719515Y-33068153D01*
X103339500Y-33068153D01*
X103339500Y-33225846D01*
X103370261Y-33380489D01*
X103370264Y-33380501D01*
X103430602Y-33526172D01*
X103430609Y-33526185D01*
X103518210Y-33657288D01*
X103518213Y-33657292D01*
X104811211Y-34950289D01*
X104869911Y-35008989D01*
X104922712Y-35061790D01*
X105053817Y-35149392D01*
X105059187Y-35152262D01*
X105057945Y-35154585D01*
X105103457Y-35191226D01*
X105125552Y-35257510D01*
X105125633Y-35261993D01*
X105125633Y-35347837D01*
X105128573Y-35385192D01*
X105128573Y-35385195D01*
X105128573Y-35385198D01*
X105128574Y-35385199D01*
X105175044Y-35545151D01*
X105175045Y-35545152D01*
X105259830Y-35688517D01*
X105259837Y-35688526D01*
X105377606Y-35806295D01*
X105377615Y-35806302D01*
X105398819Y-35818842D01*
X105520982Y-35891089D01*
X105680934Y-35937559D01*
X105718303Y-35940500D01*
X105718311Y-35940500D01*
X106803955Y-35940500D01*
X106803963Y-35940500D01*
X106841332Y-35937559D01*
X107001284Y-35891089D01*
X107144654Y-35806300D01*
X107262433Y-35688521D01*
X107347222Y-35545151D01*
X107393692Y-35385199D01*
X107396633Y-35347830D01*
X107396633Y-33532170D01*
X107393692Y-33494801D01*
X107347222Y-33334849D01*
X107282755Y-33225842D01*
X107264606Y-33195153D01*
X109689500Y-33195153D01*
X109689500Y-33352846D01*
X109720261Y-33507489D01*
X109720264Y-33507501D01*
X109780606Y-33653179D01*
X109783477Y-33658551D01*
X109782216Y-33659224D01*
X109796754Y-33694335D01*
X109816418Y-33793191D01*
X109816420Y-33793197D01*
X109869222Y-33920674D01*
X109945887Y-34035412D01*
X109945888Y-34035413D01*
X110169314Y-34258838D01*
X110202799Y-34320161D01*
X110205633Y-34346519D01*
X110205633Y-35347837D01*
X110208573Y-35385192D01*
X110208573Y-35385195D01*
X110208573Y-35385198D01*
X110208574Y-35385199D01*
X110255044Y-35545151D01*
X110255045Y-35545152D01*
X110339830Y-35688517D01*
X110339837Y-35688526D01*
X110457606Y-35806295D01*
X110457615Y-35806302D01*
X110478819Y-35818842D01*
X110600982Y-35891089D01*
X110760934Y-35937559D01*
X110798303Y-35940500D01*
X110798311Y-35940500D01*
X111883955Y-35940500D01*
X111883963Y-35940500D01*
X111921332Y-35937559D01*
X112081284Y-35891089D01*
X112224654Y-35806300D01*
X112342433Y-35688521D01*
X112427222Y-35545151D01*
X112473692Y-35385199D01*
X112476633Y-35347830D01*
X112476633Y-34325519D01*
X112482871Y-34304273D01*
X112484451Y-34282185D01*
X112492523Y-34271401D01*
X112496318Y-34258480D01*
X112513051Y-34243980D01*
X112526323Y-34226252D01*
X112538943Y-34221544D01*
X112549122Y-34212725D01*
X112571039Y-34209573D01*
X112591787Y-34201835D01*
X112604947Y-34204697D01*
X112618280Y-34202781D01*
X112638423Y-34211980D01*
X112660060Y-34216687D01*
X112677785Y-34229955D01*
X112681836Y-34231806D01*
X112688314Y-34237838D01*
X112709314Y-34258838D01*
X112742799Y-34320161D01*
X112745633Y-34346519D01*
X112745633Y-35347837D01*
X112748573Y-35385192D01*
X112748573Y-35385195D01*
X112748573Y-35385198D01*
X112748574Y-35385199D01*
X112795044Y-35545151D01*
X112795045Y-35545152D01*
X112879830Y-35688517D01*
X112879837Y-35688526D01*
X112997606Y-35806295D01*
X112997615Y-35806302D01*
X113018819Y-35818842D01*
X113140982Y-35891089D01*
X113300934Y-35937559D01*
X113338303Y-35940500D01*
X113338311Y-35940500D01*
X114423955Y-35940500D01*
X114423963Y-35940500D01*
X114461332Y-35937559D01*
X114621284Y-35891089D01*
X114764654Y-35806300D01*
X114882433Y-35688521D01*
X114967222Y-35545151D01*
X115013692Y-35385199D01*
X115016633Y-35347830D01*
X115016633Y-33532170D01*
X115013692Y-33494801D01*
X114967222Y-33334849D01*
X114882433Y-33191479D01*
X114882431Y-33191477D01*
X114882428Y-33191473D01*
X114764659Y-33073704D01*
X114764650Y-33073697D01*
X114677448Y-33022126D01*
X114621284Y-32988911D01*
X114461332Y-32942441D01*
X114461329Y-32942440D01*
X114461327Y-32942440D01*
X114423970Y-32939500D01*
X114423963Y-32939500D01*
X113835527Y-32939500D01*
X113768488Y-32919815D01*
X113732425Y-32884391D01*
X113651789Y-32763710D01*
X113540292Y-32652213D01*
X113540288Y-32652210D01*
X113409185Y-32564609D01*
X113409172Y-32564602D01*
X113263501Y-32504264D01*
X113263489Y-32504261D01*
X113108845Y-32473500D01*
X113108842Y-32473500D01*
X112951158Y-32473500D01*
X112951155Y-32473500D01*
X112796510Y-32504261D01*
X112796498Y-32504264D01*
X112650827Y-32564602D01*
X112650814Y-32564609D01*
X112519711Y-32652210D01*
X112519707Y-32652213D01*
X112408213Y-32763707D01*
X112408210Y-32763711D01*
X112320609Y-32894814D01*
X112320604Y-32894824D01*
X112296895Y-32952063D01*
X112253053Y-33006467D01*
X112186759Y-33028531D01*
X112119214Y-33011342D01*
X112081288Y-32988913D01*
X112081286Y-32988912D01*
X112081285Y-32988911D01*
X112081284Y-32988911D01*
X111921332Y-32942441D01*
X111921329Y-32942440D01*
X111921327Y-32942440D01*
X111883970Y-32939500D01*
X111883963Y-32939500D01*
X111295527Y-32939500D01*
X111228488Y-32919815D01*
X111192425Y-32884391D01*
X111111789Y-32763710D01*
X111000292Y-32652213D01*
X111000288Y-32652210D01*
X110869185Y-32564609D01*
X110869172Y-32564602D01*
X110723501Y-32504264D01*
X110723489Y-32504261D01*
X110568845Y-32473500D01*
X110568842Y-32473500D01*
X110411158Y-32473500D01*
X110411155Y-32473500D01*
X110256510Y-32504261D01*
X110256498Y-32504264D01*
X110110827Y-32564602D01*
X110110814Y-32564609D01*
X109979711Y-32652210D01*
X109979707Y-32652213D01*
X109868213Y-32763707D01*
X109868210Y-32763711D01*
X109780609Y-32894814D01*
X109780602Y-32894827D01*
X109720264Y-33040498D01*
X109720261Y-33040510D01*
X109689500Y-33195153D01*
X107264606Y-33195153D01*
X107262435Y-33191482D01*
X107262428Y-33191473D01*
X107144659Y-33073704D01*
X107144650Y-33073697D01*
X107057448Y-33022126D01*
X107001284Y-32988911D01*
X106841332Y-32942441D01*
X106841329Y-32942440D01*
X106841327Y-32942440D01*
X106803970Y-32939500D01*
X106803963Y-32939500D01*
X105718303Y-32939500D01*
X105718295Y-32939500D01*
X105680940Y-32942440D01*
X105680937Y-32942440D01*
X105680934Y-32942441D01*
X105520982Y-32988911D01*
X105520980Y-32988911D01*
X105520980Y-32988912D01*
X105377615Y-33073697D01*
X105377602Y-33073707D01*
X105375869Y-33075441D01*
X105374176Y-33076364D01*
X105371446Y-33078483D01*
X105371104Y-33078042D01*
X105314544Y-33108922D01*
X105244852Y-33103933D01*
X105200513Y-33075435D01*
X104650292Y-32525213D01*
X104650288Y-32525210D01*
X104519185Y-32437609D01*
X104519172Y-32437602D01*
X104373501Y-32377264D01*
X104373489Y-32377261D01*
X104218845Y-32346500D01*
X104218842Y-32346500D01*
X104061158Y-32346500D01*
X104061155Y-32346500D01*
X103906510Y-32377261D01*
X103906498Y-32377264D01*
X103760827Y-32437602D01*
X103760814Y-32437609D01*
X103629711Y-32525210D01*
X103629707Y-32525213D01*
X103518213Y-32636707D01*
X103518210Y-32636711D01*
X103430609Y-32767814D01*
X103430602Y-32767827D01*
X103370264Y-32913498D01*
X103370261Y-32913510D01*
X103339500Y-33068153D01*
X98719515Y-33068153D01*
X98715059Y-33063011D01*
X98705115Y-32993853D01*
X98734140Y-32930297D01*
X98765854Y-32904112D01*
X98771350Y-32900939D01*
X98979398Y-32741297D01*
X98979402Y-32741292D01*
X98979407Y-32741289D01*
X99164821Y-32555875D01*
X99164824Y-32555870D01*
X99164829Y-32555866D01*
X99324471Y-32347818D01*
X99455590Y-32120712D01*
X99555945Y-31878434D01*
X99623817Y-31625131D01*
X99658047Y-31365135D01*
X99658047Y-31114881D01*
X130464829Y-31114881D01*
X130464829Y-31377136D01*
X130487498Y-31549313D01*
X130499059Y-31637125D01*
X130563720Y-31878443D01*
X130566931Y-31890427D01*
X130566934Y-31890437D01*
X130667282Y-32132699D01*
X130667287Y-32132709D01*
X130798404Y-32359812D01*
X130958047Y-32567860D01*
X130958055Y-32567869D01*
X131143469Y-32753283D01*
X131143477Y-32753290D01*
X131143478Y-32753291D01*
X131157056Y-32763710D01*
X131351525Y-32912933D01*
X131578628Y-33044050D01*
X131578638Y-33044055D01*
X131820900Y-33144403D01*
X131820910Y-33144407D01*
X132074213Y-33212279D01*
X132334209Y-33246509D01*
X132334216Y-33246509D01*
X132596442Y-33246509D01*
X132596449Y-33246509D01*
X132856445Y-33212279D01*
X133109748Y-33144407D01*
X133352026Y-33044052D01*
X133579132Y-32912933D01*
X133787180Y-32753291D01*
X133787184Y-32753286D01*
X133787189Y-32753283D01*
X133972603Y-32567869D01*
X133972606Y-32567864D01*
X133972611Y-32567860D01*
X134132253Y-32359812D01*
X134263372Y-32132706D01*
X134363727Y-31890428D01*
X134431599Y-31637125D01*
X134465829Y-31377129D01*
X134465829Y-31114889D01*
X134431599Y-30854893D01*
X134363727Y-30601590D01*
X134286860Y-30416016D01*
X134263375Y-30359318D01*
X134263370Y-30359308D01*
X134132253Y-30132205D01*
X133972610Y-29924157D01*
X133972603Y-29924149D01*
X133787189Y-29738735D01*
X133787180Y-29738727D01*
X133579132Y-29579084D01*
X133352029Y-29447967D01*
X133352019Y-29447962D01*
X133109757Y-29347614D01*
X133109750Y-29347612D01*
X133109748Y-29347611D01*
X132856445Y-29279739D01*
X132798668Y-29272132D01*
X132596456Y-29245509D01*
X132596449Y-29245509D01*
X132334209Y-29245509D01*
X132334201Y-29245509D01*
X132103101Y-29275935D01*
X132074213Y-29279739D01*
X131865661Y-29335620D01*
X131820910Y-29347611D01*
X131820900Y-29347614D01*
X131578638Y-29447962D01*
X131578628Y-29447967D01*
X131351525Y-29579084D01*
X131143477Y-29738727D01*
X130958047Y-29924157D01*
X130798404Y-30132205D01*
X130667287Y-30359308D01*
X130667282Y-30359318D01*
X130566934Y-30601580D01*
X130566931Y-30601590D01*
X130502273Y-30842900D01*
X130499059Y-30854894D01*
X130464829Y-31114881D01*
X99658047Y-31114881D01*
X99658047Y-31102895D01*
X99623817Y-30842899D01*
X99555945Y-30589596D01*
X99484046Y-30416016D01*
X99455593Y-30347324D01*
X99455588Y-30347314D01*
X99324471Y-30120211D01*
X99174032Y-29924158D01*
X99164829Y-29912164D01*
X99164828Y-29912163D01*
X99164821Y-29912155D01*
X98979407Y-29726741D01*
X98979398Y-29726733D01*
X98771350Y-29567090D01*
X98544247Y-29435973D01*
X98544237Y-29435968D01*
X98301975Y-29335620D01*
X98301968Y-29335618D01*
X98301966Y-29335617D01*
X98048663Y-29267745D01*
X97990886Y-29260138D01*
X97788674Y-29233515D01*
X97788667Y-29233515D01*
X97526427Y-29233515D01*
X97526419Y-29233515D01*
X97295319Y-29263941D01*
X97266431Y-29267745D01*
X97013128Y-29335617D01*
X97013118Y-29335620D01*
X96770856Y-29435968D01*
X96770846Y-29435973D01*
X96543743Y-29567090D01*
X96335695Y-29726733D01*
X96150265Y-29912163D01*
X95990622Y-30120211D01*
X95859505Y-30347314D01*
X95859500Y-30347324D01*
X95759152Y-30589586D01*
X95759149Y-30589596D01*
X95736919Y-30672562D01*
X95691277Y-30842900D01*
X95657047Y-31102887D01*
X95657047Y-31365142D01*
X95683670Y-31567354D01*
X95691277Y-31625131D01*
X95694491Y-31637125D01*
X95759149Y-31878433D01*
X95759152Y-31878443D01*
X95859500Y-32120705D01*
X95859505Y-32120715D01*
X95990622Y-32347818D01*
X96150265Y-32555866D01*
X96150273Y-32555875D01*
X96335687Y-32741289D01*
X96335695Y-32741296D01*
X96335696Y-32741297D01*
X96426229Y-32810766D01*
X96543741Y-32900937D01*
X96549240Y-32904112D01*
X96597456Y-32954679D01*
X96610680Y-33023286D01*
X96584712Y-33088151D01*
X96527798Y-33128680D01*
X96487241Y-33135500D01*
X94653306Y-33135500D01*
X94479341Y-33170103D01*
X94479332Y-33170106D01*
X94315457Y-33237984D01*
X94315456Y-33237985D01*
X94315453Y-33237986D01*
X94315453Y-33237987D01*
X94170490Y-33334849D01*
X94168806Y-33335974D01*
X94167965Y-33336536D01*
X94167956Y-33336543D01*
X92518540Y-34985958D01*
X92518539Y-34985959D01*
X92518536Y-34985964D01*
X92489330Y-35029676D01*
X92485328Y-35035665D01*
X92485327Y-35035666D01*
X92419985Y-35133455D01*
X92386046Y-35215393D01*
X92352106Y-35297329D01*
X92352103Y-35297341D01*
X92317500Y-35471303D01*
X92317500Y-38971038D01*
X92308855Y-39000478D01*
X92302332Y-39030465D01*
X92298577Y-39035480D01*
X92297815Y-39038077D01*
X92281181Y-39058719D01*
X92144719Y-39195181D01*
X92083396Y-39228666D01*
X92057038Y-39231500D01*
X91097306Y-39231500D01*
X90923341Y-39266103D01*
X90923332Y-39266106D01*
X90759459Y-39333983D01*
X90759446Y-39333990D01*
X90611965Y-39432535D01*
X90611961Y-39432538D01*
X90486538Y-39557961D01*
X90486535Y-39557965D01*
X90387990Y-39705446D01*
X90387983Y-39705459D01*
X90320106Y-39869332D01*
X90320103Y-39869341D01*
X90285500Y-40043304D01*
X87697224Y-40043304D01*
X94949499Y-31582317D01*
X94982501Y-31549315D01*
X94992229Y-31532464D01*
X95004891Y-31517693D01*
X95023008Y-31479879D01*
X95027428Y-31471496D01*
X95048393Y-31435187D01*
X95050453Y-31427499D01*
X95058404Y-31406008D01*
X95061836Y-31398847D01*
X95065899Y-31377136D01*
X95069545Y-31357655D01*
X95069546Y-31357650D01*
X95070422Y-31352967D01*
X95082501Y-31307893D01*
X95082501Y-31288435D01*
X95084618Y-31277127D01*
X95085281Y-31273581D01*
X95086080Y-31269313D01*
X95083803Y-31239729D01*
X95083665Y-31222738D01*
X95088184Y-31148041D01*
X95099178Y-30966283D01*
X95100983Y-30951421D01*
X95118673Y-30854894D01*
X95149422Y-30687096D01*
X95153006Y-30672562D01*
X95232949Y-30416013D01*
X95238251Y-30402033D01*
X95348550Y-30156959D01*
X95355499Y-30143720D01*
X95494528Y-29913737D01*
X95503015Y-29901441D01*
X95668758Y-29689886D01*
X95678673Y-29678695D01*
X95868695Y-29488673D01*
X95879886Y-29478758D01*
X96091441Y-29313015D01*
X96103737Y-29304528D01*
X96333726Y-29165495D01*
X96346959Y-29158550D01*
X96592033Y-29048251D01*
X96606013Y-29042949D01*
X96862566Y-28963004D01*
X96877096Y-28959422D01*
X97141425Y-28910982D01*
X97156282Y-28909178D01*
X97428265Y-28892727D01*
X97435752Y-28892501D01*
X97497893Y-28892501D01*
X132466109Y-28892501D01*
X132528250Y-28892501D01*
X132535737Y-28892727D01*
G37*
%TD.AperFunction*%
%TD*%
M02*
