%TF.GenerationSoftware,KiCad,Pcbnew,9.0.6*%
%TF.CreationDate,2026-07-16T20:39:13+05:30*%
%TF.ProjectId,FC - BREAKOUT,4643202d-2042-4524-9541-4b4f55542e6b,rev?*%
%TF.SameCoordinates,Original*%
%TF.FileFunction,Legend,Top*%
%TF.FilePolarity,Positive*%
%FSLAX46Y46*%
G04 Gerber Fmt 4.6, Leading zero omitted, Abs format (unit mm)*
G04 Created by KiCad (PCBNEW 9.0.6) date 2026-07-16 20:39:13*
%MOMM*%
%LPD*%
G01*
G04 APERTURE LIST*
%ADD10C,0.100000*%
%ADD11C,0.160000*%
%ADD12C,0.300000*%
G04 APERTURE END LIST*
D10*
X127892861Y-31497841D02*
X123626037Y-32767841D01*
X124642037Y-31751841D01*
X123626037Y-30735841D01*
X127892861Y-31497841D01*
G36*
X127892861Y-31497841D02*
G01*
X123626037Y-32767841D01*
X124642037Y-31751841D01*
X123626037Y-30735841D01*
X127892861Y-31497841D01*
G37*
D11*
X124450882Y-34107584D02*
X124412786Y-34145680D01*
X124412786Y-34145680D02*
X124298501Y-34183775D01*
X124298501Y-34183775D02*
X124222310Y-34183775D01*
X124222310Y-34183775D02*
X124108024Y-34145680D01*
X124108024Y-34145680D02*
X124031834Y-34069489D01*
X124031834Y-34069489D02*
X123993739Y-33993299D01*
X123993739Y-33993299D02*
X123955643Y-33840918D01*
X123955643Y-33840918D02*
X123955643Y-33726632D01*
X123955643Y-33726632D02*
X123993739Y-33574251D01*
X123993739Y-33574251D02*
X124031834Y-33498060D01*
X124031834Y-33498060D02*
X124108024Y-33421870D01*
X124108024Y-33421870D02*
X124222310Y-33383775D01*
X124222310Y-33383775D02*
X124298501Y-33383775D01*
X124298501Y-33383775D02*
X124412786Y-33421870D01*
X124412786Y-33421870D02*
X124450882Y-33459965D01*
X124793739Y-34183775D02*
X124793739Y-33383775D01*
X125250882Y-34183775D02*
X124908024Y-33726632D01*
X125250882Y-33383775D02*
X124793739Y-33840918D01*
X125555643Y-33459965D02*
X125593739Y-33421870D01*
X125593739Y-33421870D02*
X125669929Y-33383775D01*
X125669929Y-33383775D02*
X125860405Y-33383775D01*
X125860405Y-33383775D02*
X125936596Y-33421870D01*
X125936596Y-33421870D02*
X125974691Y-33459965D01*
X125974691Y-33459965D02*
X126012786Y-33536156D01*
X126012786Y-33536156D02*
X126012786Y-33612346D01*
X126012786Y-33612346D02*
X125974691Y-33726632D01*
X125974691Y-33726632D02*
X125517548Y-34183775D01*
X125517548Y-34183775D02*
X126012786Y-34183775D01*
X126698501Y-33383775D02*
X126546120Y-33383775D01*
X126546120Y-33383775D02*
X126469929Y-33421870D01*
X126469929Y-33421870D02*
X126431834Y-33459965D01*
X126431834Y-33459965D02*
X126355644Y-33574251D01*
X126355644Y-33574251D02*
X126317548Y-33726632D01*
X126317548Y-33726632D02*
X126317548Y-34031394D01*
X126317548Y-34031394D02*
X126355644Y-34107584D01*
X126355644Y-34107584D02*
X126393739Y-34145680D01*
X126393739Y-34145680D02*
X126469929Y-34183775D01*
X126469929Y-34183775D02*
X126622310Y-34183775D01*
X126622310Y-34183775D02*
X126698501Y-34145680D01*
X126698501Y-34145680D02*
X126736596Y-34107584D01*
X126736596Y-34107584D02*
X126774691Y-34031394D01*
X126774691Y-34031394D02*
X126774691Y-33840918D01*
X126774691Y-33840918D02*
X126736596Y-33764727D01*
X126736596Y-33764727D02*
X126698501Y-33726632D01*
X126698501Y-33726632D02*
X126622310Y-33688537D01*
X126622310Y-33688537D02*
X126469929Y-33688537D01*
X126469929Y-33688537D02*
X126393739Y-33726632D01*
X126393739Y-33726632D02*
X126355644Y-33764727D01*
X126355644Y-33764727D02*
X126317548Y-33840918D01*
D12*
X105964510Y-47044828D02*
X105964510Y-45544828D01*
X105964510Y-46259114D02*
X106821653Y-46259114D01*
X106821653Y-47044828D02*
X106821653Y-45544828D01*
X107393082Y-45544828D02*
X108393082Y-45544828D01*
X108393082Y-45544828D02*
X107750225Y-47044828D01*
X109607368Y-46044828D02*
X109607368Y-47044828D01*
X109250225Y-45473400D02*
X108893082Y-46544828D01*
X108893082Y-46544828D02*
X109821653Y-46544828D01*
X110250224Y-45544828D02*
X111178796Y-45544828D01*
X111178796Y-45544828D02*
X110678796Y-46116257D01*
X110678796Y-46116257D02*
X110893081Y-46116257D01*
X110893081Y-46116257D02*
X111035939Y-46187685D01*
X111035939Y-46187685D02*
X111107367Y-46259114D01*
X111107367Y-46259114D02*
X111178796Y-46401971D01*
X111178796Y-46401971D02*
X111178796Y-46759114D01*
X111178796Y-46759114D02*
X111107367Y-46901971D01*
X111107367Y-46901971D02*
X111035939Y-46973400D01*
X111035939Y-46973400D02*
X110893081Y-47044828D01*
X110893081Y-47044828D02*
X110464510Y-47044828D01*
X110464510Y-47044828D02*
X110321653Y-46973400D01*
X110321653Y-46973400D02*
X110250224Y-46901971D01*
X111821652Y-47044828D02*
X111821652Y-45544828D01*
X111821652Y-45544828D02*
X112178795Y-45544828D01*
X112178795Y-45544828D02*
X112393081Y-45616257D01*
X112393081Y-45616257D02*
X112535938Y-45759114D01*
X112535938Y-45759114D02*
X112607367Y-45901971D01*
X112607367Y-45901971D02*
X112678795Y-46187685D01*
X112678795Y-46187685D02*
X112678795Y-46401971D01*
X112678795Y-46401971D02*
X112607367Y-46687685D01*
X112607367Y-46687685D02*
X112535938Y-46830542D01*
X112535938Y-46830542D02*
X112393081Y-46973400D01*
X112393081Y-46973400D02*
X112178795Y-47044828D01*
X112178795Y-47044828D02*
X111821652Y-47044828D01*
X113321652Y-46259114D02*
X113821652Y-46259114D01*
X114035938Y-47044828D02*
X113321652Y-47044828D01*
X113321652Y-47044828D02*
X113321652Y-45544828D01*
X113321652Y-45544828D02*
X114035938Y-45544828D01*
X114464510Y-45544828D02*
X114964510Y-47044828D01*
X114964510Y-47044828D02*
X115464510Y-45544828D01*
X116464509Y-46259114D02*
X116678795Y-46330542D01*
X116678795Y-46330542D02*
X116750224Y-46401971D01*
X116750224Y-46401971D02*
X116821652Y-46544828D01*
X116821652Y-46544828D02*
X116821652Y-46759114D01*
X116821652Y-46759114D02*
X116750224Y-46901971D01*
X116750224Y-46901971D02*
X116678795Y-46973400D01*
X116678795Y-46973400D02*
X116535938Y-47044828D01*
X116535938Y-47044828D02*
X115964509Y-47044828D01*
X115964509Y-47044828D02*
X115964509Y-45544828D01*
X115964509Y-45544828D02*
X116464509Y-45544828D01*
X116464509Y-45544828D02*
X116607367Y-45616257D01*
X116607367Y-45616257D02*
X116678795Y-45687685D01*
X116678795Y-45687685D02*
X116750224Y-45830542D01*
X116750224Y-45830542D02*
X116750224Y-45973400D01*
X116750224Y-45973400D02*
X116678795Y-46116257D01*
X116678795Y-46116257D02*
X116607367Y-46187685D01*
X116607367Y-46187685D02*
X116464509Y-46259114D01*
X116464509Y-46259114D02*
X115964509Y-46259114D01*
X117750224Y-45544828D02*
X118035938Y-45544828D01*
X118035938Y-45544828D02*
X118178795Y-45616257D01*
X118178795Y-45616257D02*
X118321652Y-45759114D01*
X118321652Y-45759114D02*
X118393081Y-46044828D01*
X118393081Y-46044828D02*
X118393081Y-46544828D01*
X118393081Y-46544828D02*
X118321652Y-46830542D01*
X118321652Y-46830542D02*
X118178795Y-46973400D01*
X118178795Y-46973400D02*
X118035938Y-47044828D01*
X118035938Y-47044828D02*
X117750224Y-47044828D01*
X117750224Y-47044828D02*
X117607367Y-46973400D01*
X117607367Y-46973400D02*
X117464509Y-46830542D01*
X117464509Y-46830542D02*
X117393081Y-46544828D01*
X117393081Y-46544828D02*
X117393081Y-46044828D01*
X117393081Y-46044828D02*
X117464509Y-45759114D01*
X117464509Y-45759114D02*
X117607367Y-45616257D01*
X117607367Y-45616257D02*
X117750224Y-45544828D01*
X118964510Y-46616257D02*
X119678796Y-46616257D01*
X118821653Y-47044828D02*
X119321653Y-45544828D01*
X119321653Y-45544828D02*
X119821653Y-47044828D01*
X121178795Y-47044828D02*
X120678795Y-46330542D01*
X120321652Y-47044828D02*
X120321652Y-45544828D01*
X120321652Y-45544828D02*
X120893081Y-45544828D01*
X120893081Y-45544828D02*
X121035938Y-45616257D01*
X121035938Y-45616257D02*
X121107367Y-45687685D01*
X121107367Y-45687685D02*
X121178795Y-45830542D01*
X121178795Y-45830542D02*
X121178795Y-46044828D01*
X121178795Y-46044828D02*
X121107367Y-46187685D01*
X121107367Y-46187685D02*
X121035938Y-46259114D01*
X121035938Y-46259114D02*
X120893081Y-46330542D01*
X120893081Y-46330542D02*
X120321652Y-46330542D01*
X121821652Y-47044828D02*
X121821652Y-45544828D01*
X121821652Y-45544828D02*
X122178795Y-45544828D01*
X122178795Y-45544828D02*
X122393081Y-45616257D01*
X122393081Y-45616257D02*
X122535938Y-45759114D01*
X122535938Y-45759114D02*
X122607367Y-45901971D01*
X122607367Y-45901971D02*
X122678795Y-46187685D01*
X122678795Y-46187685D02*
X122678795Y-46401971D01*
X122678795Y-46401971D02*
X122607367Y-46687685D01*
X122607367Y-46687685D02*
X122535938Y-46830542D01*
X122535938Y-46830542D02*
X122393081Y-46973400D01*
X122393081Y-46973400D02*
X122178795Y-47044828D01*
X122178795Y-47044828D02*
X121821652Y-47044828D01*
X122964510Y-47187685D02*
X124107367Y-47187685D01*
X124964509Y-46259114D02*
X124464509Y-46259114D01*
X124464509Y-47044828D02*
X124464509Y-45544828D01*
X124464509Y-45544828D02*
X125178795Y-45544828D01*
X126607366Y-46901971D02*
X126535938Y-46973400D01*
X126535938Y-46973400D02*
X126321652Y-47044828D01*
X126321652Y-47044828D02*
X126178795Y-47044828D01*
X126178795Y-47044828D02*
X125964509Y-46973400D01*
X125964509Y-46973400D02*
X125821652Y-46830542D01*
X125821652Y-46830542D02*
X125750223Y-46687685D01*
X125750223Y-46687685D02*
X125678795Y-46401971D01*
X125678795Y-46401971D02*
X125678795Y-46187685D01*
X125678795Y-46187685D02*
X125750223Y-45901971D01*
X125750223Y-45901971D02*
X125821652Y-45759114D01*
X125821652Y-45759114D02*
X125964509Y-45616257D01*
X125964509Y-45616257D02*
X126178795Y-45544828D01*
X126178795Y-45544828D02*
X126321652Y-45544828D01*
X126321652Y-45544828D02*
X126535938Y-45616257D01*
X126535938Y-45616257D02*
X126607366Y-45687685D01*
D10*
X133629476Y-83549990D02*
X133553286Y-83511895D01*
X133553286Y-83511895D02*
X133439000Y-83511895D01*
X133439000Y-83511895D02*
X133324714Y-83549990D01*
X133324714Y-83549990D02*
X133248524Y-83626180D01*
X133248524Y-83626180D02*
X133210429Y-83702371D01*
X133210429Y-83702371D02*
X133172333Y-83854752D01*
X133172333Y-83854752D02*
X133172333Y-83969038D01*
X133172333Y-83969038D02*
X133210429Y-84121419D01*
X133210429Y-84121419D02*
X133248524Y-84197609D01*
X133248524Y-84197609D02*
X133324714Y-84273800D01*
X133324714Y-84273800D02*
X133439000Y-84311895D01*
X133439000Y-84311895D02*
X133515191Y-84311895D01*
X133515191Y-84311895D02*
X133629476Y-84273800D01*
X133629476Y-84273800D02*
X133667572Y-84235704D01*
X133667572Y-84235704D02*
X133667572Y-83969038D01*
X133667572Y-83969038D02*
X133515191Y-83969038D01*
X134010429Y-84311895D02*
X134010429Y-83511895D01*
X134010429Y-83511895D02*
X134467572Y-84311895D01*
X134467572Y-84311895D02*
X134467572Y-83511895D01*
X134848524Y-84311895D02*
X134848524Y-83511895D01*
X134848524Y-83511895D02*
X135039000Y-83511895D01*
X135039000Y-83511895D02*
X135153286Y-83549990D01*
X135153286Y-83549990D02*
X135229476Y-83626180D01*
X135229476Y-83626180D02*
X135267571Y-83702371D01*
X135267571Y-83702371D02*
X135305667Y-83854752D01*
X135305667Y-83854752D02*
X135305667Y-83969038D01*
X135305667Y-83969038D02*
X135267571Y-84121419D01*
X135267571Y-84121419D02*
X135229476Y-84197609D01*
X135229476Y-84197609D02*
X135153286Y-84273800D01*
X135153286Y-84273800D02*
X135039000Y-84311895D01*
X135039000Y-84311895D02*
X134848524Y-84311895D01*
X95275476Y-39226990D02*
X95199286Y-39188895D01*
X95199286Y-39188895D02*
X95085000Y-39188895D01*
X95085000Y-39188895D02*
X94970714Y-39226990D01*
X94970714Y-39226990D02*
X94894524Y-39303180D01*
X94894524Y-39303180D02*
X94856429Y-39379371D01*
X94856429Y-39379371D02*
X94818333Y-39531752D01*
X94818333Y-39531752D02*
X94818333Y-39646038D01*
X94818333Y-39646038D02*
X94856429Y-39798419D01*
X94856429Y-39798419D02*
X94894524Y-39874609D01*
X94894524Y-39874609D02*
X94970714Y-39950800D01*
X94970714Y-39950800D02*
X95085000Y-39988895D01*
X95085000Y-39988895D02*
X95161191Y-39988895D01*
X95161191Y-39988895D02*
X95275476Y-39950800D01*
X95275476Y-39950800D02*
X95313572Y-39912704D01*
X95313572Y-39912704D02*
X95313572Y-39646038D01*
X95313572Y-39646038D02*
X95161191Y-39646038D01*
X95656429Y-39988895D02*
X95656429Y-39188895D01*
X95656429Y-39188895D02*
X96113572Y-39988895D01*
X96113572Y-39988895D02*
X96113572Y-39188895D01*
X96494524Y-39988895D02*
X96494524Y-39188895D01*
X96494524Y-39188895D02*
X96685000Y-39188895D01*
X96685000Y-39188895D02*
X96799286Y-39226990D01*
X96799286Y-39226990D02*
X96875476Y-39303180D01*
X96875476Y-39303180D02*
X96913571Y-39379371D01*
X96913571Y-39379371D02*
X96951667Y-39531752D01*
X96951667Y-39531752D02*
X96951667Y-39646038D01*
X96951667Y-39646038D02*
X96913571Y-39798419D01*
X96913571Y-39798419D02*
X96875476Y-39874609D01*
X96875476Y-39874609D02*
X96799286Y-39950800D01*
X96799286Y-39950800D02*
X96685000Y-39988895D01*
X96685000Y-39988895D02*
X96494524Y-39988895D01*
X95370714Y-43772895D02*
X95104047Y-43391942D01*
X94913571Y-43772895D02*
X94913571Y-42972895D01*
X94913571Y-42972895D02*
X95218333Y-42972895D01*
X95218333Y-42972895D02*
X95294523Y-43010990D01*
X95294523Y-43010990D02*
X95332618Y-43049085D01*
X95332618Y-43049085D02*
X95370714Y-43125276D01*
X95370714Y-43125276D02*
X95370714Y-43239561D01*
X95370714Y-43239561D02*
X95332618Y-43315752D01*
X95332618Y-43315752D02*
X95294523Y-43353847D01*
X95294523Y-43353847D02*
X95218333Y-43391942D01*
X95218333Y-43391942D02*
X94913571Y-43391942D01*
X95637380Y-42972895D02*
X96170714Y-43772895D01*
X96170714Y-42972895D02*
X95637380Y-43772895D01*
X96818333Y-43239561D02*
X96818333Y-43772895D01*
X96627857Y-42934800D02*
X96437380Y-43506228D01*
X96437380Y-43506228D02*
X96932619Y-43506228D01*
X133375523Y-63379895D02*
X133832666Y-63379895D01*
X133604094Y-64179895D02*
X133604094Y-63379895D01*
X134023142Y-63379895D02*
X134556476Y-64179895D01*
X134556476Y-63379895D02*
X134023142Y-64179895D01*
X135280285Y-64179895D02*
X134823142Y-64179895D01*
X135051714Y-64179895D02*
X135051714Y-63379895D01*
X135051714Y-63379895D02*
X134975523Y-63494180D01*
X134975523Y-63494180D02*
X134899333Y-63570371D01*
X134899333Y-63570371D02*
X134823142Y-63608466D01*
X94983381Y-53170895D02*
X94983381Y-52370895D01*
X94983381Y-52370895D02*
X95250047Y-52942323D01*
X95250047Y-52942323D02*
X95516714Y-52370895D01*
X95516714Y-52370895D02*
X95516714Y-53170895D01*
X96011952Y-52713752D02*
X95935762Y-52675657D01*
X95935762Y-52675657D02*
X95897667Y-52637561D01*
X95897667Y-52637561D02*
X95859571Y-52561371D01*
X95859571Y-52561371D02*
X95859571Y-52523276D01*
X95859571Y-52523276D02*
X95897667Y-52447085D01*
X95897667Y-52447085D02*
X95935762Y-52408990D01*
X95935762Y-52408990D02*
X96011952Y-52370895D01*
X96011952Y-52370895D02*
X96164333Y-52370895D01*
X96164333Y-52370895D02*
X96240524Y-52408990D01*
X96240524Y-52408990D02*
X96278619Y-52447085D01*
X96278619Y-52447085D02*
X96316714Y-52523276D01*
X96316714Y-52523276D02*
X96316714Y-52561371D01*
X96316714Y-52561371D02*
X96278619Y-52637561D01*
X96278619Y-52637561D02*
X96240524Y-52675657D01*
X96240524Y-52675657D02*
X96164333Y-52713752D01*
X96164333Y-52713752D02*
X96011952Y-52713752D01*
X96011952Y-52713752D02*
X95935762Y-52751847D01*
X95935762Y-52751847D02*
X95897667Y-52789942D01*
X95897667Y-52789942D02*
X95859571Y-52866133D01*
X95859571Y-52866133D02*
X95859571Y-53018514D01*
X95859571Y-53018514D02*
X95897667Y-53094704D01*
X95897667Y-53094704D02*
X95935762Y-53132800D01*
X95935762Y-53132800D02*
X96011952Y-53170895D01*
X96011952Y-53170895D02*
X96164333Y-53170895D01*
X96164333Y-53170895D02*
X96240524Y-53132800D01*
X96240524Y-53132800D02*
X96278619Y-53094704D01*
X96278619Y-53094704D02*
X96316714Y-53018514D01*
X96316714Y-53018514D02*
X96316714Y-52866133D01*
X96316714Y-52866133D02*
X96278619Y-52789942D01*
X96278619Y-52789942D02*
X96240524Y-52751847D01*
X96240524Y-52751847D02*
X96164333Y-52713752D01*
X113935104Y-38265238D02*
X114735104Y-38265238D01*
X113935104Y-38646190D02*
X114735104Y-38646190D01*
X114735104Y-38646190D02*
X113935104Y-39103333D01*
X113935104Y-39103333D02*
X114735104Y-39103333D01*
X114735104Y-39369999D02*
X114735104Y-39827142D01*
X113935104Y-39598570D02*
X114735104Y-39598570D01*
X113935104Y-40512856D02*
X113935104Y-40055713D01*
X113935104Y-40284285D02*
X114735104Y-40284285D01*
X114735104Y-40284285D02*
X114620819Y-40208094D01*
X114620819Y-40208094D02*
X114544628Y-40131904D01*
X114544628Y-40131904D02*
X114506533Y-40055713D01*
X133527876Y-67801990D02*
X133451686Y-67763895D01*
X133451686Y-67763895D02*
X133337400Y-67763895D01*
X133337400Y-67763895D02*
X133223114Y-67801990D01*
X133223114Y-67801990D02*
X133146924Y-67878180D01*
X133146924Y-67878180D02*
X133108829Y-67954371D01*
X133108829Y-67954371D02*
X133070733Y-68106752D01*
X133070733Y-68106752D02*
X133070733Y-68221038D01*
X133070733Y-68221038D02*
X133108829Y-68373419D01*
X133108829Y-68373419D02*
X133146924Y-68449609D01*
X133146924Y-68449609D02*
X133223114Y-68525800D01*
X133223114Y-68525800D02*
X133337400Y-68563895D01*
X133337400Y-68563895D02*
X133413591Y-68563895D01*
X133413591Y-68563895D02*
X133527876Y-68525800D01*
X133527876Y-68525800D02*
X133565972Y-68487704D01*
X133565972Y-68487704D02*
X133565972Y-68221038D01*
X133565972Y-68221038D02*
X133413591Y-68221038D01*
X133908829Y-68563895D02*
X133908829Y-67763895D01*
X133908829Y-67763895D02*
X134365972Y-68563895D01*
X134365972Y-68563895D02*
X134365972Y-67763895D01*
X134746924Y-68563895D02*
X134746924Y-67763895D01*
X134746924Y-67763895D02*
X134937400Y-67763895D01*
X134937400Y-67763895D02*
X135051686Y-67801990D01*
X135051686Y-67801990D02*
X135127876Y-67878180D01*
X135127876Y-67878180D02*
X135165971Y-67954371D01*
X135165971Y-67954371D02*
X135204067Y-68106752D01*
X135204067Y-68106752D02*
X135204067Y-68221038D01*
X135204067Y-68221038D02*
X135165971Y-68373419D01*
X135165971Y-68373419D02*
X135127876Y-68449609D01*
X135127876Y-68449609D02*
X135051686Y-68525800D01*
X135051686Y-68525800D02*
X134937400Y-68563895D01*
X134937400Y-68563895D02*
X134746924Y-68563895D01*
X127143009Y-79284090D02*
X127181104Y-79207900D01*
X127181104Y-79207900D02*
X127181104Y-79093614D01*
X127181104Y-79093614D02*
X127143009Y-78979328D01*
X127143009Y-78979328D02*
X127066819Y-78903138D01*
X127066819Y-78903138D02*
X126990628Y-78865043D01*
X126990628Y-78865043D02*
X126838247Y-78826947D01*
X126838247Y-78826947D02*
X126723961Y-78826947D01*
X126723961Y-78826947D02*
X126571580Y-78865043D01*
X126571580Y-78865043D02*
X126495390Y-78903138D01*
X126495390Y-78903138D02*
X126419200Y-78979328D01*
X126419200Y-78979328D02*
X126381104Y-79093614D01*
X126381104Y-79093614D02*
X126381104Y-79169805D01*
X126381104Y-79169805D02*
X126419200Y-79284090D01*
X126419200Y-79284090D02*
X126457295Y-79322186D01*
X126457295Y-79322186D02*
X126723961Y-79322186D01*
X126723961Y-79322186D02*
X126723961Y-79169805D01*
X126381104Y-79665043D02*
X127181104Y-79665043D01*
X127181104Y-79665043D02*
X126381104Y-80122186D01*
X126381104Y-80122186D02*
X127181104Y-80122186D01*
X126381104Y-80503138D02*
X127181104Y-80503138D01*
X127181104Y-80503138D02*
X127181104Y-80693614D01*
X127181104Y-80693614D02*
X127143009Y-80807900D01*
X127143009Y-80807900D02*
X127066819Y-80884090D01*
X127066819Y-80884090D02*
X126990628Y-80922185D01*
X126990628Y-80922185D02*
X126838247Y-80960281D01*
X126838247Y-80960281D02*
X126723961Y-80960281D01*
X126723961Y-80960281D02*
X126571580Y-80922185D01*
X126571580Y-80922185D02*
X126495390Y-80884090D01*
X126495390Y-80884090D02*
X126419200Y-80807900D01*
X126419200Y-80807900D02*
X126381104Y-80693614D01*
X126381104Y-80693614D02*
X126381104Y-80503138D01*
X133121523Y-54174895D02*
X133578666Y-54174895D01*
X133350094Y-54974895D02*
X133350094Y-54174895D01*
X133769142Y-54174895D02*
X134302476Y-54974895D01*
X134302476Y-54174895D02*
X133769142Y-54974895D01*
X134531047Y-54174895D02*
X135026285Y-54174895D01*
X135026285Y-54174895D02*
X134759619Y-54479657D01*
X134759619Y-54479657D02*
X134873904Y-54479657D01*
X134873904Y-54479657D02*
X134950095Y-54517752D01*
X134950095Y-54517752D02*
X134988190Y-54555847D01*
X134988190Y-54555847D02*
X135026285Y-54632038D01*
X135026285Y-54632038D02*
X135026285Y-54822514D01*
X135026285Y-54822514D02*
X134988190Y-54898704D01*
X134988190Y-54898704D02*
X134950095Y-54936800D01*
X134950095Y-54936800D02*
X134873904Y-54974895D01*
X134873904Y-54974895D02*
X134645333Y-54974895D01*
X134645333Y-54974895D02*
X134569142Y-54936800D01*
X134569142Y-54936800D02*
X134531047Y-54898704D01*
X94983381Y-57742895D02*
X94983381Y-56942895D01*
X94983381Y-56942895D02*
X95250047Y-57514323D01*
X95250047Y-57514323D02*
X95516714Y-56942895D01*
X95516714Y-56942895D02*
X95516714Y-57742895D01*
X96240524Y-56942895D02*
X96088143Y-56942895D01*
X96088143Y-56942895D02*
X96011952Y-56980990D01*
X96011952Y-56980990D02*
X95973857Y-57019085D01*
X95973857Y-57019085D02*
X95897667Y-57133371D01*
X95897667Y-57133371D02*
X95859571Y-57285752D01*
X95859571Y-57285752D02*
X95859571Y-57590514D01*
X95859571Y-57590514D02*
X95897667Y-57666704D01*
X95897667Y-57666704D02*
X95935762Y-57704800D01*
X95935762Y-57704800D02*
X96011952Y-57742895D01*
X96011952Y-57742895D02*
X96164333Y-57742895D01*
X96164333Y-57742895D02*
X96240524Y-57704800D01*
X96240524Y-57704800D02*
X96278619Y-57666704D01*
X96278619Y-57666704D02*
X96316714Y-57590514D01*
X96316714Y-57590514D02*
X96316714Y-57400038D01*
X96316714Y-57400038D02*
X96278619Y-57323847D01*
X96278619Y-57323847D02*
X96240524Y-57285752D01*
X96240524Y-57285752D02*
X96164333Y-57247657D01*
X96164333Y-57247657D02*
X96011952Y-57247657D01*
X96011952Y-57247657D02*
X95935762Y-57285752D01*
X95935762Y-57285752D02*
X95897667Y-57323847D01*
X95897667Y-57323847D02*
X95859571Y-57400038D01*
X109042845Y-78738838D02*
X109842845Y-78738838D01*
X109042845Y-79119790D02*
X109842845Y-79119790D01*
X109842845Y-79119790D02*
X109042845Y-79576933D01*
X109042845Y-79576933D02*
X109842845Y-79576933D01*
X109842845Y-79843599D02*
X109842845Y-80300742D01*
X109042845Y-80072170D02*
X109842845Y-80072170D01*
X109042845Y-80986456D02*
X109042845Y-80529313D01*
X109042845Y-80757885D02*
X109842845Y-80757885D01*
X109842845Y-80757885D02*
X109728560Y-80681694D01*
X109728560Y-80681694D02*
X109652369Y-80605504D01*
X109652369Y-80605504D02*
X109614274Y-80529313D01*
X94983381Y-66886895D02*
X94983381Y-66086895D01*
X94983381Y-66086895D02*
X95250047Y-66658323D01*
X95250047Y-66658323D02*
X95516714Y-66086895D01*
X95516714Y-66086895D02*
X95516714Y-66886895D01*
X95859571Y-66163085D02*
X95897667Y-66124990D01*
X95897667Y-66124990D02*
X95973857Y-66086895D01*
X95973857Y-66086895D02*
X96164333Y-66086895D01*
X96164333Y-66086895D02*
X96240524Y-66124990D01*
X96240524Y-66124990D02*
X96278619Y-66163085D01*
X96278619Y-66163085D02*
X96316714Y-66239276D01*
X96316714Y-66239276D02*
X96316714Y-66315466D01*
X96316714Y-66315466D02*
X96278619Y-66429752D01*
X96278619Y-66429752D02*
X95821476Y-66886895D01*
X95821476Y-66886895D02*
X96316714Y-66886895D01*
X133629476Y-56498990D02*
X133553286Y-56460895D01*
X133553286Y-56460895D02*
X133439000Y-56460895D01*
X133439000Y-56460895D02*
X133324714Y-56498990D01*
X133324714Y-56498990D02*
X133248524Y-56575180D01*
X133248524Y-56575180D02*
X133210429Y-56651371D01*
X133210429Y-56651371D02*
X133172333Y-56803752D01*
X133172333Y-56803752D02*
X133172333Y-56918038D01*
X133172333Y-56918038D02*
X133210429Y-57070419D01*
X133210429Y-57070419D02*
X133248524Y-57146609D01*
X133248524Y-57146609D02*
X133324714Y-57222800D01*
X133324714Y-57222800D02*
X133439000Y-57260895D01*
X133439000Y-57260895D02*
X133515191Y-57260895D01*
X133515191Y-57260895D02*
X133629476Y-57222800D01*
X133629476Y-57222800D02*
X133667572Y-57184704D01*
X133667572Y-57184704D02*
X133667572Y-56918038D01*
X133667572Y-56918038D02*
X133515191Y-56918038D01*
X134010429Y-57260895D02*
X134010429Y-56460895D01*
X134010429Y-56460895D02*
X134467572Y-57260895D01*
X134467572Y-57260895D02*
X134467572Y-56460895D01*
X134848524Y-57260895D02*
X134848524Y-56460895D01*
X134848524Y-56460895D02*
X135039000Y-56460895D01*
X135039000Y-56460895D02*
X135153286Y-56498990D01*
X135153286Y-56498990D02*
X135229476Y-56575180D01*
X135229476Y-56575180D02*
X135267571Y-56651371D01*
X135267571Y-56651371D02*
X135305667Y-56803752D01*
X135305667Y-56803752D02*
X135305667Y-56918038D01*
X135305667Y-56918038D02*
X135267571Y-57070419D01*
X135267571Y-57070419D02*
X135229476Y-57146609D01*
X135229476Y-57146609D02*
X135153286Y-57222800D01*
X135153286Y-57222800D02*
X135039000Y-57260895D01*
X135039000Y-57260895D02*
X134848524Y-57260895D01*
X134391419Y-60982095D02*
X134010467Y-60982095D01*
X134010467Y-60982095D02*
X133972371Y-61363047D01*
X133972371Y-61363047D02*
X134010467Y-61324952D01*
X134010467Y-61324952D02*
X134086657Y-61286857D01*
X134086657Y-61286857D02*
X134277133Y-61286857D01*
X134277133Y-61286857D02*
X134353324Y-61324952D01*
X134353324Y-61324952D02*
X134391419Y-61363047D01*
X134391419Y-61363047D02*
X134429514Y-61439238D01*
X134429514Y-61439238D02*
X134429514Y-61629714D01*
X134429514Y-61629714D02*
X134391419Y-61705904D01*
X134391419Y-61705904D02*
X134353324Y-61744000D01*
X134353324Y-61744000D02*
X134277133Y-61782095D01*
X134277133Y-61782095D02*
X134086657Y-61782095D01*
X134086657Y-61782095D02*
X134010467Y-61744000D01*
X134010467Y-61744000D02*
X133972371Y-61705904D01*
X134658086Y-60982095D02*
X134924753Y-61782095D01*
X134924753Y-61782095D02*
X135191419Y-60982095D01*
X94894523Y-45258895D02*
X95351666Y-45258895D01*
X95123094Y-46058895D02*
X95123094Y-45258895D01*
X95542142Y-45258895D02*
X96075476Y-46058895D01*
X96075476Y-45258895D02*
X95542142Y-46058895D01*
X96723095Y-45525561D02*
X96723095Y-46058895D01*
X96532619Y-45220800D02*
X96342142Y-45792228D01*
X96342142Y-45792228D02*
X96837381Y-45792228D01*
X94983381Y-55456895D02*
X94983381Y-54656895D01*
X94983381Y-54656895D02*
X95250047Y-55228323D01*
X95250047Y-55228323D02*
X95516714Y-54656895D01*
X95516714Y-54656895D02*
X95516714Y-55456895D01*
X95821476Y-54656895D02*
X96354810Y-54656895D01*
X96354810Y-54656895D02*
X96011952Y-55456895D01*
X94983381Y-69172895D02*
X94983381Y-68372895D01*
X94983381Y-68372895D02*
X95250047Y-68944323D01*
X95250047Y-68944323D02*
X95516714Y-68372895D01*
X95516714Y-68372895D02*
X95516714Y-69172895D01*
X96316714Y-69172895D02*
X95859571Y-69172895D01*
X96088143Y-69172895D02*
X96088143Y-68372895D01*
X96088143Y-68372895D02*
X96011952Y-68487180D01*
X96011952Y-68487180D02*
X95935762Y-68563371D01*
X95935762Y-68563371D02*
X95859571Y-68601466D01*
X133597714Y-43290895D02*
X133331047Y-42909942D01*
X133140571Y-43290895D02*
X133140571Y-42490895D01*
X133140571Y-42490895D02*
X133445333Y-42490895D01*
X133445333Y-42490895D02*
X133521523Y-42528990D01*
X133521523Y-42528990D02*
X133559618Y-42567085D01*
X133559618Y-42567085D02*
X133597714Y-42643276D01*
X133597714Y-42643276D02*
X133597714Y-42757561D01*
X133597714Y-42757561D02*
X133559618Y-42833752D01*
X133559618Y-42833752D02*
X133521523Y-42871847D01*
X133521523Y-42871847D02*
X133445333Y-42909942D01*
X133445333Y-42909942D02*
X133140571Y-42909942D01*
X133864380Y-42490895D02*
X134397714Y-43290895D01*
X134397714Y-42490895D02*
X133864380Y-43290895D01*
X134664380Y-42567085D02*
X134702476Y-42528990D01*
X134702476Y-42528990D02*
X134778666Y-42490895D01*
X134778666Y-42490895D02*
X134969142Y-42490895D01*
X134969142Y-42490895D02*
X135045333Y-42528990D01*
X135045333Y-42528990D02*
X135083428Y-42567085D01*
X135083428Y-42567085D02*
X135121523Y-42643276D01*
X135121523Y-42643276D02*
X135121523Y-42719466D01*
X135121523Y-42719466D02*
X135083428Y-42833752D01*
X135083428Y-42833752D02*
X134626285Y-43290895D01*
X134626285Y-43290895D02*
X135121523Y-43290895D01*
X94983381Y-60028895D02*
X94983381Y-59228895D01*
X94983381Y-59228895D02*
X95250047Y-59800323D01*
X95250047Y-59800323D02*
X95516714Y-59228895D01*
X95516714Y-59228895D02*
X95516714Y-60028895D01*
X96278619Y-59228895D02*
X95897667Y-59228895D01*
X95897667Y-59228895D02*
X95859571Y-59609847D01*
X95859571Y-59609847D02*
X95897667Y-59571752D01*
X95897667Y-59571752D02*
X95973857Y-59533657D01*
X95973857Y-59533657D02*
X96164333Y-59533657D01*
X96164333Y-59533657D02*
X96240524Y-59571752D01*
X96240524Y-59571752D02*
X96278619Y-59609847D01*
X96278619Y-59609847D02*
X96316714Y-59686038D01*
X96316714Y-59686038D02*
X96316714Y-59876514D01*
X96316714Y-59876514D02*
X96278619Y-59952704D01*
X96278619Y-59952704D02*
X96240524Y-59990800D01*
X96240524Y-59990800D02*
X96164333Y-60028895D01*
X96164333Y-60028895D02*
X95973857Y-60028895D01*
X95973857Y-60028895D02*
X95897667Y-59990800D01*
X95897667Y-59990800D02*
X95859571Y-59952704D01*
X121339200Y-78922185D02*
X121301104Y-79036471D01*
X121301104Y-79036471D02*
X121301104Y-79226947D01*
X121301104Y-79226947D02*
X121339200Y-79303138D01*
X121339200Y-79303138D02*
X121377295Y-79341233D01*
X121377295Y-79341233D02*
X121453485Y-79379328D01*
X121453485Y-79379328D02*
X121529676Y-79379328D01*
X121529676Y-79379328D02*
X121605866Y-79341233D01*
X121605866Y-79341233D02*
X121643961Y-79303138D01*
X121643961Y-79303138D02*
X121682057Y-79226947D01*
X121682057Y-79226947D02*
X121720152Y-79074566D01*
X121720152Y-79074566D02*
X121758247Y-78998376D01*
X121758247Y-78998376D02*
X121796342Y-78960281D01*
X121796342Y-78960281D02*
X121872533Y-78922185D01*
X121872533Y-78922185D02*
X121948723Y-78922185D01*
X121948723Y-78922185D02*
X122024914Y-78960281D01*
X122024914Y-78960281D02*
X122063009Y-78998376D01*
X122063009Y-78998376D02*
X122101104Y-79074566D01*
X122101104Y-79074566D02*
X122101104Y-79265043D01*
X122101104Y-79265043D02*
X122063009Y-79379328D01*
X121301104Y-79722186D02*
X122101104Y-79722186D01*
X122101104Y-79722186D02*
X122101104Y-79912662D01*
X122101104Y-79912662D02*
X122063009Y-80026948D01*
X122063009Y-80026948D02*
X121986819Y-80103138D01*
X121986819Y-80103138D02*
X121910628Y-80141233D01*
X121910628Y-80141233D02*
X121758247Y-80179329D01*
X121758247Y-80179329D02*
X121643961Y-80179329D01*
X121643961Y-80179329D02*
X121491580Y-80141233D01*
X121491580Y-80141233D02*
X121415390Y-80103138D01*
X121415390Y-80103138D02*
X121339200Y-80026948D01*
X121339200Y-80026948D02*
X121301104Y-79912662D01*
X121301104Y-79912662D02*
X121301104Y-79722186D01*
X121529676Y-80484090D02*
X121529676Y-80865043D01*
X121301104Y-80407900D02*
X122101104Y-80674567D01*
X122101104Y-80674567D02*
X121301104Y-80941233D01*
X114668845Y-74039847D02*
X114668845Y-74535085D01*
X114668845Y-74535085D02*
X114364083Y-74268419D01*
X114364083Y-74268419D02*
X114364083Y-74382704D01*
X114364083Y-74382704D02*
X114325988Y-74458895D01*
X114325988Y-74458895D02*
X114287893Y-74496990D01*
X114287893Y-74496990D02*
X114211702Y-74535085D01*
X114211702Y-74535085D02*
X114021226Y-74535085D01*
X114021226Y-74535085D02*
X113945036Y-74496990D01*
X113945036Y-74496990D02*
X113906941Y-74458895D01*
X113906941Y-74458895D02*
X113868845Y-74382704D01*
X113868845Y-74382704D02*
X113868845Y-74154133D01*
X113868845Y-74154133D02*
X113906941Y-74077942D01*
X113906941Y-74077942D02*
X113945036Y-74039847D01*
X113945036Y-74877943D02*
X113906941Y-74916038D01*
X113906941Y-74916038D02*
X113868845Y-74877943D01*
X113868845Y-74877943D02*
X113906941Y-74839847D01*
X113906941Y-74839847D02*
X113945036Y-74877943D01*
X113945036Y-74877943D02*
X113868845Y-74877943D01*
X114668845Y-75182704D02*
X114668845Y-75677942D01*
X114668845Y-75677942D02*
X114364083Y-75411276D01*
X114364083Y-75411276D02*
X114364083Y-75525561D01*
X114364083Y-75525561D02*
X114325988Y-75601752D01*
X114325988Y-75601752D02*
X114287893Y-75639847D01*
X114287893Y-75639847D02*
X114211702Y-75677942D01*
X114211702Y-75677942D02*
X114021226Y-75677942D01*
X114021226Y-75677942D02*
X113945036Y-75639847D01*
X113945036Y-75639847D02*
X113906941Y-75601752D01*
X113906941Y-75601752D02*
X113868845Y-75525561D01*
X113868845Y-75525561D02*
X113868845Y-75296990D01*
X113868845Y-75296990D02*
X113906941Y-75220799D01*
X113906941Y-75220799D02*
X113945036Y-75182704D01*
X114668845Y-75906514D02*
X113868845Y-76173181D01*
X113868845Y-76173181D02*
X114668845Y-76439847D01*
X98882800Y-85699524D02*
X98920895Y-85585238D01*
X98920895Y-85585238D02*
X98920895Y-85394762D01*
X98920895Y-85394762D02*
X98882800Y-85318571D01*
X98882800Y-85318571D02*
X98844704Y-85280476D01*
X98844704Y-85280476D02*
X98768514Y-85242381D01*
X98768514Y-85242381D02*
X98692323Y-85242381D01*
X98692323Y-85242381D02*
X98616133Y-85280476D01*
X98616133Y-85280476D02*
X98578038Y-85318571D01*
X98578038Y-85318571D02*
X98539942Y-85394762D01*
X98539942Y-85394762D02*
X98501847Y-85547143D01*
X98501847Y-85547143D02*
X98463752Y-85623333D01*
X98463752Y-85623333D02*
X98425657Y-85661428D01*
X98425657Y-85661428D02*
X98349466Y-85699524D01*
X98349466Y-85699524D02*
X98273276Y-85699524D01*
X98273276Y-85699524D02*
X98197085Y-85661428D01*
X98197085Y-85661428D02*
X98158990Y-85623333D01*
X98158990Y-85623333D02*
X98120895Y-85547143D01*
X98120895Y-85547143D02*
X98120895Y-85356666D01*
X98120895Y-85356666D02*
X98158990Y-85242381D01*
X98120895Y-84975714D02*
X98120895Y-84480476D01*
X98120895Y-84480476D02*
X98425657Y-84747142D01*
X98425657Y-84747142D02*
X98425657Y-84632857D01*
X98425657Y-84632857D02*
X98463752Y-84556666D01*
X98463752Y-84556666D02*
X98501847Y-84518571D01*
X98501847Y-84518571D02*
X98578038Y-84480476D01*
X98578038Y-84480476D02*
X98768514Y-84480476D01*
X98768514Y-84480476D02*
X98844704Y-84518571D01*
X98844704Y-84518571D02*
X98882800Y-84556666D01*
X98882800Y-84556666D02*
X98920895Y-84632857D01*
X98920895Y-84632857D02*
X98920895Y-84861428D01*
X98920895Y-84861428D02*
X98882800Y-84937619D01*
X98882800Y-84937619D02*
X98844704Y-84975714D01*
X101206941Y-74201180D02*
X101168845Y-74315466D01*
X101168845Y-74315466D02*
X101168845Y-74505942D01*
X101168845Y-74505942D02*
X101206941Y-74582133D01*
X101206941Y-74582133D02*
X101245036Y-74620228D01*
X101245036Y-74620228D02*
X101321226Y-74658323D01*
X101321226Y-74658323D02*
X101397417Y-74658323D01*
X101397417Y-74658323D02*
X101473607Y-74620228D01*
X101473607Y-74620228D02*
X101511702Y-74582133D01*
X101511702Y-74582133D02*
X101549798Y-74505942D01*
X101549798Y-74505942D02*
X101587893Y-74353561D01*
X101587893Y-74353561D02*
X101625988Y-74277371D01*
X101625988Y-74277371D02*
X101664083Y-74239276D01*
X101664083Y-74239276D02*
X101740274Y-74201180D01*
X101740274Y-74201180D02*
X101816464Y-74201180D01*
X101816464Y-74201180D02*
X101892655Y-74239276D01*
X101892655Y-74239276D02*
X101930750Y-74277371D01*
X101930750Y-74277371D02*
X101968845Y-74353561D01*
X101968845Y-74353561D02*
X101968845Y-74544038D01*
X101968845Y-74544038D02*
X101930750Y-74658323D01*
X101168845Y-75001181D02*
X101968845Y-75001181D01*
X101968845Y-75001181D02*
X101968845Y-75191657D01*
X101968845Y-75191657D02*
X101930750Y-75305943D01*
X101930750Y-75305943D02*
X101854560Y-75382133D01*
X101854560Y-75382133D02*
X101778369Y-75420228D01*
X101778369Y-75420228D02*
X101625988Y-75458324D01*
X101625988Y-75458324D02*
X101511702Y-75458324D01*
X101511702Y-75458324D02*
X101359321Y-75420228D01*
X101359321Y-75420228D02*
X101283131Y-75382133D01*
X101283131Y-75382133D02*
X101206941Y-75305943D01*
X101206941Y-75305943D02*
X101168845Y-75191657D01*
X101168845Y-75191657D02*
X101168845Y-75001181D01*
X101968845Y-75953562D02*
X101968845Y-76105943D01*
X101968845Y-76105943D02*
X101930750Y-76182133D01*
X101930750Y-76182133D02*
X101854560Y-76258324D01*
X101854560Y-76258324D02*
X101702179Y-76296419D01*
X101702179Y-76296419D02*
X101435512Y-76296419D01*
X101435512Y-76296419D02*
X101283131Y-76258324D01*
X101283131Y-76258324D02*
X101206941Y-76182133D01*
X101206941Y-76182133D02*
X101168845Y-76105943D01*
X101168845Y-76105943D02*
X101168845Y-75953562D01*
X101168845Y-75953562D02*
X101206941Y-75877371D01*
X101206941Y-75877371D02*
X101283131Y-75801181D01*
X101283131Y-75801181D02*
X101435512Y-75763085D01*
X101435512Y-75763085D02*
X101702179Y-75763085D01*
X101702179Y-75763085D02*
X101854560Y-75801181D01*
X101854560Y-75801181D02*
X101930750Y-75877371D01*
X101930750Y-75877371D02*
X101968845Y-75953562D01*
X94983381Y-64600895D02*
X94983381Y-63800895D01*
X94983381Y-63800895D02*
X95250047Y-64372323D01*
X95250047Y-64372323D02*
X95516714Y-63800895D01*
X95516714Y-63800895D02*
X95516714Y-64600895D01*
X95821476Y-63800895D02*
X96316714Y-63800895D01*
X96316714Y-63800895D02*
X96050048Y-64105657D01*
X96050048Y-64105657D02*
X96164333Y-64105657D01*
X96164333Y-64105657D02*
X96240524Y-64143752D01*
X96240524Y-64143752D02*
X96278619Y-64181847D01*
X96278619Y-64181847D02*
X96316714Y-64258038D01*
X96316714Y-64258038D02*
X96316714Y-64448514D01*
X96316714Y-64448514D02*
X96278619Y-64524704D01*
X96278619Y-64524704D02*
X96240524Y-64562800D01*
X96240524Y-64562800D02*
X96164333Y-64600895D01*
X96164333Y-64600895D02*
X95935762Y-64600895D01*
X95935762Y-64600895D02*
X95859571Y-64562800D01*
X95859571Y-64562800D02*
X95821476Y-64524704D01*
X95294572Y-76742704D02*
X95256476Y-76780800D01*
X95256476Y-76780800D02*
X95142191Y-76818895D01*
X95142191Y-76818895D02*
X95066000Y-76818895D01*
X95066000Y-76818895D02*
X94951714Y-76780800D01*
X94951714Y-76780800D02*
X94875524Y-76704609D01*
X94875524Y-76704609D02*
X94837429Y-76628419D01*
X94837429Y-76628419D02*
X94799333Y-76476038D01*
X94799333Y-76476038D02*
X94799333Y-76361752D01*
X94799333Y-76361752D02*
X94837429Y-76209371D01*
X94837429Y-76209371D02*
X94875524Y-76133180D01*
X94875524Y-76133180D02*
X94951714Y-76056990D01*
X94951714Y-76056990D02*
X95066000Y-76018895D01*
X95066000Y-76018895D02*
X95142191Y-76018895D01*
X95142191Y-76018895D02*
X95256476Y-76056990D01*
X95256476Y-76056990D02*
X95294572Y-76095085D01*
X95637429Y-76018895D02*
X95637429Y-76666514D01*
X95637429Y-76666514D02*
X95675524Y-76742704D01*
X95675524Y-76742704D02*
X95713619Y-76780800D01*
X95713619Y-76780800D02*
X95789810Y-76818895D01*
X95789810Y-76818895D02*
X95942191Y-76818895D01*
X95942191Y-76818895D02*
X96018381Y-76780800D01*
X96018381Y-76780800D02*
X96056476Y-76742704D01*
X96056476Y-76742704D02*
X96094572Y-76666514D01*
X96094572Y-76666514D02*
X96094572Y-76018895D01*
X96932667Y-76818895D02*
X96666000Y-76437942D01*
X96475524Y-76818895D02*
X96475524Y-76018895D01*
X96475524Y-76018895D02*
X96780286Y-76018895D01*
X96780286Y-76018895D02*
X96856476Y-76056990D01*
X96856476Y-76056990D02*
X96894571Y-76095085D01*
X96894571Y-76095085D02*
X96932667Y-76171276D01*
X96932667Y-76171276D02*
X96932667Y-76285561D01*
X96932667Y-76285561D02*
X96894571Y-76361752D01*
X96894571Y-76361752D02*
X96856476Y-76399847D01*
X96856476Y-76399847D02*
X96780286Y-76437942D01*
X96780286Y-76437942D02*
X96475524Y-76437942D01*
X97732667Y-76818895D02*
X97466000Y-76437942D01*
X97275524Y-76818895D02*
X97275524Y-76018895D01*
X97275524Y-76018895D02*
X97580286Y-76018895D01*
X97580286Y-76018895D02*
X97656476Y-76056990D01*
X97656476Y-76056990D02*
X97694571Y-76095085D01*
X97694571Y-76095085D02*
X97732667Y-76171276D01*
X97732667Y-76171276D02*
X97732667Y-76285561D01*
X97732667Y-76285561D02*
X97694571Y-76361752D01*
X97694571Y-76361752D02*
X97656476Y-76399847D01*
X97656476Y-76399847D02*
X97580286Y-76437942D01*
X97580286Y-76437942D02*
X97275524Y-76437942D01*
X129104800Y-85801124D02*
X129142895Y-85686838D01*
X129142895Y-85686838D02*
X129142895Y-85496362D01*
X129142895Y-85496362D02*
X129104800Y-85420171D01*
X129104800Y-85420171D02*
X129066704Y-85382076D01*
X129066704Y-85382076D02*
X128990514Y-85343981D01*
X128990514Y-85343981D02*
X128914323Y-85343981D01*
X128914323Y-85343981D02*
X128838133Y-85382076D01*
X128838133Y-85382076D02*
X128800038Y-85420171D01*
X128800038Y-85420171D02*
X128761942Y-85496362D01*
X128761942Y-85496362D02*
X128723847Y-85648743D01*
X128723847Y-85648743D02*
X128685752Y-85724933D01*
X128685752Y-85724933D02*
X128647657Y-85763028D01*
X128647657Y-85763028D02*
X128571466Y-85801124D01*
X128571466Y-85801124D02*
X128495276Y-85801124D01*
X128495276Y-85801124D02*
X128419085Y-85763028D01*
X128419085Y-85763028D02*
X128380990Y-85724933D01*
X128380990Y-85724933D02*
X128342895Y-85648743D01*
X128342895Y-85648743D02*
X128342895Y-85458266D01*
X128342895Y-85458266D02*
X128380990Y-85343981D01*
X129142895Y-84582076D02*
X129142895Y-85039219D01*
X129142895Y-84810647D02*
X128342895Y-84810647D01*
X128342895Y-84810647D02*
X128457180Y-84886838D01*
X128457180Y-84886838D02*
X128533371Y-84963028D01*
X128533371Y-84963028D02*
X128571466Y-85039219D01*
X106296882Y-74249371D02*
X106258786Y-74363657D01*
X106258786Y-74363657D02*
X106258786Y-74554133D01*
X106258786Y-74554133D02*
X106296882Y-74630324D01*
X106296882Y-74630324D02*
X106334977Y-74668419D01*
X106334977Y-74668419D02*
X106411167Y-74706514D01*
X106411167Y-74706514D02*
X106487358Y-74706514D01*
X106487358Y-74706514D02*
X106563548Y-74668419D01*
X106563548Y-74668419D02*
X106601643Y-74630324D01*
X106601643Y-74630324D02*
X106639739Y-74554133D01*
X106639739Y-74554133D02*
X106677834Y-74401752D01*
X106677834Y-74401752D02*
X106715929Y-74325562D01*
X106715929Y-74325562D02*
X106754024Y-74287467D01*
X106754024Y-74287467D02*
X106830215Y-74249371D01*
X106830215Y-74249371D02*
X106906405Y-74249371D01*
X106906405Y-74249371D02*
X106982596Y-74287467D01*
X106982596Y-74287467D02*
X107020691Y-74325562D01*
X107020691Y-74325562D02*
X107058786Y-74401752D01*
X107058786Y-74401752D02*
X107058786Y-74592229D01*
X107058786Y-74592229D02*
X107020691Y-74706514D01*
X106258786Y-75049372D02*
X107058786Y-75049372D01*
X107058786Y-75049372D02*
X107058786Y-75239848D01*
X107058786Y-75239848D02*
X107020691Y-75354134D01*
X107020691Y-75354134D02*
X106944501Y-75430324D01*
X106944501Y-75430324D02*
X106868310Y-75468419D01*
X106868310Y-75468419D02*
X106715929Y-75506515D01*
X106715929Y-75506515D02*
X106601643Y-75506515D01*
X106601643Y-75506515D02*
X106449262Y-75468419D01*
X106449262Y-75468419D02*
X106373072Y-75430324D01*
X106373072Y-75430324D02*
X106296882Y-75354134D01*
X106296882Y-75354134D02*
X106258786Y-75239848D01*
X106258786Y-75239848D02*
X106258786Y-75049372D01*
X106487358Y-75811276D02*
X106487358Y-76192229D01*
X106258786Y-75735086D02*
X107058786Y-76001753D01*
X107058786Y-76001753D02*
X106258786Y-76268419D01*
X134467619Y-81987895D02*
X134086667Y-81987895D01*
X134086667Y-81987895D02*
X134048571Y-82368847D01*
X134048571Y-82368847D02*
X134086667Y-82330752D01*
X134086667Y-82330752D02*
X134162857Y-82292657D01*
X134162857Y-82292657D02*
X134353333Y-82292657D01*
X134353333Y-82292657D02*
X134429524Y-82330752D01*
X134429524Y-82330752D02*
X134467619Y-82368847D01*
X134467619Y-82368847D02*
X134505714Y-82445038D01*
X134505714Y-82445038D02*
X134505714Y-82635514D01*
X134505714Y-82635514D02*
X134467619Y-82711704D01*
X134467619Y-82711704D02*
X134429524Y-82749800D01*
X134429524Y-82749800D02*
X134353333Y-82787895D01*
X134353333Y-82787895D02*
X134162857Y-82787895D01*
X134162857Y-82787895D02*
X134086667Y-82749800D01*
X134086667Y-82749800D02*
X134048571Y-82711704D01*
X134734286Y-81987895D02*
X135000953Y-82787895D01*
X135000953Y-82787895D02*
X135267619Y-81987895D01*
X129721104Y-78712661D02*
X129721104Y-79207899D01*
X129721104Y-79207899D02*
X129416342Y-78941233D01*
X129416342Y-78941233D02*
X129416342Y-79055518D01*
X129416342Y-79055518D02*
X129378247Y-79131709D01*
X129378247Y-79131709D02*
X129340152Y-79169804D01*
X129340152Y-79169804D02*
X129263961Y-79207899D01*
X129263961Y-79207899D02*
X129073485Y-79207899D01*
X129073485Y-79207899D02*
X128997295Y-79169804D01*
X128997295Y-79169804D02*
X128959200Y-79131709D01*
X128959200Y-79131709D02*
X128921104Y-79055518D01*
X128921104Y-79055518D02*
X128921104Y-78826947D01*
X128921104Y-78826947D02*
X128959200Y-78750756D01*
X128959200Y-78750756D02*
X128997295Y-78712661D01*
X128997295Y-79550757D02*
X128959200Y-79588852D01*
X128959200Y-79588852D02*
X128921104Y-79550757D01*
X128921104Y-79550757D02*
X128959200Y-79512661D01*
X128959200Y-79512661D02*
X128997295Y-79550757D01*
X128997295Y-79550757D02*
X128921104Y-79550757D01*
X129721104Y-79855518D02*
X129721104Y-80350756D01*
X129721104Y-80350756D02*
X129416342Y-80084090D01*
X129416342Y-80084090D02*
X129416342Y-80198375D01*
X129416342Y-80198375D02*
X129378247Y-80274566D01*
X129378247Y-80274566D02*
X129340152Y-80312661D01*
X129340152Y-80312661D02*
X129263961Y-80350756D01*
X129263961Y-80350756D02*
X129073485Y-80350756D01*
X129073485Y-80350756D02*
X128997295Y-80312661D01*
X128997295Y-80312661D02*
X128959200Y-80274566D01*
X128959200Y-80274566D02*
X128921104Y-80198375D01*
X128921104Y-80198375D02*
X128921104Y-79969804D01*
X128921104Y-79969804D02*
X128959200Y-79893613D01*
X128959200Y-79893613D02*
X128997295Y-79855518D01*
X129721104Y-80579328D02*
X128921104Y-80845995D01*
X128921104Y-80845995D02*
X129721104Y-81112661D01*
X106226200Y-33750380D02*
X106188104Y-33864666D01*
X106188104Y-33864666D02*
X106188104Y-34055142D01*
X106188104Y-34055142D02*
X106226200Y-34131333D01*
X106226200Y-34131333D02*
X106264295Y-34169428D01*
X106264295Y-34169428D02*
X106340485Y-34207523D01*
X106340485Y-34207523D02*
X106416676Y-34207523D01*
X106416676Y-34207523D02*
X106492866Y-34169428D01*
X106492866Y-34169428D02*
X106530961Y-34131333D01*
X106530961Y-34131333D02*
X106569057Y-34055142D01*
X106569057Y-34055142D02*
X106607152Y-33902761D01*
X106607152Y-33902761D02*
X106645247Y-33826571D01*
X106645247Y-33826571D02*
X106683342Y-33788476D01*
X106683342Y-33788476D02*
X106759533Y-33750380D01*
X106759533Y-33750380D02*
X106835723Y-33750380D01*
X106835723Y-33750380D02*
X106911914Y-33788476D01*
X106911914Y-33788476D02*
X106950009Y-33826571D01*
X106950009Y-33826571D02*
X106988104Y-33902761D01*
X106988104Y-33902761D02*
X106988104Y-34093238D01*
X106988104Y-34093238D02*
X106950009Y-34207523D01*
X106188104Y-34550381D02*
X106988104Y-34550381D01*
X106988104Y-34550381D02*
X106988104Y-34740857D01*
X106988104Y-34740857D02*
X106950009Y-34855143D01*
X106950009Y-34855143D02*
X106873819Y-34931333D01*
X106873819Y-34931333D02*
X106797628Y-34969428D01*
X106797628Y-34969428D02*
X106645247Y-35007524D01*
X106645247Y-35007524D02*
X106530961Y-35007524D01*
X106530961Y-35007524D02*
X106378580Y-34969428D01*
X106378580Y-34969428D02*
X106302390Y-34931333D01*
X106302390Y-34931333D02*
X106226200Y-34855143D01*
X106226200Y-34855143D02*
X106188104Y-34740857D01*
X106188104Y-34740857D02*
X106188104Y-34550381D01*
X106988104Y-35502762D02*
X106988104Y-35655143D01*
X106988104Y-35655143D02*
X106950009Y-35731333D01*
X106950009Y-35731333D02*
X106873819Y-35807524D01*
X106873819Y-35807524D02*
X106721438Y-35845619D01*
X106721438Y-35845619D02*
X106454771Y-35845619D01*
X106454771Y-35845619D02*
X106302390Y-35807524D01*
X106302390Y-35807524D02*
X106226200Y-35731333D01*
X106226200Y-35731333D02*
X106188104Y-35655143D01*
X106188104Y-35655143D02*
X106188104Y-35502762D01*
X106188104Y-35502762D02*
X106226200Y-35426571D01*
X106226200Y-35426571D02*
X106302390Y-35350381D01*
X106302390Y-35350381D02*
X106454771Y-35312285D01*
X106454771Y-35312285D02*
X106721438Y-35312285D01*
X106721438Y-35312285D02*
X106873819Y-35350381D01*
X106873819Y-35350381D02*
X106950009Y-35426571D01*
X106950009Y-35426571D02*
X106988104Y-35502762D01*
X133121523Y-44776895D02*
X133578666Y-44776895D01*
X133350094Y-45576895D02*
X133350094Y-44776895D01*
X133769142Y-44776895D02*
X134302476Y-45576895D01*
X134302476Y-44776895D02*
X133769142Y-45576895D01*
X134569142Y-44853085D02*
X134607238Y-44814990D01*
X134607238Y-44814990D02*
X134683428Y-44776895D01*
X134683428Y-44776895D02*
X134873904Y-44776895D01*
X134873904Y-44776895D02*
X134950095Y-44814990D01*
X134950095Y-44814990D02*
X134988190Y-44853085D01*
X134988190Y-44853085D02*
X135026285Y-44929276D01*
X135026285Y-44929276D02*
X135026285Y-45005466D01*
X135026285Y-45005466D02*
X134988190Y-45119752D01*
X134988190Y-45119752D02*
X134531047Y-45576895D01*
X134531047Y-45576895D02*
X135026285Y-45576895D01*
X113719200Y-33845618D02*
X113681104Y-33959904D01*
X113681104Y-33959904D02*
X113681104Y-34150380D01*
X113681104Y-34150380D02*
X113719200Y-34226571D01*
X113719200Y-34226571D02*
X113757295Y-34264666D01*
X113757295Y-34264666D02*
X113833485Y-34302761D01*
X113833485Y-34302761D02*
X113909676Y-34302761D01*
X113909676Y-34302761D02*
X113985866Y-34264666D01*
X113985866Y-34264666D02*
X114023961Y-34226571D01*
X114023961Y-34226571D02*
X114062057Y-34150380D01*
X114062057Y-34150380D02*
X114100152Y-33997999D01*
X114100152Y-33997999D02*
X114138247Y-33921809D01*
X114138247Y-33921809D02*
X114176342Y-33883714D01*
X114176342Y-33883714D02*
X114252533Y-33845618D01*
X114252533Y-33845618D02*
X114328723Y-33845618D01*
X114328723Y-33845618D02*
X114404914Y-33883714D01*
X114404914Y-33883714D02*
X114443009Y-33921809D01*
X114443009Y-33921809D02*
X114481104Y-33997999D01*
X114481104Y-33997999D02*
X114481104Y-34188476D01*
X114481104Y-34188476D02*
X114443009Y-34302761D01*
X113757295Y-35102762D02*
X113719200Y-35064666D01*
X113719200Y-35064666D02*
X113681104Y-34950381D01*
X113681104Y-34950381D02*
X113681104Y-34874190D01*
X113681104Y-34874190D02*
X113719200Y-34759904D01*
X113719200Y-34759904D02*
X113795390Y-34683714D01*
X113795390Y-34683714D02*
X113871580Y-34645619D01*
X113871580Y-34645619D02*
X114023961Y-34607523D01*
X114023961Y-34607523D02*
X114138247Y-34607523D01*
X114138247Y-34607523D02*
X114290628Y-34645619D01*
X114290628Y-34645619D02*
X114366819Y-34683714D01*
X114366819Y-34683714D02*
X114443009Y-34759904D01*
X114443009Y-34759904D02*
X114481104Y-34874190D01*
X114481104Y-34874190D02*
X114481104Y-34950381D01*
X114481104Y-34950381D02*
X114443009Y-35064666D01*
X114443009Y-35064666D02*
X114404914Y-35102762D01*
X113681104Y-35826571D02*
X113681104Y-35445619D01*
X113681104Y-35445619D02*
X114481104Y-35445619D01*
X133597714Y-66405895D02*
X133331047Y-66024942D01*
X133140571Y-66405895D02*
X133140571Y-65605895D01*
X133140571Y-65605895D02*
X133445333Y-65605895D01*
X133445333Y-65605895D02*
X133521523Y-65643990D01*
X133521523Y-65643990D02*
X133559618Y-65682085D01*
X133559618Y-65682085D02*
X133597714Y-65758276D01*
X133597714Y-65758276D02*
X133597714Y-65872561D01*
X133597714Y-65872561D02*
X133559618Y-65948752D01*
X133559618Y-65948752D02*
X133521523Y-65986847D01*
X133521523Y-65986847D02*
X133445333Y-66024942D01*
X133445333Y-66024942D02*
X133140571Y-66024942D01*
X133864380Y-65605895D02*
X134397714Y-66405895D01*
X134397714Y-65605895D02*
X133864380Y-66405895D01*
X135121523Y-66405895D02*
X134664380Y-66405895D01*
X134892952Y-66405895D02*
X134892952Y-65605895D01*
X134892952Y-65605895D02*
X134816761Y-65720180D01*
X134816761Y-65720180D02*
X134740571Y-65796371D01*
X134740571Y-65796371D02*
X134664380Y-65834466D01*
X134438614Y-37466310D02*
X134057662Y-37466310D01*
X134057662Y-37466310D02*
X134019566Y-37847262D01*
X134019566Y-37847262D02*
X134057662Y-37809167D01*
X134057662Y-37809167D02*
X134133852Y-37771072D01*
X134133852Y-37771072D02*
X134324328Y-37771072D01*
X134324328Y-37771072D02*
X134400519Y-37809167D01*
X134400519Y-37809167D02*
X134438614Y-37847262D01*
X134438614Y-37847262D02*
X134476709Y-37923453D01*
X134476709Y-37923453D02*
X134476709Y-38113929D01*
X134476709Y-38113929D02*
X134438614Y-38190119D01*
X134438614Y-38190119D02*
X134400519Y-38228215D01*
X134400519Y-38228215D02*
X134324328Y-38266310D01*
X134324328Y-38266310D02*
X134133852Y-38266310D01*
X134133852Y-38266310D02*
X134057662Y-38228215D01*
X134057662Y-38228215D02*
X134019566Y-38190119D01*
X134705281Y-37466310D02*
X134971948Y-38266310D01*
X134971948Y-38266310D02*
X135238614Y-37466310D01*
X133597714Y-52688895D02*
X133331047Y-52307942D01*
X133140571Y-52688895D02*
X133140571Y-51888895D01*
X133140571Y-51888895D02*
X133445333Y-51888895D01*
X133445333Y-51888895D02*
X133521523Y-51926990D01*
X133521523Y-51926990D02*
X133559618Y-51965085D01*
X133559618Y-51965085D02*
X133597714Y-52041276D01*
X133597714Y-52041276D02*
X133597714Y-52155561D01*
X133597714Y-52155561D02*
X133559618Y-52231752D01*
X133559618Y-52231752D02*
X133521523Y-52269847D01*
X133521523Y-52269847D02*
X133445333Y-52307942D01*
X133445333Y-52307942D02*
X133140571Y-52307942D01*
X133864380Y-51888895D02*
X134397714Y-52688895D01*
X134397714Y-51888895D02*
X133864380Y-52688895D01*
X134626285Y-51888895D02*
X135121523Y-51888895D01*
X135121523Y-51888895D02*
X134854857Y-52193657D01*
X134854857Y-52193657D02*
X134969142Y-52193657D01*
X134969142Y-52193657D02*
X135045333Y-52231752D01*
X135045333Y-52231752D02*
X135083428Y-52269847D01*
X135083428Y-52269847D02*
X135121523Y-52346038D01*
X135121523Y-52346038D02*
X135121523Y-52536514D01*
X135121523Y-52536514D02*
X135083428Y-52612704D01*
X135083428Y-52612704D02*
X135045333Y-52650800D01*
X135045333Y-52650800D02*
X134969142Y-52688895D01*
X134969142Y-52688895D02*
X134740571Y-52688895D01*
X134740571Y-52688895D02*
X134664380Y-52650800D01*
X134664380Y-52650800D02*
X134626285Y-52612704D01*
X133558632Y-39227360D02*
X133482442Y-39189265D01*
X133482442Y-39189265D02*
X133368156Y-39189265D01*
X133368156Y-39189265D02*
X133253870Y-39227360D01*
X133253870Y-39227360D02*
X133177680Y-39303550D01*
X133177680Y-39303550D02*
X133139585Y-39379741D01*
X133139585Y-39379741D02*
X133101489Y-39532122D01*
X133101489Y-39532122D02*
X133101489Y-39646408D01*
X133101489Y-39646408D02*
X133139585Y-39798789D01*
X133139585Y-39798789D02*
X133177680Y-39874979D01*
X133177680Y-39874979D02*
X133253870Y-39951170D01*
X133253870Y-39951170D02*
X133368156Y-39989265D01*
X133368156Y-39989265D02*
X133444347Y-39989265D01*
X133444347Y-39989265D02*
X133558632Y-39951170D01*
X133558632Y-39951170D02*
X133596728Y-39913074D01*
X133596728Y-39913074D02*
X133596728Y-39646408D01*
X133596728Y-39646408D02*
X133444347Y-39646408D01*
X133939585Y-39989265D02*
X133939585Y-39189265D01*
X133939585Y-39189265D02*
X134396728Y-39989265D01*
X134396728Y-39989265D02*
X134396728Y-39189265D01*
X134777680Y-39989265D02*
X134777680Y-39189265D01*
X134777680Y-39189265D02*
X134968156Y-39189265D01*
X134968156Y-39189265D02*
X135082442Y-39227360D01*
X135082442Y-39227360D02*
X135158632Y-39303550D01*
X135158632Y-39303550D02*
X135196727Y-39379741D01*
X135196727Y-39379741D02*
X135234823Y-39532122D01*
X135234823Y-39532122D02*
X135234823Y-39646408D01*
X135234823Y-39646408D02*
X135196727Y-39798789D01*
X135196727Y-39798789D02*
X135158632Y-39874979D01*
X135158632Y-39874979D02*
X135082442Y-39951170D01*
X135082442Y-39951170D02*
X134968156Y-39989265D01*
X134968156Y-39989265D02*
X134777680Y-39989265D01*
X95224619Y-40839895D02*
X94843667Y-40839895D01*
X94843667Y-40839895D02*
X94805571Y-41220847D01*
X94805571Y-41220847D02*
X94843667Y-41182752D01*
X94843667Y-41182752D02*
X94919857Y-41144657D01*
X94919857Y-41144657D02*
X95110333Y-41144657D01*
X95110333Y-41144657D02*
X95186524Y-41182752D01*
X95186524Y-41182752D02*
X95224619Y-41220847D01*
X95224619Y-41220847D02*
X95262714Y-41297038D01*
X95262714Y-41297038D02*
X95262714Y-41487514D01*
X95262714Y-41487514D02*
X95224619Y-41563704D01*
X95224619Y-41563704D02*
X95186524Y-41601800D01*
X95186524Y-41601800D02*
X95110333Y-41639895D01*
X95110333Y-41639895D02*
X94919857Y-41639895D01*
X94919857Y-41639895D02*
X94843667Y-41601800D01*
X94843667Y-41601800D02*
X94805571Y-41563704D01*
X95491286Y-40839895D02*
X95757953Y-41639895D01*
X95757953Y-41639895D02*
X96024619Y-40839895D01*
X119815104Y-33617047D02*
X119815104Y-34112285D01*
X119815104Y-34112285D02*
X119510342Y-33845619D01*
X119510342Y-33845619D02*
X119510342Y-33959904D01*
X119510342Y-33959904D02*
X119472247Y-34036095D01*
X119472247Y-34036095D02*
X119434152Y-34074190D01*
X119434152Y-34074190D02*
X119357961Y-34112285D01*
X119357961Y-34112285D02*
X119167485Y-34112285D01*
X119167485Y-34112285D02*
X119091295Y-34074190D01*
X119091295Y-34074190D02*
X119053200Y-34036095D01*
X119053200Y-34036095D02*
X119015104Y-33959904D01*
X119015104Y-33959904D02*
X119015104Y-33731333D01*
X119015104Y-33731333D02*
X119053200Y-33655142D01*
X119053200Y-33655142D02*
X119091295Y-33617047D01*
X119091295Y-34455143D02*
X119053200Y-34493238D01*
X119053200Y-34493238D02*
X119015104Y-34455143D01*
X119015104Y-34455143D02*
X119053200Y-34417047D01*
X119053200Y-34417047D02*
X119091295Y-34455143D01*
X119091295Y-34455143D02*
X119015104Y-34455143D01*
X119815104Y-34759904D02*
X119815104Y-35255142D01*
X119815104Y-35255142D02*
X119510342Y-34988476D01*
X119510342Y-34988476D02*
X119510342Y-35102761D01*
X119510342Y-35102761D02*
X119472247Y-35178952D01*
X119472247Y-35178952D02*
X119434152Y-35217047D01*
X119434152Y-35217047D02*
X119357961Y-35255142D01*
X119357961Y-35255142D02*
X119167485Y-35255142D01*
X119167485Y-35255142D02*
X119091295Y-35217047D01*
X119091295Y-35217047D02*
X119053200Y-35178952D01*
X119053200Y-35178952D02*
X119015104Y-35102761D01*
X119015104Y-35102761D02*
X119015104Y-34874190D01*
X119015104Y-34874190D02*
X119053200Y-34797999D01*
X119053200Y-34797999D02*
X119091295Y-34759904D01*
X119815104Y-35483714D02*
X119015104Y-35750381D01*
X119015104Y-35750381D02*
X119815104Y-36017047D01*
X108826941Y-74268418D02*
X108788845Y-74382704D01*
X108788845Y-74382704D02*
X108788845Y-74573180D01*
X108788845Y-74573180D02*
X108826941Y-74649371D01*
X108826941Y-74649371D02*
X108865036Y-74687466D01*
X108865036Y-74687466D02*
X108941226Y-74725561D01*
X108941226Y-74725561D02*
X109017417Y-74725561D01*
X109017417Y-74725561D02*
X109093607Y-74687466D01*
X109093607Y-74687466D02*
X109131702Y-74649371D01*
X109131702Y-74649371D02*
X109169798Y-74573180D01*
X109169798Y-74573180D02*
X109207893Y-74420799D01*
X109207893Y-74420799D02*
X109245988Y-74344609D01*
X109245988Y-74344609D02*
X109284083Y-74306514D01*
X109284083Y-74306514D02*
X109360274Y-74268418D01*
X109360274Y-74268418D02*
X109436464Y-74268418D01*
X109436464Y-74268418D02*
X109512655Y-74306514D01*
X109512655Y-74306514D02*
X109550750Y-74344609D01*
X109550750Y-74344609D02*
X109588845Y-74420799D01*
X109588845Y-74420799D02*
X109588845Y-74611276D01*
X109588845Y-74611276D02*
X109550750Y-74725561D01*
X108865036Y-75525562D02*
X108826941Y-75487466D01*
X108826941Y-75487466D02*
X108788845Y-75373181D01*
X108788845Y-75373181D02*
X108788845Y-75296990D01*
X108788845Y-75296990D02*
X108826941Y-75182704D01*
X108826941Y-75182704D02*
X108903131Y-75106514D01*
X108903131Y-75106514D02*
X108979321Y-75068419D01*
X108979321Y-75068419D02*
X109131702Y-75030323D01*
X109131702Y-75030323D02*
X109245988Y-75030323D01*
X109245988Y-75030323D02*
X109398369Y-75068419D01*
X109398369Y-75068419D02*
X109474560Y-75106514D01*
X109474560Y-75106514D02*
X109550750Y-75182704D01*
X109550750Y-75182704D02*
X109588845Y-75296990D01*
X109588845Y-75296990D02*
X109588845Y-75373181D01*
X109588845Y-75373181D02*
X109550750Y-75487466D01*
X109550750Y-75487466D02*
X109512655Y-75525562D01*
X108788845Y-76249371D02*
X108788845Y-75868419D01*
X108788845Y-75868419D02*
X109588845Y-75868419D01*
X117237009Y-34188476D02*
X117275104Y-34112286D01*
X117275104Y-34112286D02*
X117275104Y-33998000D01*
X117275104Y-33998000D02*
X117237009Y-33883714D01*
X117237009Y-33883714D02*
X117160819Y-33807524D01*
X117160819Y-33807524D02*
X117084628Y-33769429D01*
X117084628Y-33769429D02*
X116932247Y-33731333D01*
X116932247Y-33731333D02*
X116817961Y-33731333D01*
X116817961Y-33731333D02*
X116665580Y-33769429D01*
X116665580Y-33769429D02*
X116589390Y-33807524D01*
X116589390Y-33807524D02*
X116513200Y-33883714D01*
X116513200Y-33883714D02*
X116475104Y-33998000D01*
X116475104Y-33998000D02*
X116475104Y-34074191D01*
X116475104Y-34074191D02*
X116513200Y-34188476D01*
X116513200Y-34188476D02*
X116551295Y-34226572D01*
X116551295Y-34226572D02*
X116817961Y-34226572D01*
X116817961Y-34226572D02*
X116817961Y-34074191D01*
X116475104Y-34569429D02*
X117275104Y-34569429D01*
X117275104Y-34569429D02*
X116475104Y-35026572D01*
X116475104Y-35026572D02*
X117275104Y-35026572D01*
X116475104Y-35407524D02*
X117275104Y-35407524D01*
X117275104Y-35407524D02*
X117275104Y-35598000D01*
X117275104Y-35598000D02*
X117237009Y-35712286D01*
X117237009Y-35712286D02*
X117160819Y-35788476D01*
X117160819Y-35788476D02*
X117084628Y-35826571D01*
X117084628Y-35826571D02*
X116932247Y-35864667D01*
X116932247Y-35864667D02*
X116817961Y-35864667D01*
X116817961Y-35864667D02*
X116665580Y-35826571D01*
X116665580Y-35826571D02*
X116589390Y-35788476D01*
X116589390Y-35788476D02*
X116513200Y-35712286D01*
X116513200Y-35712286D02*
X116475104Y-35598000D01*
X116475104Y-35598000D02*
X116475104Y-35407524D01*
X94983381Y-62314895D02*
X94983381Y-61514895D01*
X94983381Y-61514895D02*
X95250047Y-62086323D01*
X95250047Y-62086323D02*
X95516714Y-61514895D01*
X95516714Y-61514895D02*
X95516714Y-62314895D01*
X96240524Y-61781561D02*
X96240524Y-62314895D01*
X96050048Y-61476800D02*
X95859571Y-62048228D01*
X95859571Y-62048228D02*
X96354810Y-62048228D01*
X123879200Y-78941232D02*
X123841104Y-79055518D01*
X123841104Y-79055518D02*
X123841104Y-79245994D01*
X123841104Y-79245994D02*
X123879200Y-79322185D01*
X123879200Y-79322185D02*
X123917295Y-79360280D01*
X123917295Y-79360280D02*
X123993485Y-79398375D01*
X123993485Y-79398375D02*
X124069676Y-79398375D01*
X124069676Y-79398375D02*
X124145866Y-79360280D01*
X124145866Y-79360280D02*
X124183961Y-79322185D01*
X124183961Y-79322185D02*
X124222057Y-79245994D01*
X124222057Y-79245994D02*
X124260152Y-79093613D01*
X124260152Y-79093613D02*
X124298247Y-79017423D01*
X124298247Y-79017423D02*
X124336342Y-78979328D01*
X124336342Y-78979328D02*
X124412533Y-78941232D01*
X124412533Y-78941232D02*
X124488723Y-78941232D01*
X124488723Y-78941232D02*
X124564914Y-78979328D01*
X124564914Y-78979328D02*
X124603009Y-79017423D01*
X124603009Y-79017423D02*
X124641104Y-79093613D01*
X124641104Y-79093613D02*
X124641104Y-79284090D01*
X124641104Y-79284090D02*
X124603009Y-79398375D01*
X123917295Y-80198376D02*
X123879200Y-80160280D01*
X123879200Y-80160280D02*
X123841104Y-80045995D01*
X123841104Y-80045995D02*
X123841104Y-79969804D01*
X123841104Y-79969804D02*
X123879200Y-79855518D01*
X123879200Y-79855518D02*
X123955390Y-79779328D01*
X123955390Y-79779328D02*
X124031580Y-79741233D01*
X124031580Y-79741233D02*
X124183961Y-79703137D01*
X124183961Y-79703137D02*
X124298247Y-79703137D01*
X124298247Y-79703137D02*
X124450628Y-79741233D01*
X124450628Y-79741233D02*
X124526819Y-79779328D01*
X124526819Y-79779328D02*
X124603009Y-79855518D01*
X124603009Y-79855518D02*
X124641104Y-79969804D01*
X124641104Y-79969804D02*
X124641104Y-80045995D01*
X124641104Y-80045995D02*
X124603009Y-80160280D01*
X124603009Y-80160280D02*
X124564914Y-80198376D01*
X123841104Y-80922185D02*
X123841104Y-80541233D01*
X123841104Y-80541233D02*
X124641104Y-80541233D01*
X110925200Y-33826571D02*
X110887104Y-33940857D01*
X110887104Y-33940857D02*
X110887104Y-34131333D01*
X110887104Y-34131333D02*
X110925200Y-34207524D01*
X110925200Y-34207524D02*
X110963295Y-34245619D01*
X110963295Y-34245619D02*
X111039485Y-34283714D01*
X111039485Y-34283714D02*
X111115676Y-34283714D01*
X111115676Y-34283714D02*
X111191866Y-34245619D01*
X111191866Y-34245619D02*
X111229961Y-34207524D01*
X111229961Y-34207524D02*
X111268057Y-34131333D01*
X111268057Y-34131333D02*
X111306152Y-33978952D01*
X111306152Y-33978952D02*
X111344247Y-33902762D01*
X111344247Y-33902762D02*
X111382342Y-33864667D01*
X111382342Y-33864667D02*
X111458533Y-33826571D01*
X111458533Y-33826571D02*
X111534723Y-33826571D01*
X111534723Y-33826571D02*
X111610914Y-33864667D01*
X111610914Y-33864667D02*
X111649009Y-33902762D01*
X111649009Y-33902762D02*
X111687104Y-33978952D01*
X111687104Y-33978952D02*
X111687104Y-34169429D01*
X111687104Y-34169429D02*
X111649009Y-34283714D01*
X110887104Y-34626572D02*
X111687104Y-34626572D01*
X111687104Y-34626572D02*
X111687104Y-34817048D01*
X111687104Y-34817048D02*
X111649009Y-34931334D01*
X111649009Y-34931334D02*
X111572819Y-35007524D01*
X111572819Y-35007524D02*
X111496628Y-35045619D01*
X111496628Y-35045619D02*
X111344247Y-35083715D01*
X111344247Y-35083715D02*
X111229961Y-35083715D01*
X111229961Y-35083715D02*
X111077580Y-35045619D01*
X111077580Y-35045619D02*
X111001390Y-35007524D01*
X111001390Y-35007524D02*
X110925200Y-34931334D01*
X110925200Y-34931334D02*
X110887104Y-34817048D01*
X110887104Y-34817048D02*
X110887104Y-34626572D01*
X111115676Y-35388476D02*
X111115676Y-35769429D01*
X110887104Y-35312286D02*
X111687104Y-35578953D01*
X111687104Y-35578953D02*
X110887104Y-35845619D01*
X103912036Y-74706467D02*
X103873941Y-74668371D01*
X103873941Y-74668371D02*
X103835845Y-74554086D01*
X103835845Y-74554086D02*
X103835845Y-74477895D01*
X103835845Y-74477895D02*
X103873941Y-74363609D01*
X103873941Y-74363609D02*
X103950131Y-74287419D01*
X103950131Y-74287419D02*
X104026321Y-74249324D01*
X104026321Y-74249324D02*
X104178702Y-74211228D01*
X104178702Y-74211228D02*
X104292988Y-74211228D01*
X104292988Y-74211228D02*
X104445369Y-74249324D01*
X104445369Y-74249324D02*
X104521560Y-74287419D01*
X104521560Y-74287419D02*
X104597750Y-74363609D01*
X104597750Y-74363609D02*
X104635845Y-74477895D01*
X104635845Y-74477895D02*
X104635845Y-74554086D01*
X104635845Y-74554086D02*
X104597750Y-74668371D01*
X104597750Y-74668371D02*
X104559655Y-74706467D01*
X103873941Y-75011228D02*
X103835845Y-75125514D01*
X103835845Y-75125514D02*
X103835845Y-75315990D01*
X103835845Y-75315990D02*
X103873941Y-75392181D01*
X103873941Y-75392181D02*
X103912036Y-75430276D01*
X103912036Y-75430276D02*
X103988226Y-75468371D01*
X103988226Y-75468371D02*
X104064417Y-75468371D01*
X104064417Y-75468371D02*
X104140607Y-75430276D01*
X104140607Y-75430276D02*
X104178702Y-75392181D01*
X104178702Y-75392181D02*
X104216798Y-75315990D01*
X104216798Y-75315990D02*
X104254893Y-75163609D01*
X104254893Y-75163609D02*
X104292988Y-75087419D01*
X104292988Y-75087419D02*
X104331083Y-75049324D01*
X104331083Y-75049324D02*
X104407274Y-75011228D01*
X104407274Y-75011228D02*
X104483464Y-75011228D01*
X104483464Y-75011228D02*
X104559655Y-75049324D01*
X104559655Y-75049324D02*
X104597750Y-75087419D01*
X104597750Y-75087419D02*
X104635845Y-75163609D01*
X104635845Y-75163609D02*
X104635845Y-75354086D01*
X104635845Y-75354086D02*
X104597750Y-75468371D01*
X108931295Y-34283667D02*
X108893200Y-34245571D01*
X108893200Y-34245571D02*
X108855104Y-34131286D01*
X108855104Y-34131286D02*
X108855104Y-34055095D01*
X108855104Y-34055095D02*
X108893200Y-33940809D01*
X108893200Y-33940809D02*
X108969390Y-33864619D01*
X108969390Y-33864619D02*
X109045580Y-33826524D01*
X109045580Y-33826524D02*
X109197961Y-33788428D01*
X109197961Y-33788428D02*
X109312247Y-33788428D01*
X109312247Y-33788428D02*
X109464628Y-33826524D01*
X109464628Y-33826524D02*
X109540819Y-33864619D01*
X109540819Y-33864619D02*
X109617009Y-33940809D01*
X109617009Y-33940809D02*
X109655104Y-34055095D01*
X109655104Y-34055095D02*
X109655104Y-34131286D01*
X109655104Y-34131286D02*
X109617009Y-34245571D01*
X109617009Y-34245571D02*
X109578914Y-34283667D01*
X108893200Y-34588428D02*
X108855104Y-34702714D01*
X108855104Y-34702714D02*
X108855104Y-34893190D01*
X108855104Y-34893190D02*
X108893200Y-34969381D01*
X108893200Y-34969381D02*
X108931295Y-35007476D01*
X108931295Y-35007476D02*
X109007485Y-35045571D01*
X109007485Y-35045571D02*
X109083676Y-35045571D01*
X109083676Y-35045571D02*
X109159866Y-35007476D01*
X109159866Y-35007476D02*
X109197961Y-34969381D01*
X109197961Y-34969381D02*
X109236057Y-34893190D01*
X109236057Y-34893190D02*
X109274152Y-34740809D01*
X109274152Y-34740809D02*
X109312247Y-34664619D01*
X109312247Y-34664619D02*
X109350342Y-34626524D01*
X109350342Y-34626524D02*
X109426533Y-34588428D01*
X109426533Y-34588428D02*
X109502723Y-34588428D01*
X109502723Y-34588428D02*
X109578914Y-34626524D01*
X109578914Y-34626524D02*
X109617009Y-34664619D01*
X109617009Y-34664619D02*
X109655104Y-34740809D01*
X109655104Y-34740809D02*
X109655104Y-34931286D01*
X109655104Y-34931286D02*
X109617009Y-35045571D01*
X94824714Y-78219895D02*
X95091381Y-79019895D01*
X95091381Y-79019895D02*
X95358047Y-78219895D01*
X95891380Y-78600847D02*
X96005666Y-78638942D01*
X96005666Y-78638942D02*
X96043761Y-78677038D01*
X96043761Y-78677038D02*
X96081857Y-78753228D01*
X96081857Y-78753228D02*
X96081857Y-78867514D01*
X96081857Y-78867514D02*
X96043761Y-78943704D01*
X96043761Y-78943704D02*
X96005666Y-78981800D01*
X96005666Y-78981800D02*
X95929476Y-79019895D01*
X95929476Y-79019895D02*
X95624714Y-79019895D01*
X95624714Y-79019895D02*
X95624714Y-78219895D01*
X95624714Y-78219895D02*
X95891380Y-78219895D01*
X95891380Y-78219895D02*
X95967571Y-78257990D01*
X95967571Y-78257990D02*
X96005666Y-78296085D01*
X96005666Y-78296085D02*
X96043761Y-78372276D01*
X96043761Y-78372276D02*
X96043761Y-78448466D01*
X96043761Y-78448466D02*
X96005666Y-78524657D01*
X96005666Y-78524657D02*
X95967571Y-78562752D01*
X95967571Y-78562752D02*
X95891380Y-78600847D01*
X95891380Y-78600847D02*
X95624714Y-78600847D01*
X96386618Y-78791323D02*
X96767571Y-78791323D01*
X96310428Y-79019895D02*
X96577095Y-78219895D01*
X96577095Y-78219895D02*
X96843761Y-79019895D01*
X96996142Y-78219895D02*
X97453285Y-78219895D01*
X97224713Y-79019895D02*
X97224713Y-78219895D01*
X95250076Y-83219790D02*
X95173886Y-83181695D01*
X95173886Y-83181695D02*
X95059600Y-83181695D01*
X95059600Y-83181695D02*
X94945314Y-83219790D01*
X94945314Y-83219790D02*
X94869124Y-83295980D01*
X94869124Y-83295980D02*
X94831029Y-83372171D01*
X94831029Y-83372171D02*
X94792933Y-83524552D01*
X94792933Y-83524552D02*
X94792933Y-83638838D01*
X94792933Y-83638838D02*
X94831029Y-83791219D01*
X94831029Y-83791219D02*
X94869124Y-83867409D01*
X94869124Y-83867409D02*
X94945314Y-83943600D01*
X94945314Y-83943600D02*
X95059600Y-83981695D01*
X95059600Y-83981695D02*
X95135791Y-83981695D01*
X95135791Y-83981695D02*
X95250076Y-83943600D01*
X95250076Y-83943600D02*
X95288172Y-83905504D01*
X95288172Y-83905504D02*
X95288172Y-83638838D01*
X95288172Y-83638838D02*
X95135791Y-83638838D01*
X95631029Y-83981695D02*
X95631029Y-83181695D01*
X95631029Y-83181695D02*
X96088172Y-83981695D01*
X96088172Y-83981695D02*
X96088172Y-83181695D01*
X96469124Y-83981695D02*
X96469124Y-83181695D01*
X96469124Y-83181695D02*
X96659600Y-83181695D01*
X96659600Y-83181695D02*
X96773886Y-83219790D01*
X96773886Y-83219790D02*
X96850076Y-83295980D01*
X96850076Y-83295980D02*
X96888171Y-83372171D01*
X96888171Y-83372171D02*
X96926267Y-83524552D01*
X96926267Y-83524552D02*
X96926267Y-83638838D01*
X96926267Y-83638838D02*
X96888171Y-83791219D01*
X96888171Y-83791219D02*
X96850076Y-83867409D01*
X96850076Y-83867409D02*
X96773886Y-83943600D01*
X96773886Y-83943600D02*
X96659600Y-83981695D01*
X96659600Y-83981695D02*
X96469124Y-83981695D01*
X112090750Y-74611276D02*
X112128845Y-74535086D01*
X112128845Y-74535086D02*
X112128845Y-74420800D01*
X112128845Y-74420800D02*
X112090750Y-74306514D01*
X112090750Y-74306514D02*
X112014560Y-74230324D01*
X112014560Y-74230324D02*
X111938369Y-74192229D01*
X111938369Y-74192229D02*
X111785988Y-74154133D01*
X111785988Y-74154133D02*
X111671702Y-74154133D01*
X111671702Y-74154133D02*
X111519321Y-74192229D01*
X111519321Y-74192229D02*
X111443131Y-74230324D01*
X111443131Y-74230324D02*
X111366941Y-74306514D01*
X111366941Y-74306514D02*
X111328845Y-74420800D01*
X111328845Y-74420800D02*
X111328845Y-74496991D01*
X111328845Y-74496991D02*
X111366941Y-74611276D01*
X111366941Y-74611276D02*
X111405036Y-74649372D01*
X111405036Y-74649372D02*
X111671702Y-74649372D01*
X111671702Y-74649372D02*
X111671702Y-74496991D01*
X111328845Y-74992229D02*
X112128845Y-74992229D01*
X112128845Y-74992229D02*
X111328845Y-75449372D01*
X111328845Y-75449372D02*
X112128845Y-75449372D01*
X111328845Y-75830324D02*
X112128845Y-75830324D01*
X112128845Y-75830324D02*
X112128845Y-76020800D01*
X112128845Y-76020800D02*
X112090750Y-76135086D01*
X112090750Y-76135086D02*
X112014560Y-76211276D01*
X112014560Y-76211276D02*
X111938369Y-76249371D01*
X111938369Y-76249371D02*
X111785988Y-76287467D01*
X111785988Y-76287467D02*
X111671702Y-76287467D01*
X111671702Y-76287467D02*
X111519321Y-76249371D01*
X111519321Y-76249371D02*
X111443131Y-76211276D01*
X111443131Y-76211276D02*
X111366941Y-76135086D01*
X111366941Y-76135086D02*
X111328845Y-76020800D01*
X111328845Y-76020800D02*
X111328845Y-75830324D01*
X134518419Y-49679095D02*
X134137467Y-49679095D01*
X134137467Y-49679095D02*
X134099371Y-50060047D01*
X134099371Y-50060047D02*
X134137467Y-50021952D01*
X134137467Y-50021952D02*
X134213657Y-49983857D01*
X134213657Y-49983857D02*
X134404133Y-49983857D01*
X134404133Y-49983857D02*
X134480324Y-50021952D01*
X134480324Y-50021952D02*
X134518419Y-50060047D01*
X134518419Y-50060047D02*
X134556514Y-50136238D01*
X134556514Y-50136238D02*
X134556514Y-50326714D01*
X134556514Y-50326714D02*
X134518419Y-50402904D01*
X134518419Y-50402904D02*
X134480324Y-50441000D01*
X134480324Y-50441000D02*
X134404133Y-50479095D01*
X134404133Y-50479095D02*
X134213657Y-50479095D01*
X134213657Y-50479095D02*
X134137467Y-50441000D01*
X134137467Y-50441000D02*
X134099371Y-50402904D01*
X134785086Y-49679095D02*
X135051753Y-50479095D01*
X135051753Y-50479095D02*
X135318419Y-49679095D01*
X131644800Y-85775724D02*
X131682895Y-85661438D01*
X131682895Y-85661438D02*
X131682895Y-85470962D01*
X131682895Y-85470962D02*
X131644800Y-85394771D01*
X131644800Y-85394771D02*
X131606704Y-85356676D01*
X131606704Y-85356676D02*
X131530514Y-85318581D01*
X131530514Y-85318581D02*
X131454323Y-85318581D01*
X131454323Y-85318581D02*
X131378133Y-85356676D01*
X131378133Y-85356676D02*
X131340038Y-85394771D01*
X131340038Y-85394771D02*
X131301942Y-85470962D01*
X131301942Y-85470962D02*
X131263847Y-85623343D01*
X131263847Y-85623343D02*
X131225752Y-85699533D01*
X131225752Y-85699533D02*
X131187657Y-85737628D01*
X131187657Y-85737628D02*
X131111466Y-85775724D01*
X131111466Y-85775724D02*
X131035276Y-85775724D01*
X131035276Y-85775724D02*
X130959085Y-85737628D01*
X130959085Y-85737628D02*
X130920990Y-85699533D01*
X130920990Y-85699533D02*
X130882895Y-85623343D01*
X130882895Y-85623343D02*
X130882895Y-85432866D01*
X130882895Y-85432866D02*
X130920990Y-85318581D01*
X130959085Y-85013819D02*
X130920990Y-84975723D01*
X130920990Y-84975723D02*
X130882895Y-84899533D01*
X130882895Y-84899533D02*
X130882895Y-84709057D01*
X130882895Y-84709057D02*
X130920990Y-84632866D01*
X130920990Y-84632866D02*
X130959085Y-84594771D01*
X130959085Y-84594771D02*
X131035276Y-84556676D01*
X131035276Y-84556676D02*
X131111466Y-84556676D01*
X131111466Y-84556676D02*
X131225752Y-84594771D01*
X131225752Y-84594771D02*
X131682895Y-85051914D01*
X131682895Y-85051914D02*
X131682895Y-84556676D01*
X101672800Y-85699524D02*
X101710895Y-85585238D01*
X101710895Y-85585238D02*
X101710895Y-85394762D01*
X101710895Y-85394762D02*
X101672800Y-85318571D01*
X101672800Y-85318571D02*
X101634704Y-85280476D01*
X101634704Y-85280476D02*
X101558514Y-85242381D01*
X101558514Y-85242381D02*
X101482323Y-85242381D01*
X101482323Y-85242381D02*
X101406133Y-85280476D01*
X101406133Y-85280476D02*
X101368038Y-85318571D01*
X101368038Y-85318571D02*
X101329942Y-85394762D01*
X101329942Y-85394762D02*
X101291847Y-85547143D01*
X101291847Y-85547143D02*
X101253752Y-85623333D01*
X101253752Y-85623333D02*
X101215657Y-85661428D01*
X101215657Y-85661428D02*
X101139466Y-85699524D01*
X101139466Y-85699524D02*
X101063276Y-85699524D01*
X101063276Y-85699524D02*
X100987085Y-85661428D01*
X100987085Y-85661428D02*
X100948990Y-85623333D01*
X100948990Y-85623333D02*
X100910895Y-85547143D01*
X100910895Y-85547143D02*
X100910895Y-85356666D01*
X100910895Y-85356666D02*
X100948990Y-85242381D01*
X101177561Y-84556666D02*
X101710895Y-84556666D01*
X100872800Y-84747142D02*
X101444228Y-84937619D01*
X101444228Y-84937619D02*
X101444228Y-84442380D01*
X95224676Y-73669390D02*
X95148486Y-73631295D01*
X95148486Y-73631295D02*
X95034200Y-73631295D01*
X95034200Y-73631295D02*
X94919914Y-73669390D01*
X94919914Y-73669390D02*
X94843724Y-73745580D01*
X94843724Y-73745580D02*
X94805629Y-73821771D01*
X94805629Y-73821771D02*
X94767533Y-73974152D01*
X94767533Y-73974152D02*
X94767533Y-74088438D01*
X94767533Y-74088438D02*
X94805629Y-74240819D01*
X94805629Y-74240819D02*
X94843724Y-74317009D01*
X94843724Y-74317009D02*
X94919914Y-74393200D01*
X94919914Y-74393200D02*
X95034200Y-74431295D01*
X95034200Y-74431295D02*
X95110391Y-74431295D01*
X95110391Y-74431295D02*
X95224676Y-74393200D01*
X95224676Y-74393200D02*
X95262772Y-74355104D01*
X95262772Y-74355104D02*
X95262772Y-74088438D01*
X95262772Y-74088438D02*
X95110391Y-74088438D01*
X95605629Y-74431295D02*
X95605629Y-73631295D01*
X95605629Y-73631295D02*
X96062772Y-74431295D01*
X96062772Y-74431295D02*
X96062772Y-73631295D01*
X96443724Y-74431295D02*
X96443724Y-73631295D01*
X96443724Y-73631295D02*
X96634200Y-73631295D01*
X96634200Y-73631295D02*
X96748486Y-73669390D01*
X96748486Y-73669390D02*
X96824676Y-73745580D01*
X96824676Y-73745580D02*
X96862771Y-73821771D01*
X96862771Y-73821771D02*
X96900867Y-73974152D01*
X96900867Y-73974152D02*
X96900867Y-74088438D01*
X96900867Y-74088438D02*
X96862771Y-74240819D01*
X96862771Y-74240819D02*
X96824676Y-74317009D01*
X96824676Y-74317009D02*
X96748486Y-74393200D01*
X96748486Y-74393200D02*
X96634200Y-74431295D01*
X96634200Y-74431295D02*
X96443724Y-74431295D01*
X133496142Y-80082847D02*
X133610428Y-80120942D01*
X133610428Y-80120942D02*
X133648523Y-80159038D01*
X133648523Y-80159038D02*
X133686619Y-80235228D01*
X133686619Y-80235228D02*
X133686619Y-80349514D01*
X133686619Y-80349514D02*
X133648523Y-80425704D01*
X133648523Y-80425704D02*
X133610428Y-80463800D01*
X133610428Y-80463800D02*
X133534238Y-80501895D01*
X133534238Y-80501895D02*
X133229476Y-80501895D01*
X133229476Y-80501895D02*
X133229476Y-79701895D01*
X133229476Y-79701895D02*
X133496142Y-79701895D01*
X133496142Y-79701895D02*
X133572333Y-79739990D01*
X133572333Y-79739990D02*
X133610428Y-79778085D01*
X133610428Y-79778085D02*
X133648523Y-79854276D01*
X133648523Y-79854276D02*
X133648523Y-79930466D01*
X133648523Y-79930466D02*
X133610428Y-80006657D01*
X133610428Y-80006657D02*
X133572333Y-80044752D01*
X133572333Y-80044752D02*
X133496142Y-80082847D01*
X133496142Y-80082847D02*
X133229476Y-80082847D01*
X134029476Y-80501895D02*
X134029476Y-79701895D01*
X134029476Y-79701895D02*
X134334238Y-79701895D01*
X134334238Y-79701895D02*
X134410428Y-79739990D01*
X134410428Y-79739990D02*
X134448523Y-79778085D01*
X134448523Y-79778085D02*
X134486619Y-79854276D01*
X134486619Y-79854276D02*
X134486619Y-79968561D01*
X134486619Y-79968561D02*
X134448523Y-80044752D01*
X134448523Y-80044752D02*
X134410428Y-80082847D01*
X134410428Y-80082847D02*
X134334238Y-80120942D01*
X134334238Y-80120942D02*
X134029476Y-80120942D01*
X135286619Y-80501895D02*
X135019952Y-80120942D01*
X134829476Y-80501895D02*
X134829476Y-79701895D01*
X134829476Y-79701895D02*
X135134238Y-79701895D01*
X135134238Y-79701895D02*
X135210428Y-79739990D01*
X135210428Y-79739990D02*
X135248523Y-79778085D01*
X135248523Y-79778085D02*
X135286619Y-79854276D01*
X135286619Y-79854276D02*
X135286619Y-79968561D01*
X135286619Y-79968561D02*
X135248523Y-80044752D01*
X135248523Y-80044752D02*
X135210428Y-80082847D01*
X135210428Y-80082847D02*
X135134238Y-80120942D01*
X135134238Y-80120942D02*
X134829476Y-80120942D01*
X95224619Y-71421495D02*
X94843667Y-71421495D01*
X94843667Y-71421495D02*
X94805571Y-71802447D01*
X94805571Y-71802447D02*
X94843667Y-71764352D01*
X94843667Y-71764352D02*
X94919857Y-71726257D01*
X94919857Y-71726257D02*
X95110333Y-71726257D01*
X95110333Y-71726257D02*
X95186524Y-71764352D01*
X95186524Y-71764352D02*
X95224619Y-71802447D01*
X95224619Y-71802447D02*
X95262714Y-71878638D01*
X95262714Y-71878638D02*
X95262714Y-72069114D01*
X95262714Y-72069114D02*
X95224619Y-72145304D01*
X95224619Y-72145304D02*
X95186524Y-72183400D01*
X95186524Y-72183400D02*
X95110333Y-72221495D01*
X95110333Y-72221495D02*
X94919857Y-72221495D01*
X94919857Y-72221495D02*
X94843667Y-72183400D01*
X94843667Y-72183400D02*
X94805571Y-72145304D01*
X95491286Y-71421495D02*
X95757953Y-72221495D01*
X95757953Y-72221495D02*
X96024619Y-71421495D01*
X95275419Y-85442295D02*
X94894467Y-85442295D01*
X94894467Y-85442295D02*
X94856371Y-85823247D01*
X94856371Y-85823247D02*
X94894467Y-85785152D01*
X94894467Y-85785152D02*
X94970657Y-85747057D01*
X94970657Y-85747057D02*
X95161133Y-85747057D01*
X95161133Y-85747057D02*
X95237324Y-85785152D01*
X95237324Y-85785152D02*
X95275419Y-85823247D01*
X95275419Y-85823247D02*
X95313514Y-85899438D01*
X95313514Y-85899438D02*
X95313514Y-86089914D01*
X95313514Y-86089914D02*
X95275419Y-86166104D01*
X95275419Y-86166104D02*
X95237324Y-86204200D01*
X95237324Y-86204200D02*
X95161133Y-86242295D01*
X95161133Y-86242295D02*
X94970657Y-86242295D01*
X94970657Y-86242295D02*
X94894467Y-86204200D01*
X94894467Y-86204200D02*
X94856371Y-86166104D01*
X95542086Y-85442295D02*
X95808753Y-86242295D01*
X95808753Y-86242295D02*
X96075419Y-85442295D01*
%TO.C,DEVBOARD_FC1*%
X99355608Y-93434597D02*
G75*
G02*
X95955608Y-93434597I-1700000J0D01*
G01*
X95955608Y-93434597D02*
G75*
G02*
X99355608Y-93434597I1700000J0D01*
G01*
X100155608Y-93434597D02*
G75*
G02*
X95155608Y-93434597I-2500000J0D01*
G01*
X95155608Y-93434597D02*
G75*
G02*
X100155608Y-93434597I2500000J0D01*
G01*
X99361147Y-31240000D02*
G75*
G02*
X95961147Y-31240000I-1700000J0D01*
G01*
X95961147Y-31240000D02*
G75*
G02*
X99361147Y-31240000I1700000J0D01*
G01*
X100161147Y-31240000D02*
G75*
G02*
X95161147Y-31240000I-2500000J0D01*
G01*
X95161147Y-31240000D02*
G75*
G02*
X100161147Y-31240000I2500000J0D01*
G01*
X134161147Y-93451213D02*
G75*
G02*
X130761147Y-93451213I-1700000J0D01*
G01*
X130761147Y-93451213D02*
G75*
G02*
X134161147Y-93451213I1700000J0D01*
G01*
X134961147Y-93451213D02*
G75*
G02*
X129961147Y-93451213I-2500000J0D01*
G01*
X129961147Y-93451213D02*
G75*
G02*
X134961147Y-93451213I2500000J0D01*
G01*
X134165293Y-31240000D02*
G75*
G02*
X130765293Y-31240000I-1700000J0D01*
G01*
X130765293Y-31240000D02*
G75*
G02*
X134165293Y-31240000I1700000J0D01*
G01*
X134965293Y-31240000D02*
G75*
G02*
X129965293Y-31240000I-2500000J0D01*
G01*
X129965293Y-31240000D02*
G75*
G02*
X134965293Y-31240000I2500000J0D01*
G01*
%TD*%
M02*
